Commune NuitDebout-Pochoir.ufo
<glyph name="quotedbl" format="1">
  <advance width="217"/>
  <unicode hex="0022"/>
  <outline>
    <contour>
      <point x="48" y="568" type="line"/>
      <point x="70" y="568" type="line"/>
      <point x="93" y="666" type="line"/>
      <point x="93" y="760" type="line"/>
      <point x="25" y="760" type="line"/>
      <point x="25" y="666" type="line"/>
    </contour>
    <contour>
      <point x="147" y="568" type="line"/>
      <point x="169" y="568" type="line"/>
      <point x="192" y="666" type="line"/>
      <point x="192" y="760" type="line"/>
      <point x="124" y="760" type="line"/>
      <point x="124" y="666" type="line"/>
    </contour>
  </outline>
</glyph>
<glyph name="numbersign" format="1">
  <advance width="247"/>
  <unicode hex="0023"/>
  <outline>
    <contour>
      <point x="36" y="499" type="line"/>
      <point x="237" y="499" type="line"/>
      <point x="237" y="553" type="line"/>
      <point x="204" y="553" type="line"/>
      <point x="224" y="760" type="line"/>
      <point x="176" y="760" type="line"/>
      <point x="156" y="553" type="line"/>
      <point x="122" y="553" type="line"/>
      <point x="142" y="760" type="line"/>
      <point x="94" y="760" type="line"/>
      <point x="74" y="553" type="line"/>
      <point x="36" y="553" type="line"/>
    </contour>
    <contour>
      <point x="97" y="281" type="line"/>
      <point x="115" y="479" type="line"/>
      <point x="67" y="479" type="line"/>
      <point x="49" y="281" type="line"/>
    </contour>
    <contour>
      <point x="179" y="281" type="line"/>
      <point x="197" y="479" type="line"/>
      <point x="149" y="479" type="line"/>
      <point x="131" y="281" type="line"/>
    </contour>
    <contour>
      <point x="211" y="261" type="line"/>
      <point x="10" y="261" type="line"/>
      <point x="10" y="207" type="line"/>
      <point x="42" y="207" type="line"/>
      <point x="23" y="0" type="line"/>
      <point x="71" y="0" type="line"/>
      <point x="90" y="207" type="line"/>
      <point x="124" y="207" type="line"/>
      <point x="105" y="0" type="line"/>
      <point x="153" y="0" type="line"/>
      <point x="172" y="207" type="line"/>
      <point x="211" y="207" type="line"/>
    </contour>
  </outline>
</glyph>
<glyph name="dollar" format="1">
  <advance width="241"/>
  <unicode hex="0024"/>
  <outline>
    <contour>
      <point x="25" y="696" type="line"/>
      <point x="216" y="696" type="line"/>
      <point x="216" y="706" type="line"/>
      <point x="162" y="760" type="line"/>
      <point x="135" y="760" type="line"/>
      <point x="135" y="829" type="line"/>
      <point x="106" y="829" type="line"/>
      <point x="106" y="760" type="line"/>
      <point x="79" y="760" type="line"/>
      <point x="25" y="706" type="line"/>
    </contour>
    <contour>
      <point x="216" y="84" type="line"/>
      <point x="216" y="358" type="line"/>
      <point x="162" y="412" type="line"/>
      <point x="83" y="412" type="line"/>
      <point x="83" y="676" type="line"/>
      <point x="25" y="676" type="line"/>
      <point x="25" y="402" type="line"/>
      <point x="79" y="348" type="line"/>
      <point x="158" y="348" type="line"/>
      <point x="158" y="84" type="line"/>
    </contour>
    <contour>
      <point x="135" y="432" type="line"/>
      <point x="135" y="676" type="line"/>
      <point x="106" y="676" type="line"/>
      <point x="106" y="432" type="line"/>
    </contour>
    <contour>
      <point x="216" y="676" type="line"/>
      <point x="158" y="676" type="line"/>
      <point x="158" y="563" type="line"/>
      <point x="216" y="563" type="line"/>
    </contour>
    <contour>
      <point x="106" y="84" type="line"/>
      <point x="135" y="84" type="line"/>
      <point x="135" y="328" type="line"/>
      <point x="106" y="328" type="line"/>
    </contour>
    <contour>
      <point x="83" y="84" type="line"/>
      <point x="83" y="197" type="line"/>
      <point x="25" y="197" type="line"/>
      <point x="25" y="84" type="line"/>
    </contour>
    <contour>
      <point x="216" y="64" type="line"/>
      <point x="25" y="64" type="line"/>
      <point x="25" y="54" type="line"/>
      <point x="79" y="0" type="line"/>
      <point x="106" y="0" type="line"/>
      <point x="106" y="-69" type="line"/>
      <point x="135" y="-69" type="line"/>
      <point x="135" y="0" type="line"/>
      <point x="162" y="0" type="line"/>
      <point x="216" y="54" type="line"/>
    </contour>
  </outline>
</glyph>
<glyph name="percent" format="1">
  <advance width="352"/>
  <unicode hex="0025"/>
  <outline>
    <contour>
      <point x="145" y="715" type="line"/>
      <point x="145" y="726" type="line"/>
      <point x="111" y="760" type="line"/>
      <point x="58" y="760" type="line"/>
      <point x="24" y="726" type="line"/>
      <point x="24" y="715" type="line"/>
    </contour>
    <contour>
      <point x="120" y="0" type="line"/>
      <point x="300" y="760" type="line"/>
      <point x="232" y="760" type="line"/>
      <point x="52" y="0" type="line"/>
    </contour>
    <contour>
      <point x="145" y="509" type="line"/>
      <point x="145" y="695" type="line"/>
      <point x="98" y="695" type="line"/>
      <point x="98" y="509" type="line"/>
    </contour>
    <contour>
      <point x="71" y="509" type="line"/>
      <point x="71" y="695" type="line"/>
      <point x="24" y="695" type="line"/>
      <point x="24" y="509" type="line"/>
    </contour>
    <contour>
      <point x="145" y="489" type="line"/>
      <point x="24" y="489" type="line"/>
      <point x="24" y="478" type="line"/>
      <point x="58" y="444" type="line"/>
      <point x="111" y="444" type="line"/>
      <point x="145" y="478" type="line"/>
    </contour>
    <contour>
      <point x="328" y="271" type="line"/>
      <point x="328" y="282" type="line"/>
      <point x="294" y="316" type="line"/>
      <point x="241" y="316" type="line"/>
      <point x="207" y="282" type="line"/>
      <point x="207" y="271" type="line"/>
    </contour>
    <contour>
      <point x="328" y="65" type="line"/>
      <point x="328" y="251" type="line"/>
      <point x="281" y="251" type="line"/>
      <point x="281" y="65" type="line"/>
    </contour>
    <contour>
      <point x="254" y="65" type="line"/>
      <point x="254" y="251" type="line"/>
      <point x="207" y="251" type="line"/>
      <point x="207" y="65" type="line"/>
    </contour>
    <contour>
      <point x="328" y="45" type="line"/>
      <point x="207" y="45" type="line"/>
      <point x="207" y="34" type="line"/>
      <point x="241" y="0" type="line"/>
      <point x="294" y="0" type="line"/>
      <point x="328" y="34" type="line"/>
    </contour>
  </outline>
</glyph>
<glyph name="quotesingle" format="1">
  <advance width="118"/>
  <unicode hex="0027"/>
  <outline>
    <contour>
      <point x="48" y="568" type="line"/>
      <point x="70" y="568" type="line"/>
      <point x="93" y="666" type="line"/>
      <point x="93" y="760" type="line"/>
      <point x="25" y="760" type="line"/>
      <point x="25" y="666" type="line"/>
    </contour>
  </outline>
</glyph>
<glyph name="asterisk" format="1">
  <advance width="213"/>
  <unicode hex="002A"/>
  <outline>
    <contour>
      <point x="124" y="621" type="line"/>
      <point x="124" y="760" type="line"/>
      <point x="89" y="760" type="line"/>
      <point x="89" y="621" type="line"/>
      <point x="28" y="701" type="line"/>
      <point x="28" y="643" type="line"/>
      <point x="84" y="571" type="line"/>
      <point x="28" y="498" type="line"/>
      <point x="28" y="440" type="line"/>
      <point x="89" y="520" type="line"/>
      <point x="89" y="380" type="line"/>
      <point x="124" y="380" type="line"/>
      <point x="124" y="520" type="line"/>
      <point x="185" y="440" type="line"/>
      <point x="185" y="498" type="line"/>
      <point x="129" y="571" type="line"/>
      <point x="185" y="643" type="line"/>
      <point x="185" y="701" type="line"/>
    </contour>
  </outline>
</glyph>
<glyph name="plus" format="1">
  <advance width="251"/>
  <unicode hex="002B"/>
  <outline>
    <contour>
      <point x="93" y="200" type="line"/>
      <point x="158" y="200" type="line"/>
      <point x="158" y="293" type="line"/>
      <point x="226" y="293" type="line"/>
      <point x="226" y="357" type="line"/>
      <point x="158" y="357" type="line"/>
      <point x="158" y="450" type="line"/>
      <point x="93" y="450" type="line"/>
      <point x="93" y="357" type="line"/>
      <point x="25" y="357" type="line"/>
      <point x="25" y="293" type="line"/>
      <point x="93" y="293" type="line"/>
    </contour>
  </outline>
</glyph>
<glyph name="period" format="1">
  <advance width="130"/>
  <unicode hex="002E"/>
  <outline>
    <contour>
      <point x="25" y="0" type="line"/>
      <point x="105" y="0" type="line"/>
      <point x="105" y="79" type="line"/>
      <point x="25" y="79" type="line"/>
    </contour>
  </outline>
</glyph>
<glyph name="three" format="1">
  <advance width="241"/>
  <unicode hex="0033"/>
  <outline>
    <contour>
      <point x="216" y="692" type="line"/>
      <point x="216" y="707" type="line"/>
      <point x="162" y="760" type="line"/>
      <point x="79" y="760" type="line"/>
      <point x="25" y="707" type="line"/>
      <point x="25" y="692" type="line"/>
    </contour>
    <contour>
      <point x="99" y="672" type="line"/>
      <point x="25" y="672" type="line"/>
      <point x="25" y="555" type="line"/>
      <point x="99" y="555" type="line"/>
    </contour>
    <contour>
      <point x="216" y="88" type="line"/>
      <point x="216" y="346" type="line"/>
      <point x="181" y="381" type="line"/>
      <point x="216" y="415" type="line"/>
      <point x="216" y="672" type="line"/>
      <point x="142" y="672" type="line"/>
      <point x="142" y="414" type="line"/>
      <point x="84" y="414" type="line"/>
      <point x="84" y="346" type="line"/>
      <point x="142" y="346" type="line"/>
      <point x="142" y="88" type="line"/>
    </contour>
    <contour>
      <point x="99" y="88" type="line"/>
      <point x="99" y="205" type="line"/>
      <point x="25" y="205" type="line"/>
      <point x="25" y="88" type="line"/>
    </contour>
    <contour>
      <point x="216" y="68" type="line"/>
      <point x="25" y="68" type="line"/>
      <point x="25" y="53" type="line"/>
      <point x="80" y="0" type="line"/>
      <point x="161" y="0" type="line"/>
      <point x="216" y="53" type="line"/>
    </contour>
  </outline>
</glyph>
<glyph name="five" format="1">
  <advance width="241"/>
  <unicode hex="0035"/>
  <outline>
    <contour>
      <point x="25" y="692" type="line"/>
      <point x="216" y="692" type="line"/>
      <point x="216" y="760" type="line"/>
      <point x="25" y="760" type="line"/>
    </contour>
    <contour>
      <point x="216" y="88" type="line"/>
      <point x="216" y="403" type="line"/>
      <point x="170" y="448" type="line"/>
      <point x="123" y="448" type="line"/>
      <point x="99" y="424" type="line"/>
      <point x="99" y="672" type="line"/>
      <point x="25" y="672" type="line"/>
      <point x="25" y="313" type="line"/>
      <point x="99" y="313" type="line"/>
      <point x="99" y="380" type="line"/>
      <point x="142" y="380" type="line"/>
      <point x="142" y="88" type="line"/>
    </contour>
    <contour>
      <point x="99" y="88" type="line"/>
      <point x="99" y="190" type="line"/>
      <point x="25" y="190" type="line"/>
      <point x="25" y="88" type="line"/>
    </contour>
    <contour>
      <point x="216" y="68" type="line"/>
      <point x="25" y="68" type="line"/>
      <point x="25" y="53" type="line"/>
      <point x="79" y="0" type="line"/>
      <point x="162" y="0" type="line"/>
      <point x="216" y="53" type="line"/>
    </contour>
  </outline>
</glyph>
<glyph name="seven" format="1">
  <advance width="207"/>
  <unicode hex="0037"/>
  <outline>
    <contour>
      <point x="193" y="692" type="line"/>
      <point x="193" y="760" type="line"/>
      <point x="11" y="760" type="line"/>
      <point x="11" y="692" type="line"/>
    </contour>
    <contour>
      <point x="193" y="672" type="line"/>
      <point x="119" y="672" type="line"/>
      <point x="119" y="485" type="line"/>
      <point x="56" y="370" type="line"/>
      <point x="56" y="0" type="line"/>
      <point x="130" y="0" type="line"/>
      <point x="130" y="357" type="line"/>
      <point x="193" y="473" type="line"/>
    </contour>
  </outline>
</glyph>
<glyph name="nine" format="1">
  <advance width="241"/>
  <unicode hex="0039"/>
  <outline>
    <contour>
      <point x="216" y="692" type="line"/>
      <point x="216" y="707" type="line"/>
      <point x="162" y="760" type="line"/>
      <point x="79" y="760" type="line"/>
      <point x="25" y="707" type="line"/>
      <point x="25" y="692" type="line"/>
    </contour>
    <contour>
      <point x="216" y="88" type="line"/>
      <point x="216" y="672" type="line"/>
      <point x="142" y="672" type="line"/>
      <point x="142" y="414" type="line"/>
      <point x="99" y="414" type="line"/>
      <point x="99" y="672" type="line"/>
      <point x="25" y="672" type="line"/>
      <point x="25" y="392" type="line"/>
      <point x="71" y="346" type="line"/>
      <point x="118" y="346" type="line"/>
      <point x="142" y="370" type="line"/>
      <point x="142" y="88" type="line"/>
    </contour>
    <contour>
      <point x="99" y="88" type="line"/>
      <point x="99" y="205" type="line"/>
      <point x="25" y="205" type="line"/>
      <point x="25" y="88" type="line"/>
    </contour>
    <contour>
      <point x="216" y="68" type="line"/>
      <point x="25" y="68" type="line"/>
      <point x="25" y="53" type="line"/>
      <point x="80" y="0" type="line"/>
      <point x="161" y="0" type="line"/>
      <point x="216" y="53" type="line"/>
    </contour>
  </outline>
</glyph>
<glyph name="less" format="1">
  <advance width="304"/>
  <unicode hex="003C"/>
  <outline>
    <contour>
      <point x="23" y="293" type="line"/>
      <point x="276" y="135" type="line"/>
      <point x="276" y="210" type="line"/>
      <point x="95" y="324" type="line"/>
      <point x="95" y="325" type="line"/>
      <point x="276" y="439" type="line"/>
      <point x="276" y="514" type="line"/>
      <point x="23" y="356" type="line"/>
    </contour>
  </outline>
</glyph>
<glyph name="equal" format="1">
  <advance width="251"/>
  <unicode hex="003D"/>
  <outline>
    <contour>
      <point x="25" y="359" type="line"/>
      <point x="226" y="359" type="line"/>
      <point x="226" y="423" type="line"/>
      <point x="25" y="423" type="line"/>
    </contour>
    <contour>
      <point x="25" y="227" type="line"/>
      <point x="226" y="227" type="line"/>
      <point x="226" y="291" type="line"/>
      <point x="25" y="291" type="line"/>
    </contour>
  </outline>
</glyph>
<glyph name="greater" format="1">
  <advance width="304"/>
  <unicode hex="003E"/>
  <outline>
    <contour>
      <point x="28" y="135" type="line"/>
      <point x="281" y="293" type="line"/>
      <point x="281" y="356" type="line"/>
      <point x="28" y="514" type="line"/>
      <point x="28" y="439" type="line"/>
      <point x="209" y="325" type="line"/>
      <point x="209" y="324" type="line"/>
      <point x="28" y="210" type="line"/>
    </contour>
  </outline>
</glyph>
<glyph name="at" format="1">
  <advance width="456"/>
  <unicode hex="0040"/>
  <outline>
    <contour>
      <point x="421" y="696" type="line"/>
      <point x="421" y="700" type="line"/>
      <point x="361" y="760" type="line"/>
      <point x="95" y="760" type="line"/>
      <point x="35" y="700" type="line"/>
      <point x="35" y="696" type="line"/>
    </contour>
    <contour>
      <point x="103" y="-139" type="line"/>
      <point x="103" y="676" type="line"/>
      <point x="35" y="676" type="line"/>
      <point x="35" y="-139" type="line"/>
    </contour>
    <contour>
      <point x="353" y="676" type="line"/>
      <point x="353" y="84" type="line"/>
      <point x="421" y="84" type="line"/>
      <point x="421" y="676" type="line"/>
    </contour>
    <contour>
      <point x="316" y="473" type="line"/>
      <point x="316" y="488" type="line"/>
      <point x="267" y="537" type="line"/>
      <point x="189" y="537" type="line"/>
      <point x="140" y="488" type="line"/>
      <point x="140" y="387" type="line"/>
      <point x="208" y="387" type="line"/>
      <point x="208" y="473" type="line"/>
    </contour>
    <contour>
      <point x="140" y="84" type="line"/>
      <point x="208" y="84" type="line"/>
      <point x="208" y="237" type="line"/>
      <point x="248" y="237" type="line"/>
      <point x="248" y="84" type="line"/>
      <point x="316" y="84" type="line"/>
      <point x="316" y="453" type="line"/>
      <point x="248" y="453" type="line"/>
      <point x="248" y="301" type="line"/>
      <point x="189" y="301" type="line"/>
      <point x="140" y="252" type="line"/>
    </contour>
    <contour>
      <point x="269" y="-159" type="line"/>
      <point x="35" y="-159" type="line"/>
      <point x="35" y="-163" type="line"/>
      <point x="95" y="-223" type="line"/>
      <point x="269" y="-223" type="line"/>
    </contour>
    <contour>
      <point x="140" y="64" type="line"/>
      <point x="140" y="38" type="line"/>
      <point x="179" y="0" type="line"/>
      <point x="236" y="0" type="line"/>
      <point x="269" y="33" type="line"/>
      <point x="302" y="0" type="line"/>
      <point x="360" y="0" type="line"/>
      <point x="421" y="60" type="line"/>
      <point x="421" y="64" type="line"/>
    </contour>
  </outline>
</glyph>
<glyph name="A" format="1">
  <advance width="247"/>
  <unicode hex="0041"/>
  <outline>
    <contour>
      <point x="214" y="232" type="line"/>
      <point x="166" y="760" type="line"/>
      <point x="81" y="760" type="line"/>
      <point x="33" y="232" type="line"/>
      <point x="104" y="232" type="line"/>
      <point x="123" y="489" type="line"/>
      <point x="124" y="489" type="line"/>
      <point x="143" y="232" type="line"/>
    </contour>
    <contour>
      <point x="216" y="212" type="line"/>
      <point x="31" y="212" type="line"/>
      <point x="12" y="0" type="line"/>
      <point x="86" y="0" type="line"/>
      <point x="97" y="144" type="line"/>
      <point x="150" y="144" type="line"/>
      <point x="161" y="0" type="line"/>
      <point x="235" y="0" type="line"/>
    </contour>
  </outline>
</glyph>
<glyph name="B" format="1">
  <advance width="241"/>
  <unicode hex="0042"/>
  <outline>
    <contour>
      <point x="25" y="692" type="line"/>
      <point x="216" y="692" type="line"/>
      <point x="216" y="706" type="line"/>
      <point x="162" y="760" type="line"/>
      <point x="25" y="760" type="line"/>
    </contour>
    <contour>
      <point x="142" y="88" type="line"/>
      <point x="216" y="88" type="line"/>
      <point x="216" y="346" type="line"/>
      <point x="181" y="381" type="line"/>
      <point x="216" y="415" type="line"/>
      <point x="216" y="672" type="line"/>
      <point x="142" y="672" type="line"/>
      <point x="142" y="414" type="line"/>
      <point x="99" y="414" type="line"/>
      <point x="99" y="672" type="line"/>
      <point x="25" y="672" type="line"/>
      <point x="25" y="88" type="line"/>
      <point x="99" y="88" type="line"/>
      <point x="99" y="346" type="line"/>
      <point x="142" y="346" type="line"/>
    </contour>
    <contour>
      <point x="216" y="68" type="line"/>
      <point x="25" y="68" type="line"/>
      <point x="25" y="0" type="line"/>
      <point x="162" y="0" type="line"/>
      <point x="216" y="54" type="line"/>
    </contour>
  </outline>
</glyph>
<glyph name="D" format="1">
  <advance width="241"/>
  <unicode hex="0044"/>
  <outline>
    <contour>
      <point x="25" y="692" type="line"/>
      <point x="216" y="692" type="line"/>
      <point x="216" y="706" type="line"/>
      <point x="162" y="760" type="line"/>
      <point x="25" y="760" type="line"/>
    </contour>
    <contour>
      <point x="25" y="88" type="line"/>
      <point x="99" y="88" type="line"/>
      <point x="99" y="672" type="line"/>
      <point x="25" y="672" type="line"/>
    </contour>
    <contour>
      <point x="216" y="672" type="line"/>
      <point x="142" y="672" type="line"/>
      <point x="142" y="88" type="line"/>
      <point x="216" y="88" type="line"/>
    </contour>
    <contour>
      <point x="216" y="68" type="line"/>
      <point x="25" y="68" type="line"/>
      <point x="25" y="0" type="line"/>
      <point x="161" y="0" type="line"/>
      <point x="216" y="54" type="line"/>
    </contour>
  </outline>
</glyph>
<glyph name="K" format="1">
  <advance width="245"/>
  <unicode hex="004B"/>
  <outline>
    <contour>
      <point x="99" y="537" type="line"/>
      <point x="99" y="760" type="line"/>
      <point x="25" y="760" type="line"/>
      <point x="25" y="537" type="line"/>
    </contour>
    <contour>
      <point x="187" y="537" type="line"/>
      <point x="231" y="760" type="line"/>
      <point x="158" y="760" type="line"/>
      <point x="115" y="537" type="line"/>
    </contour>
    <contour>
      <point x="183" y="243" type="line"/>
      <point x="156" y="379" type="line"/>
      <point x="183" y="517" type="line"/>
      <point x="25" y="517" type="line"/>
      <point x="25" y="243" type="line"/>
    </contour>
    <contour>
      <point x="99" y="223" type="line"/>
      <point x="25" y="223" type="line"/>
      <point x="25" y="0" type="line"/>
      <point x="99" y="0" type="line"/>
    </contour>
    <contour>
      <point x="187" y="223" type="line"/>
      <point x="115" y="223" type="line"/>
      <point x="158" y="0" type="line"/>
      <point x="231" y="0" type="line"/>
    </contour>
  </outline>
</glyph>
<glyph name="L" format="1">
  <advance width="204"/>
  <unicode hex="004C"/>
  <outline>
    <contour>
      <point x="99" y="88" type="line"/>
      <point x="99" y="760" type="line"/>
      <point x="25" y="760" type="line"/>
      <point x="25" y="88" type="line"/>
    </contour>
    <contour>
      <point x="189" y="68" type="line"/>
      <point x="25" y="68" type="line"/>
      <point x="25" y="0" type="line"/>
      <point x="189" y="0" type="line"/>
    </contour>
  </outline>
</glyph>
<glyph name="M" format="1">
  <advance width="347"/>
  <unicode hex="004D"/>
  <outline>
    <contour>
      <point x="181" y="482" type="line"/>
      <point x="322" y="482" type="line"/>
      <point x="322" y="760" type="line"/>
      <point x="206" y="760" type="line"/>
    </contour>
    <contour>
      <point x="165" y="482" type="line"/>
      <point x="141" y="760" type="line"/>
      <point x="25" y="760" type="line"/>
      <point x="25" y="482" type="line"/>
    </contour>
    <contour>
      <point x="322" y="462" type="line"/>
      <point x="248" y="462" type="line"/>
      <point x="248" y="0" type="line"/>
      <point x="322" y="0" type="line"/>
    </contour>
    <contour>
      <point x="99" y="462" type="line"/>
      <point x="25" y="462" type="line"/>
      <point x="25" y="0" type="line"/>
      <point x="99" y="0" type="line"/>
    </contour>
    <contour>
      <point x="239" y="462" type="line"/>
      <point x="108" y="462" type="line"/>
      <point x="148" y="0" type="line"/>
      <point x="199" y="0" type="line"/>
    </contour>
  </outline>
</glyph>
<glyph name="N" format="1">
  <advance width="268"/>
  <unicode hex="004E"/>
  <outline>
    <contour>
      <point x="243" y="390" type="line"/>
      <point x="243" y="760" type="line"/>
      <point x="169" y="760" type="line"/>
      <point x="169" y="390" type="line"/>
    </contour>
    <contour>
      <point x="162" y="390" type="line"/>
      <point x="99" y="760" type="line"/>
      <point x="25" y="760" type="line"/>
      <point x="25" y="390" type="line"/>
    </contour>
    <contour>
      <point x="99" y="370" type="line"/>
      <point x="25" y="370" type="line"/>
      <point x="25" y="0" type="line"/>
      <point x="99" y="0" type="line"/>
    </contour>
    <contour>
      <point x="243" y="370" type="line"/>
      <point x="106" y="370" type="line"/>
      <point x="169" y="0" type="line"/>
      <point x="243" y="0" type="line"/>
    </contour>
  </outline>
</glyph>
<glyph name="P" format="1">
  <advance width="238"/>
  <unicode hex="0050"/>
  <outline>
    <contour>
      <point x="216" y="692" type="line"/>
      <point x="216" y="706" type="line"/>
      <point x="162" y="760" type="line"/>
      <point x="25" y="760" type="line"/>
      <point x="25" y="692" type="line"/>
    </contour>
    <contour>
      <point x="216" y="672" type="line"/>
      <point x="142" y="672" type="line"/>
      <point x="142" y="414" type="line"/>
      <point x="99" y="414" type="line"/>
      <point x="99" y="672" type="line"/>
      <point x="25" y="672" type="line"/>
      <point x="25" y="0" type="line"/>
      <point x="99" y="0" type="line"/>
      <point x="99" y="346" type="line"/>
      <point x="162" y="346" type="line"/>
      <point x="216" y="401" type="line"/>
    </contour>
  </outline>
</glyph>
<glyph name="T" format="1">
  <advance width="222"/>
  <unicode hex="0054"/>
  <outline>
    <contour>
      <point x="15" y="692" type="line"/>
      <point x="207" y="692" type="line"/>
      <point x="207" y="760" type="line"/>
      <point x="15" y="760" type="line"/>
    </contour>
    <contour>
      <point x="148" y="672" type="line"/>
      <point x="74" y="672" type="line"/>
      <point x="74" y="0" type="line"/>
      <point x="148" y="0" type="line"/>
    </contour>
  </outline>
</glyph>
<glyph name="U" format="1">
  <advance width="241"/>
  <unicode hex="0055"/>
  <outline>
    <contour>
      <point x="99" y="88" type="line"/>
      <point x="99" y="760" type="line"/>
      <point x="25" y="760" type="line"/>
      <point x="25" y="88" type="line"/>
    </contour>
    <contour>
      <point x="216" y="88" type="line"/>
      <point x="216" y="760" type="line"/>
      <point x="142" y="760" type="line"/>
      <point x="142" y="88" type="line"/>
    </contour>
    <contour>
      <point x="216" y="68" type="line"/>
      <point x="25" y="68" type="line"/>
      <point x="25" y="54" type="line"/>
      <point x="79" y="0" type="line"/>
      <point x="162" y="0" type="line"/>
      <point x="216" y="54" type="line"/>
    </contour>
  </outline>
</glyph>
<glyph name="V" format="1">
  <advance width="247"/>
  <unicode hex="0056"/>
  <outline>
    <contour>
      <point x="119" y="346" type="line"/>
      <point x="86" y="760" type="line"/>
      <point x="13" y="760" type="line"/>
      <point x="50" y="346" type="line"/>
    </contour>
    <contour>
      <point x="197" y="346" type="line"/>
      <point x="234" y="760" type="line"/>
      <point x="161" y="760" type="line"/>
      <point x="128" y="346" type="line"/>
    </contour>
    <contour>
      <point x="195" y="326" type="line"/>
      <point x="52" y="326" type="line"/>
      <point x="81" y="0" type="line"/>
      <point x="166" y="0" type="line"/>
    </contour>
  </outline>
</glyph>
<glyph name="W" format="1">
  <advance width="372"/>
  <unicode hex="0057"/>
  <outline>
    <contour>
      <point x="324" y="346" type="line"/>
      <point x="360" y="760" type="line"/>
      <point x="286" y="760" type="line"/>
      <point x="253" y="346" type="line"/>
    </contour>
    <contour>
      <point x="119" y="346" type="line"/>
      <point x="86" y="760" type="line"/>
      <point x="12" y="760" type="line"/>
      <point x="47" y="346" type="line"/>
    </contour>
    <contour>
      <point x="244" y="346" type="line"/>
      <point x="217" y="760" type="line"/>
      <point x="155" y="760" type="line"/>
      <point x="128" y="346" type="line"/>
    </contour>
    <contour>
      <point x="180" y="326" type="line"/>
      <point x="49" y="326" type="line"/>
      <point x="77" y="0" type="line"/>
      <point x="157" y="0" type="line"/>
    </contour>
    <contour>
      <point x="322" y="326" type="line"/>
      <point x="192" y="326" type="line"/>
      <point x="215" y="0" type="line"/>
      <point x="294" y="0" type="line"/>
    </contour>
  </outline>
</glyph>
<glyph name="X" format="1">
  <advance width="249"/>
  <unicode hex="0058"/>
  <outline>
    <contour>
      <point x="117" y="537" type="line"/>
      <point x="84" y="760" type="line"/>
      <point x="10" y="760" type="line"/>
      <point x="46" y="537" type="line"/>
    </contour>
    <contour>
      <point x="239" y="760" type="line"/>
      <point x="165" y="760" type="line"/>
      <point x="132" y="537" type="line"/>
      <point x="203" y="537" type="line"/>
    </contour>
    <contour>
      <point x="117" y="223" type="line"/>
      <point x="46" y="223" type="line"/>
      <point x="10" y="0" type="line"/>
      <point x="84" y="0" type="line"/>
    </contour>
    <contour>
      <point x="203" y="223" type="line"/>
      <point x="132" y="223" type="line"/>
      <point x="165" y="0" type="line"/>
      <point x="239" y="0" type="line"/>
    </contour>
    <contour>
      <point x="200" y="243" type="line"/>
      <point x="178" y="380" type="line"/>
      <point x="200" y="517" type="line"/>
      <point x="49" y="517" type="line"/>
      <point x="71" y="380" type="line"/>
      <point x="49" y="243" type="line"/>
    </contour>
  </outline>
</glyph>
<glyph name="Y" format="1">
  <advance width="251"/>
  <unicode hex="0059"/>
  <outline>
    <contour>
      <point x="83" y="760" type="line"/>
      <point x="11" y="760" type="line"/>
      <point x="47" y="537" type="line"/>
      <point x="116" y="537" type="line"/>
    </contour>
    <contour>
      <point x="239" y="760" type="line"/>
      <point x="167" y="760" type="line"/>
      <point x="134" y="537" type="line"/>
      <point x="203" y="537" type="line"/>
    </contour>
    <contour>
      <point x="162" y="0" type="line"/>
      <point x="162" y="283" type="line"/>
      <point x="200" y="517" type="line"/>
      <point x="50" y="517" type="line"/>
      <point x="88" y="283" type="line"/>
      <point x="88" y="0" type="line"/>
    </contour>
  </outline>
</glyph>
<glyph name="Z" format="1">
  <advance width="217"/>
  <unicode hex="005A"/>
  <outline>
    <contour>
      <point x="201" y="692" type="line"/>
      <point x="201" y="760" type="line"/>
      <point x="16" y="760" type="line"/>
      <point x="16" y="692" type="line"/>
    </contour>
    <contour>
      <point x="197" y="672" type="line"/>
      <point x="125" y="672" type="line"/>
      <point x="20" y="88" type="line"/>
      <point x="93" y="88" type="line"/>
    </contour>
    <contour>
      <point x="201" y="68" type="line"/>
      <point x="16" y="68" type="line"/>
      <point x="16" y="0" type="line"/>
      <point x="201" y="0" type="line"/>
    </contour>
  </outline>
</glyph>
<glyph name="bracketleft" format="1">
  <advance width="150"/>
  <unicode hex="005B"/>
  <outline>
    <contour>
      <point x="30" y="-223" type="line"/>
      <point x="140" y="-223" type="line"/>
      <point x="140" y="-156" type="line"/>
      <point x="104" y="-156" type="line"/>
      <point x="104" y="692" type="line"/>
      <point x="140" y="692" type="line"/>
      <point x="140" y="760" type="line"/>
      <point x="30" y="760" type="line"/>
    </contour>
  </outline>
</glyph>
<glyph name="bracketright" format="1">
  <advance width="150"/>
  <unicode hex="005D"/>
  <outline>
    <contour>
      <point x="10" y="-223" type="line"/>
      <point x="120" y="-223" type="line"/>
      <point x="120" y="760" type="line"/>
      <point x="10" y="760" type="line"/>
      <point x="10" y="693" type="line"/>
      <point x="46" y="693" type="line"/>
      <point x="46" y="-155" type="line"/>
      <point x="10" y="-155" type="line"/>
    </contour>
  </outline>
</glyph>
<glyph name="asciicircum" format="1">
  <advance width="194"/>
  <unicode hex="005E"/>
  <outline>
    <contour>
      <point x="118" y="449" type="line"/>
      <point x="178" y="449" type="line"/>
      <point x="132" y="760" type="line"/>
      <point x="61" y="760" type="line"/>
      <point x="16" y="449" type="line"/>
      <point x="76" y="449" type="line"/>
      <point x="96" y="588" type="line"/>
    </contour>
  </outline>
</glyph>
<glyph name="f" format="1">
  <advance width="150"/>
  <unicode hex="0066"/>
  <outline>
    <contour>
      <point x="14" y="473" type="line"/>
      <point x="137" y="473" type="line"/>
      <point x="137" y="537" type="line"/>
      <point x="101" y="537" type="line"/>
      <point x="101" y="694" type="line"/>
      <point x="137" y="694" type="line"/>
      <point x="137" y="760" type="line"/>
      <point x="86" y="760" type="line"/>
      <point x="33" y="709" type="line"/>
      <point x="33" y="537" type="line"/>
      <point x="14" y="537" type="line"/>
    </contour>
    <contour>
      <point x="101" y="453" type="line"/>
      <point x="33" y="453" type="line"/>
      <point x="33" y="0" type="line"/>
      <point x="101" y="0" type="line"/>
    </contour>
  </outline>
</glyph>
<glyph name="h" format="1">
  <advance width="220"/>
  <unicode hex="0068"/>
  <outline>
    <contour>
      <point x="198" y="473" type="line"/>
      <point x="198" y="499" type="line"/>
      <point x="160" y="537" type="line"/>
      <point x="117" y="537" type="line"/>
      <point x="90" y="510" type="line"/>
      <point x="90" y="760" type="line"/>
      <point x="22" y="760" type="line"/>
      <point x="22" y="473" type="line"/>
    </contour>
    <contour>
      <point x="90" y="453" type="line"/>
      <point x="22" y="453" type="line"/>
      <point x="22" y="0" type="line"/>
      <point x="90" y="0" type="line"/>
    </contour>
    <contour>
      <point x="198" y="453" type="line"/>
      <point x="130" y="453" type="line"/>
      <point x="130" y="0" type="line"/>
      <point x="198" y="0" type="line"/>
    </contour>
  </outline>
</glyph>
<glyph name="s" format="1">
  <advance width="220"/>
  <unicode hex="0073"/>
  <outline>
    <contour>
      <point x="198" y="473" type="line"/>
      <point x="198" y="488" type="line"/>
      <point x="149" y="537" type="line"/>
      <point x="71" y="537" type="line"/>
      <point x="22" y="488" type="line"/>
      <point x="22" y="473" type="line"/>
    </contour>
    <contour>
      <point x="198" y="453" type="line"/>
      <point x="130" y="453" type="line"/>
      <point x="130" y="387" type="line"/>
      <point x="198" y="387" type="line"/>
    </contour>
    <contour>
      <point x="198" y="84" type="line"/>
      <point x="198" y="252" type="line"/>
      <point x="149" y="301" type="line"/>
      <point x="90" y="301" type="line"/>
      <point x="90" y="453" type="line"/>
      <point x="22" y="453" type="line"/>
      <point x="22" y="286" type="line"/>
      <point x="71" y="237" type="line"/>
      <point x="130" y="237" type="line"/>
      <point x="130" y="84" type="line"/>
    </contour>
    <contour>
      <point x="90" y="84" type="line"/>
      <point x="90" y="150" type="line"/>
      <point x="22" y="150" type="line"/>
      <point x="22" y="84" type="line"/>
    </contour>
    <contour>
      <point x="198" y="64" type="line"/>
      <point x="22" y="64" type="line"/>
      <point x="22" y="49" type="line"/>
      <point x="71" y="0" type="line"/>
      <point x="149" y="0" type="line"/>
      <point x="198" y="49" type="line"/>
    </contour>
  </outline>
</glyph>
<glyph name="v" format="1">
  <advance width="218"/>
  <unicode hex="0076"/>
  <outline>
    <contour>
      <point x="104" y="279" type="line"/>
      <point x="76" y="537" type="line"/>
      <point x="12" y="537" type="line"/>
      <point x="42" y="279" type="line"/>
    </contour>
    <contour>
      <point x="177" y="279" type="line"/>
      <point x="206" y="537" type="line"/>
      <point x="142" y="537" type="line"/>
      <point x="116" y="279" type="line"/>
    </contour>
    <contour>
      <point x="174" y="259" type="line"/>
      <point x="45" y="259" type="line"/>
      <point x="75" y="0" type="line"/>
      <point x="145" y="0" type="line"/>
    </contour>
  </outline>
</glyph>
<glyph name="w" format="1">
  <advance width="331"/>
  <unicode hex="0077"/>
  <outline>
    <contour>
      <point x="104" y="279" type="line"/>
      <point x="76" y="537" type="line"/>
      <point x="12" y="537" type="line"/>
      <point x="41" y="279" type="line"/>
    </contour>
    <contour>
      <point x="290" y="279" type="line"/>
      <point x="319" y="537" type="line"/>
      <point x="255" y="537" type="line"/>
      <point x="227" y="279" type="line"/>
    </contour>
    <contour>
      <point x="215" y="279" type="line"/>
      <point x="189" y="537" type="line"/>
      <point x="142" y="537" type="line"/>
      <point x="116" y="279" type="line"/>
    </contour>
    <contour>
      <point x="161" y="259" type="line"/>
      <point x="44" y="259" type="line"/>
      <point x="73" y="0" type="line"/>
      <point x="137" y="0" type="line"/>
    </contour>
    <contour>
      <point x="287" y="259" type="line"/>
      <point x="169" y="259" type="line"/>
      <point x="194" y="0" type="line"/>
      <point x="258" y="0" type="line"/>
    </contour>
  </outline>
</glyph>
<glyph name="x" format="1">
  <advance width="232"/>
  <unicode hex="0078"/>
  <outline>
    <contour>
      <point x="185" y="395" type="line"/>
      <point x="220" y="537" type="line"/>
      <point x="154" y="537" type="line"/>
      <point x="120" y="395" type="line"/>
    </contour>
    <contour>
      <point x="111" y="395" type="line"/>
      <point x="77" y="537" type="line"/>
      <point x="11" y="537" type="line"/>
      <point x="47" y="395" type="line"/>
    </contour>
    <contour>
      <point x="180" y="162" type="line"/>
      <point x="153" y="269" type="line"/>
      <point x="180" y="375" type="line"/>
      <point x="52" y="375" type="line"/>
      <point x="78" y="269" type="line"/>
      <point x="51" y="162" type="line"/>
    </contour>
    <contour>
      <point x="77" y="0" type="line"/>
      <point x="111" y="142" type="line"/>
      <point x="46" y="142" type="line"/>
      <point x="11" y="0" type="line"/>
    </contour>
    <contour>
      <point x="185" y="142" type="line"/>
      <point x="120" y="142" type="line"/>
      <point x="154" y="0" type="line"/>
      <point x="220" y="0" type="line"/>
    </contour>
  </outline>
</glyph>
<glyph name="y" format="1">
  <advance width="218"/>
  <unicode hex="0079"/>
  <outline>
    <contour>
      <point x="101" y="346" type="line"/>
      <point x="76" y="537" type="line"/>
      <point x="12" y="537" type="line"/>
      <point x="39" y="346" type="line"/>
    </contour>
    <contour>
      <point x="179" y="346" type="line"/>
      <point x="206" y="537" type="line"/>
      <point x="142" y="537" type="line"/>
      <point x="117" y="346" type="line"/>
    </contour>
    <contour>
      <point x="176" y="326" type="line"/>
      <point x="42" y="326" type="line"/>
      <point x="78" y="75" type="line"/>
      <point x="35" y="-223" type="line"/>
      <point x="97" y="-223" type="line"/>
    </contour>
  </outline>
</glyph>
<glyph name="z" format="1">
  <advance width="195"/>
  <unicode hex="007A"/>
  <outline>
    <contour>
      <point x="181" y="473" type="line"/>
      <point x="181" y="537" type="line"/>
      <point x="14" y="537" type="line"/>
      <point x="14" y="473" type="line"/>
    </contour>
    <contour>
      <point x="88" y="84" type="line"/>
      <point x="176" y="453" type="line"/>
      <point x="108" y="453" type="line"/>
      <point x="19" y="84" type="line"/>
    </contour>
    <contour>
      <point x="181" y="64" type="line"/>
      <point x="14" y="64" type="line"/>
      <point x="14" y="0" type="line"/>
      <point x="181" y="0" type="line"/>
    </contour>
  </outline>
</glyph>
<glyph name="currency" format="1">
  <advance width="251"/>
  <unicode hex="00A4"/>
  <outline>
    <contour>
      <point x="39" y="390" type="line"/>
      <point x="102" y="390" type="line"/>
      <point x="102" y="454" type="line"/>
      <point x="115" y="467" type="line"/>
      <point x="136" y="467" type="line"/>
      <point x="149" y="454" type="line"/>
      <point x="149" y="390" type="line"/>
      <point x="212" y="390" type="line"/>
      <point x="212" y="472" type="line"/>
      <point x="195" y="489" type="line"/>
      <point x="234" y="528" type="line"/>
      <point x="214" y="547" type="line"/>
      <point x="175" y="509" type="line"/>
      <point x="158" y="526" type="line"/>
      <point x="93" y="526" type="line"/>
      <point x="76" y="509" type="line"/>
      <point x="37" y="548" type="line"/>
      <point x="17" y="528" type="line"/>
      <point x="56" y="489" type="line"/>
      <point x="39" y="472" type="line"/>
    </contour>
    <contour>
      <point x="212" y="370" type="line"/>
      <point x="149" y="370" type="line"/>
      <point x="149" y="305" type="line"/>
      <point x="136" y="292" type="line"/>
      <point x="115" y="292" type="line"/>
      <point x="102" y="305" type="line"/>
      <point x="102" y="370" type="line"/>
      <point x="39" y="370" type="line"/>
      <point x="39" y="287" type="line"/>
      <point x="56" y="270" type="line"/>
      <point x="17" y="232" type="line"/>
      <point x="37" y="211" type="line"/>
      <point x="76" y="250" type="line"/>
      <point x="93" y="233" type="line"/>
      <point x="158" y="233" type="line"/>
      <point x="175" y="250" type="line"/>
      <point x="214" y="211" type="line"/>
      <point x="234" y="232" type="line"/>
      <point x="195" y="270" type="line"/>
      <point x="212" y="287" type="line"/>
    </contour>
  </outline>
</glyph>
<glyph name="brokenbar" format="1">
  <advance width="134"/>
  <unicode hex="00A6"/>
  <outline>
    <contour>
      <point x="30" y="346" type="line"/>
      <point x="104" y="346" type="line"/>
      <point x="104" y="760" type="line"/>
      <point x="30" y="760" type="line"/>
    </contour>
    <contour>
      <point x="30" y="-223" type="line"/>
      <point x="104" y="-223" type="line"/>
      <point x="104" y="191" type="line"/>
      <point x="30" y="191" type="line"/>
    </contour>
  </outline>
</glyph>
<glyph name="section" format="1">
  <advance width="237"/>
  <unicode hex="00A7"/>
  <outline>
    <contour>
      <point x="139" y="181" type="line"/>
      <point x="181" y="139" type="line"/>
      <point x="207" y="165" type="line"/>
      <point x="207" y="408" type="line"/>
      <point x="161" y="454" type="line"/>
      <point x="98" y="454" type="line"/>
      <point x="98" y="697" type="line"/>
      <point x="139" y="697" type="line"/>
      <point x="139" y="581" type="line"/>
      <point x="207" y="581" type="line"/>
      <point x="207" y="711" type="line"/>
      <point x="158" y="760" type="line"/>
      <point x="79" y="760" type="line"/>
      <point x="30" y="711" type="line"/>
      <point x="30" y="452" type="line"/>
      <point x="91" y="391" type="line"/>
      <point x="139" y="391" type="line"/>
    </contour>
    <contour>
      <point x="98" y="356" type="line"/>
      <point x="56" y="398" type="line"/>
      <point x="30" y="372" type="line"/>
      <point x="30" y="129" type="line"/>
      <point x="76" y="83" type="line"/>
      <point x="139" y="83" type="line"/>
      <point x="139" y="-160" type="line"/>
      <point x="98" y="-160" type="line"/>
      <point x="98" y="-44" type="line"/>
      <point x="30" y="-44" type="line"/>
      <point x="30" y="-174" type="line"/>
      <point x="79" y="-223" type="line"/>
      <point x="158" y="-223" type="line"/>
      <point x="207" y="-174" type="line"/>
      <point x="207" y="85" type="line"/>
      <point x="146" y="146" type="line"/>
      <point x="98" y="146" type="line"/>
    </contour>
  </outline>
</glyph>
<glyph name="dieresis" format="1">
  <advance width="210"/>
  <unicode hex="00A8"/>
  <outline>
    <contour>
      <point x="45" y="572" type="line"/>
      <point x="89" y="572" type="line"/>
      <point x="89" y="640" type="line"/>
      <point x="45" y="640" type="line"/>
    </contour>
    <contour>
      <point x="121" y="572" type="line"/>
      <point x="165" y="572" type="line"/>
      <point x="165" y="640" type="line"/>
      <point x="121" y="640" type="line"/>
    </contour>
  </outline>
</glyph>
<glyph name="copyright" format="1">
  <advance width="311"/>
  <unicode hex="00A9"/>
  <outline>
    <contour>
      <point x="49" y="721" type="line"/>
      <point x="262" y="721" type="line"/>
      <point x="223" y="760" type="line"/>
      <point x="88" y="760" type="line"/>
    </contour>
    <contour>
      <point x="31" y="59" type="line"/>
      <point x="75" y="59" type="line"/>
      <point x="75" y="701" type="line"/>
      <point x="31" y="701" type="line"/>
    </contour>
    <contour>
      <point x="280" y="701" type="line"/>
      <point x="236" y="701" type="line"/>
      <point x="236" y="59" type="line"/>
      <point x="280" y="59" type="line"/>
    </contour>
    <contour>
      <point x="213" y="555" type="line"/>
      <point x="180" y="588" type="line"/>
      <point x="131" y="588" type="line"/>
      <point x="98" y="555" type="line"/>
      <point x="98" y="549" type="line"/>
      <point x="213" y="549" type="line"/>
    </contour>
    <contour>
      <point x="213" y="529" type="line"/>
      <point x="168" y="529" type="line"/>
      <point x="168" y="465" type="line"/>
      <point x="213" y="465" type="line"/>
    </contour>
    <contour>
      <point x="98" y="231" type="line"/>
      <point x="143" y="231" type="line"/>
      <point x="143" y="529" type="line"/>
      <point x="98" y="529" type="line"/>
    </contour>
    <contour>
      <point x="168" y="231" type="line"/>
      <point x="213" y="231" type="line"/>
      <point x="213" y="295" type="line"/>
      <point x="168" y="295" type="line"/>
    </contour>
    <contour>
      <point x="213" y="205" type="line"/>
      <point x="213" y="211" type="line"/>
      <point x="98" y="211" type="line"/>
      <point x="98" y="205" type="line"/>
      <point x="131" y="172" type="line"/>
      <point x="180" y="172" type="line"/>
    </contour>
    <contour>
      <point x="262" y="39" type="line"/>
      <point x="49" y="39" type="line"/>
      <point x="88" y="0" type="line"/>
      <point x="223" y="0" type="line"/>
    </contour>
  </outline>
</glyph>
<glyph name="plusminus" format="1">
  <advance width="251"/>
  <unicode hex="00B1"/>
  <outline>
    <contour>
      <point x="92" y="303" type="line"/>
      <point x="160" y="303" type="line"/>
      <point x="160" y="375" type="line"/>
      <point x="226" y="375" type="line"/>
      <point x="226" y="439" type="line"/>
      <point x="160" y="439" type="line"/>
      <point x="160" y="510" type="line"/>
      <point x="92" y="510" type="line"/>
      <point x="92" y="439" type="line"/>
      <point x="25" y="439" type="line"/>
      <point x="25" y="375" type="line"/>
      <point x="92" y="375" type="line"/>
    </contour>
    <contour>
      <point x="25" y="195" type="line"/>
      <point x="226" y="195" type="line"/>
      <point x="226" y="259" type="line"/>
      <point x="25" y="259" type="line"/>
    </contour>
  </outline>
</glyph>
<glyph name="periodcentered" format="1">
  <advance width="130"/>
  <unicode hex="00B7"/>
  <outline>
    <contour>
      <point x="25" y="286" type="line"/>
      <point x="105" y="286" type="line"/>
      <point x="105" y="365" type="line"/>
      <point x="25" y="365" type="line"/>
    </contour>
  </outline>
</glyph>
<glyph name="onesuperior" format="1">
  <advance width="130"/>
  <unicode hex="00B9"/>
  <outline>
    <contour>
      <point x="23" y="657" type="line"/>
      <point x="95" y="657" type="line"/>
      <point x="95" y="760" type="line"/>
      <point x="73" y="760" type="line"/>
      <point x="43" y="702" type="line"/>
      <point x="23" y="702" type="line"/>
    </contour>
    <contour>
      <point x="50" y="380" type="line"/>
      <point x="95" y="380" type="line"/>
      <point x="95" y="637" type="line"/>
      <point x="50" y="637" type="line"/>
    </contour>
  </outline>
</glyph>
<glyph name="ordmasculine" format="1">
  <advance width="191"/>
  <unicode hex="00BA"/>
  <outline>
    <contour>
      <point x="169" y="718" type="line"/>
      <point x="127" y="760" type="line"/>
      <point x="64" y="760" type="line"/>
      <point x="22" y="718" type="line"/>
      <point x="22" y="707" type="line"/>
      <point x="169" y="707" type="line"/>
    </contour>
    <contour>
      <point x="22" y="453" type="line"/>
      <point x="78" y="453" type="line"/>
      <point x="78" y="687" type="line"/>
      <point x="22" y="687" type="line"/>
    </contour>
    <contour>
      <point x="169" y="687" type="line"/>
      <point x="113" y="687" type="line"/>
      <point x="113" y="453" type="line"/>
      <point x="169" y="453" type="line"/>
    </contour>
    <contour>
      <point x="169" y="422" type="line"/>
      <point x="169" y="433" type="line"/>
      <point x="22" y="433" type="line"/>
      <point x="22" y="422" type="line"/>
      <point x="64" y="380" type="line"/>
      <point x="127" y="380" type="line"/>
    </contour>
    <contour>
      <point x="22" y="157" type="line"/>
      <point x="169" y="157" type="line"/>
      <point x="169" y="221" type="line"/>
      <point x="22" y="221" type="line"/>
    </contour>
  </outline>
</glyph>
<glyph name="guillemotright" format="1">
  <advance width="279"/>
  <unicode hex="00BB"/>
  <outline>
    <contour>
      <point x="25" y="94" type="line"/>
      <point x="99" y="94" type="line"/>
      <point x="99" y="226" type="line"/>
      <point x="152" y="256" type="line"/>
      <point x="152" y="282" type="line"/>
      <point x="99" y="312" type="line"/>
      <point x="99" y="444" type="line"/>
      <point x="25" y="444" type="line"/>
      <point x="25" y="339" type="line"/>
      <point x="88" y="269" type="line"/>
      <point x="25" y="199" type="line"/>
    </contour>
    <contour>
      <point x="142" y="94" type="line"/>
      <point x="216" y="94" type="line"/>
      <point x="216" y="226" type="line"/>
      <point x="269" y="256" type="line"/>
      <point x="269" y="282" type="line"/>
      <point x="216" y="312" type="line"/>
      <point x="216" y="444" type="line"/>
      <point x="142" y="444" type="line"/>
      <point x="142" y="339" type="line"/>
      <point x="205" y="269" type="line"/>
      <point x="142" y="199" type="line"/>
    </contour>
  </outline>
</glyph>
<glyph name="onehalf" format="1">
  <advance width="357"/>
  <unicode hex="00BD"/>
  <outline>
    <contour>
      <point x="41" y="0" type="line"/>
      <point x="109" y="0" type="line"/>
      <point x="289" y="760" type="line"/>
      <point x="221" y="760" type="line"/>
    </contour>
    <contour>
      <point x="23" y="657" type="line"/>
      <point x="95" y="657" type="line"/>
      <point x="95" y="760" type="line"/>
      <point x="73" y="760" type="line"/>
      <point x="43" y="702" type="line"/>
      <point x="23" y="702" type="line"/>
    </contour>
    <contour>
      <point x="50" y="380" type="line"/>
      <point x="95" y="380" type="line"/>
      <point x="95" y="637" type="line"/>
      <point x="50" y="637" type="line"/>
    </contour>
    <contour>
      <point x="329" y="346" type="line"/>
      <point x="294" y="381" type="line"/>
      <point x="247" y="381" type="line"/>
      <point x="212" y="346" type="line"/>
      <point x="212" y="336" type="line"/>
      <point x="329" y="336" type="line"/>
    </contour>
    <contour>
      <point x="257" y="316" type="line"/>
      <point x="212" y="316" type="line"/>
      <point x="212" y="269" type="line"/>
      <point x="257" y="269" type="line"/>
    </contour>
    <contour>
      <point x="212" y="66" type="line"/>
      <point x="257" y="66" type="line"/>
      <point x="257" y="154" type="line"/>
      <point x="289" y="154" type="line"/>
      <point x="329" y="194" type="line"/>
      <point x="329" y="316" type="line"/>
      <point x="284" y="316" type="line"/>
      <point x="284" y="199" type="line"/>
      <point x="250" y="199" type="line"/>
      <point x="212" y="161" type="line"/>
    </contour>
    <contour>
      <point x="329" y="46" type="line"/>
      <point x="212" y="46" type="line"/>
      <point x="212" y="1" type="line"/>
      <point x="329" y="1" type="line"/>
    </contour>
  </outline>
</glyph>
<glyph name="threequarters" format="1">
  <advance width="378"/>
  <unicode hex="00BE"/>
  <outline>
    <contour>
      <point x="73" y="0" type="line"/>
      <point x="141" y="0" type="line"/>
      <point x="321" y="760" type="line"/>
      <point x="253" y="760" type="line"/>
    </contour>
    <contour>
      <point x="146" y="727" type="line"/>
      <point x="113" y="760" type="line"/>
      <point x="62" y="760" type="line"/>
      <point x="29" y="727" type="line"/>
      <point x="29" y="715" type="line"/>
      <point x="146" y="715" type="line"/>
    </contour>
    <contour>
      <point x="74" y="695" type="line"/>
      <point x="29" y="695" type="line"/>
      <point x="29" y="658" type="line"/>
      <point x="74" y="658" type="line"/>
    </contour>
    <contour>
      <point x="101" y="445" type="line"/>
      <point x="146" y="445" type="line"/>
      <point x="146" y="546" type="line"/>
      <point x="121" y="571" type="line"/>
      <point x="146" y="596" type="line"/>
      <point x="146" y="695" type="line"/>
      <point x="101" y="695" type="line"/>
      <point x="101" y="593" type="line"/>
      <point x="65" y="593" type="line"/>
      <point x="65" y="548" type="line"/>
      <point x="101" y="548" type="line"/>
    </contour>
    <contour>
      <point x="29" y="445" type="line"/>
      <point x="74" y="445" type="line"/>
      <point x="74" y="482" type="line"/>
      <point x="29" y="482" type="line"/>
    </contour>
    <contour>
      <point x="146" y="413" type="line"/>
      <point x="146" y="425" type="line"/>
      <point x="29" y="425" type="line"/>
      <point x="29" y="413" type="line"/>
      <point x="62" y="380" type="line"/>
      <point x="113" y="380" type="line"/>
    </contour>
    <contour>
      <point x="227" y="158" type="line"/>
      <point x="267" y="158" type="line"/>
      <point x="294" y="272" type="line"/>
      <point x="294" y="158" type="line"/>
      <point x="339" y="158" type="line"/>
      <point x="339" y="381" type="line"/>
      <point x="278" y="381" type="line"/>
    </contour>
    <contour>
      <point x="339" y="93" type="line"/>
      <point x="355" y="93" type="line"/>
      <point x="355" y="138" type="line"/>
      <point x="222" y="138" type="line"/>
      <point x="222" y="93" type="line"/>
      <point x="294" y="93" type="line"/>
      <point x="294" y="1" type="line"/>
      <point x="339" y="1" type="line"/>
    </contour>
  </outline>
</glyph>
<glyph name="Agrave" format="1">
  <advance width="257"/>
  <unicode hex="00C0"/>
  <outline>
    <contour>
      <point x="108" y="788" type="line"/>
      <point x="154" y="788" type="line"/>
      <point x="154" y="824" type="line"/>
      <point x="118" y="824" type="line"/>
      <point x="95" y="911" type="line"/>
      <point x="47" y="911" type="line"/>
      <point x="47" y="849" type="line"/>
    </contour>
    <contour>
      <point x="214" y="232" type="line"/>
      <point x="166" y="760" type="line"/>
      <point x="81" y="760" type="line"/>
      <point x="33" y="232" type="line"/>
      <point x="104" y="232" type="line"/>
      <point x="123" y="489" type="line"/>
      <point x="124" y="489" type="line"/>
      <point x="143" y="232" type="line"/>
    </contour>
    <contour>
      <point x="216" y="212" type="line"/>
      <point x="31" y="212" type="line"/>
      <point x="12" y="0" type="line"/>
      <point x="86" y="0" type="line"/>
      <point x="97" y="144" type="line"/>
      <point x="150" y="144" type="line"/>
      <point x="161" y="0" type="line"/>
      <point x="235" y="0" type="line"/>
    </contour>
  </outline>
</glyph>
<glyph name="Aacute" format="1">
  <advance width="257"/>
  <unicode hex="00C1"/>
  <outline>
    <contour>
      <point x="137" y="788" type="line"/>
      <point x="198" y="849" type="line"/>
      <point x="198" y="911" type="line"/>
      <point x="150" y="911" type="line"/>
      <point x="127" y="824" type="line"/>
      <point x="91" y="824" type="line"/>
      <point x="91" y="788" type="line"/>
    </contour>
    <contour>
      <point x="214" y="232" type="line"/>
      <point x="166" y="760" type="line"/>
      <point x="81" y="760" type="line"/>
      <point x="33" y="232" type="line"/>
      <point x="104" y="232" type="line"/>
      <point x="123" y="489" type="line"/>
      <point x="124" y="489" type="line"/>
      <point x="143" y="232" type="line"/>
    </contour>
    <contour>
      <point x="216" y="212" type="line"/>
      <point x="31" y="212" type="line"/>
      <point x="12" y="0" type="line"/>
      <point x="86" y="0" type="line"/>
      <point x="97" y="144" type="line"/>
      <point x="150" y="144" type="line"/>
      <point x="161" y="0" type="line"/>
      <point x="235" y="0" type="line"/>
    </contour>
  </outline>
</glyph>
<glyph name="Aring" format="1">
  <advance width="257"/>
  <unicode hex="00C5"/>
  <outline>
    <contour>
      <point x="177" y="889" type="line"/>
      <point x="146" y="920" type="line"/>
      <point x="102" y="920" type="line"/>
      <point x="71" y="889" type="line"/>
      <point x="71" y="888" type="line"/>
      <point x="177" y="888" type="line"/>
    </contour>
    <contour>
      <point x="106" y="872" type="line"/>
      <point x="71" y="872" type="line"/>
      <point x="71" y="836" type="line"/>
      <point x="106" y="836" type="line"/>
    </contour>
    <contour>
      <point x="142" y="836" type="line"/>
      <point x="177" y="836" type="line"/>
      <point x="177" y="872" type="line"/>
      <point x="142" y="872" type="line"/>
    </contour>
    <contour>
      <point x="177" y="819" type="line"/>
      <point x="177" y="820" type="line"/>
      <point x="71" y="820" type="line"/>
      <point x="71" y="819" type="line"/>
      <point x="102" y="788" type="line"/>
      <point x="146" y="788" type="line"/>
    </contour>
    <contour>
      <point x="214" y="232" type="line"/>
      <point x="166" y="760" type="line"/>
      <point x="81" y="760" type="line"/>
      <point x="33" y="232" type="line"/>
      <point x="104" y="232" type="line"/>
      <point x="123" y="489" type="line"/>
      <point x="124" y="489" type="line"/>
      <point x="143" y="232" type="line"/>
    </contour>
    <contour>
      <point x="216" y="212" type="line"/>
      <point x="31" y="212" type="line"/>
      <point x="12" y="0" type="line"/>
      <point x="86" y="0" type="line"/>
      <point x="97" y="144" type="line"/>
      <point x="150" y="144" type="line"/>
      <point x="161" y="0" type="line"/>
      <point x="235" y="0" type="line"/>
    </contour>
  </outline>
</glyph>
<glyph name="AE" format="1">
  <advance width="342"/>
  <unicode hex="00C6"/>
  <outline>
    <contour>
      <point x="324" y="692" type="line"/>
      <point x="324" y="760" type="line"/>
      <point x="124" y="760" type="line"/>
      <point x="114" y="692" type="line"/>
    </contour>
    <contour>
      <point x="116" y="232" type="line"/>
      <point x="158" y="544" type="line"/>
      <point x="160" y="544" type="line"/>
      <point x="160" y="232" type="line"/>
      <point x="234" y="232" type="line"/>
      <point x="234" y="346" type="line"/>
      <point x="288" y="346" type="line"/>
      <point x="288" y="414" type="line"/>
      <point x="234" y="414" type="line"/>
      <point x="234" y="672" type="line"/>
      <point x="111" y="672" type="line"/>
      <point x="45" y="232" type="line"/>
    </contour>
    <contour>
      <point x="234" y="212" type="line"/>
      <point x="43" y="212" type="line"/>
      <point x="11" y="0" type="line"/>
      <point x="85" y="0" type="line"/>
      <point x="104" y="144" type="line"/>
      <point x="160" y="144" type="line"/>
      <point x="160" y="0" type="line"/>
      <point x="324" y="0" type="line"/>
      <point x="324" y="68" type="line"/>
      <point x="234" y="68" type="line"/>
    </contour>
  </outline>
</glyph>
<glyph name="Eacute" format="1">
  <advance width="209"/>
  <unicode hex="00C9"/>
  <outline>
    <contour>
      <point x="125" y="788" type="line"/>
      <point x="186" y="849" type="line"/>
      <point x="186" y="911" type="line"/>
      <point x="138" y="911" type="line"/>
      <point x="115" y="824" type="line"/>
      <point x="79" y="824" type="line"/>
      <point x="79" y="788" type="line"/>
    </contour>
    <contour>
      <point x="25" y="692" type="line"/>
      <point x="189" y="692" type="line"/>
      <point x="189" y="760" type="line"/>
      <point x="25" y="760" type="line"/>
    </contour>
    <contour>
      <point x="25" y="88" type="line"/>
      <point x="99" y="88" type="line"/>
      <point x="99" y="346" type="line"/>
      <point x="153" y="346" type="line"/>
      <point x="153" y="414" type="line"/>
      <point x="99" y="414" type="line"/>
      <point x="99" y="672" type="line"/>
      <point x="25" y="672" type="line"/>
    </contour>
    <contour>
      <point x="25" y="0" type="line"/>
      <point x="189" y="0" type="line"/>
      <point x="189" y="68" type="line"/>
      <point x="25" y="68" type="line"/>
    </contour>
  </outline>
</glyph>
<glyph name="Ecircumflex" format="1">
  <advance width="207"/>
  <unicode hex="00CA"/>
  <outline>
    <contour>
      <point x="79" y="852" type="line"/>
      <point x="44" y="852" type="line"/>
      <point x="44" y="788" type="line"/>
      <point x="76" y="788" type="line"/>
      <point x="108" y="851" type="line"/>
      <point x="141" y="788" type="line"/>
      <point x="172" y="788" type="line"/>
      <point x="172" y="852" type="line"/>
      <point x="137" y="852" type="line"/>
      <point x="117" y="916" type="line"/>
      <point x="99" y="916" type="line"/>
    </contour>
    <contour>
      <point x="25" y="692" type="line"/>
      <point x="189" y="692" type="line"/>
      <point x="189" y="760" type="line"/>
      <point x="25" y="760" type="line"/>
    </contour>
    <contour>
      <point x="25" y="88" type="line"/>
      <point x="99" y="88" type="line"/>
      <point x="99" y="346" type="line"/>
      <point x="153" y="346" type="line"/>
      <point x="153" y="414" type="line"/>
      <point x="99" y="414" type="line"/>
      <point x="99" y="672" type="line"/>
      <point x="25" y="672" type="line"/>
    </contour>
    <contour>
      <point x="25" y="0" type="line"/>
      <point x="189" y="0" type="line"/>
      <point x="189" y="68" type="line"/>
      <point x="25" y="68" type="line"/>
    </contour>
  </outline>
</glyph>
<glyph name="Edieresis" format="1">
  <advance width="207"/>
  <unicode hex="00CB"/>
  <outline>
    <contour>
      <point x="47" y="795" type="line"/>
      <point x="91" y="795" type="line"/>
      <point x="91" y="863" type="line"/>
      <point x="47" y="863" type="line"/>
    </contour>
    <contour>
      <point x="123" y="795" type="line"/>
      <point x="167" y="795" type="line"/>
      <point x="167" y="863" type="line"/>
      <point x="123" y="863" type="line"/>
    </contour>
    <contour>
      <point x="25" y="692" type="line"/>
      <point x="189" y="692" type="line"/>
      <point x="189" y="760" type="line"/>
      <point x="25" y="760" type="line"/>
    </contour>
    <contour>
      <point x="25" y="88" type="line"/>
      <point x="99" y="88" type="line"/>
      <point x="99" y="346" type="line"/>
      <point x="153" y="346" type="line"/>
      <point x="153" y="414" type="line"/>
      <point x="99" y="414" type="line"/>
      <point x="99" y="672" type="line"/>
      <point x="25" y="672" type="line"/>
    </contour>
    <contour>
      <point x="25" y="0" type="line"/>
      <point x="189" y="0" type="line"/>
      <point x="189" y="68" type="line"/>
      <point x="25" y="68" type="line"/>
    </contour>
  </outline>
</glyph>
<glyph name="Igrave" format="1">
  <advance width="124"/>
  <unicode hex="00CC"/>
  <outline>
    <contour>
      <point x="52" y="788" type="line"/>
      <point x="98" y="788" type="line"/>
      <point x="98" y="824" type="line"/>
      <point x="62" y="824" type="line"/>
      <point x="39" y="911" type="line"/>
      <point x="-9" y="911" type="line"/>
      <point x="-9" y="849" type="line"/>
    </contour>
    <contour>
      <point x="25" y="0" type="line"/>
      <point x="99" y="0" type="line"/>
      <point x="99" y="760" type="line"/>
      <point x="25" y="760" type="line"/>
    </contour>
  </outline>
</glyph>
<glyph name="Ntilde" format="1">
  <advance width="268"/>
  <unicode hex="00D1"/>
  <outline>
    <contour>
      <point x="162" y="789" type="line"/>
      <point x="196" y="789" type="line"/>
      <point x="224" y="817" type="line"/>
      <point x="224" y="882" type="line"/>
      <point x="184" y="882" type="line"/>
      <point x="184" y="831" type="line"/>
      <point x="166" y="831" type="line"/>
      <point x="132" y="882" type="line"/>
      <point x="97" y="882" type="line"/>
      <point x="69" y="854" type="line"/>
      <point x="69" y="789" type="line"/>
      <point x="109" y="789" type="line"/>
      <point x="109" y="840" type="line"/>
      <point x="128" y="840" type="line"/>
    </contour>
    <contour>
      <point x="243" y="390" type="line"/>
      <point x="243" y="760" type="line"/>
      <point x="169" y="760" type="line"/>
      <point x="169" y="390" type="line"/>
    </contour>
    <contour>
      <point x="162" y="390" type="line"/>
      <point x="99" y="760" type="line"/>
      <point x="25" y="760" type="line"/>
      <point x="25" y="390" type="line"/>
    </contour>
    <contour>
      <point x="99" y="370" type="line"/>
      <point x="25" y="370" type="line"/>
      <point x="25" y="0" type="line"/>
      <point x="99" y="0" type="line"/>
    </contour>
    <contour>
      <point x="243" y="370" type="line"/>
      <point x="106" y="370" type="line"/>
      <point x="169" y="0" type="line"/>
      <point x="243" y="0" type="line"/>
    </contour>
  </outline>
</glyph>
<glyph name="Ocircumflex" format="1">
  <advance width="241"/>
  <unicode hex="00D4"/>
  <outline>
    <contour>
      <point x="89" y="852" type="line"/>
      <point x="54" y="852" type="line"/>
      <point x="54" y="788" type="line"/>
      <point x="86" y="788" type="line"/>
      <point x="118" y="851" type="line"/>
      <point x="151" y="788" type="line"/>
      <point x="182" y="788" type="line"/>
      <point x="182" y="852" type="line"/>
      <point x="147" y="852" type="line"/>
      <point x="127" y="916" type="line"/>
      <point x="109" y="916" type="line"/>
    </contour>
    <contour>
      <point x="216" y="692" type="line"/>
      <point x="216" y="706" type="line"/>
      <point x="163" y="760" type="line"/>
      <point x="79" y="760" type="line"/>
      <point x="25" y="706" type="line"/>
      <point x="25" y="692" type="line"/>
    </contour>
    <contour>
      <point x="99" y="88" type="line"/>
      <point x="99" y="672" type="line"/>
      <point x="25" y="672" type="line"/>
      <point x="25" y="88" type="line"/>
    </contour>
    <contour>
      <point x="216" y="88" type="line"/>
      <point x="216" y="672" type="line"/>
      <point x="142" y="672" type="line"/>
      <point x="142" y="88" type="line"/>
    </contour>
    <contour>
      <point x="216" y="68" type="line"/>
      <point x="25" y="68" type="line"/>
      <point x="25" y="54" type="line"/>
      <point x="79" y="0" type="line"/>
      <point x="162" y="0" type="line"/>
      <point x="216" y="54" type="line"/>
    </contour>
  </outline>
</glyph>
<glyph name="multiply" format="1">
  <advance width="251"/>
  <unicode hex="00D7"/>
  <outline>
    <contour>
      <point x="125" y="277" type="line"/>
      <point x="215" y="171" type="line"/>
      <point x="215" y="269" type="line"/>
      <point x="167" y="325" type="line"/>
      <point x="215" y="381" type="line"/>
      <point x="215" y="479" type="line"/>
      <point x="125" y="373" type="line"/>
      <point x="35" y="479" type="line"/>
      <point x="35" y="381" type="line"/>
      <point x="83" y="325" type="line"/>
      <point x="35" y="269" type="line"/>
      <point x="35" y="171" type="line"/>
    </contour>
  </outline>
</glyph>
<glyph name="Ugrave" format="1">
  <advance width="241"/>
  <unicode hex="00D9"/>
  <outline>
    <contour>
      <point x="108" y="788" type="line"/>
      <point x="154" y="788" type="line"/>
      <point x="154" y="824" type="line"/>
      <point x="118" y="824" type="line"/>
      <point x="95" y="911" type="line"/>
      <point x="47" y="911" type="line"/>
      <point x="47" y="849" type="line"/>
    </contour>
    <contour>
      <point x="99" y="88" type="line"/>
      <point x="99" y="760" type="line"/>
      <point x="25" y="760" type="line"/>
      <point x="25" y="88" type="line"/>
    </contour>
    <contour>
      <point x="216" y="88" type="line"/>
      <point x="216" y="760" type="line"/>
      <point x="142" y="760" type="line"/>
      <point x="142" y="88" type="line"/>
    </contour>
    <contour>
      <point x="216" y="68" type="line"/>
      <point x="25" y="68" type="line"/>
      <point x="25" y="54" type="line"/>
      <point x="79" y="0" type="line"/>
      <point x="162" y="0" type="line"/>
      <point x="216" y="54" type="line"/>
    </contour>
  </outline>
</glyph>
<glyph name="Udieresis" format="1">
  <advance width="241"/>
  <unicode hex="00DC"/>
  <outline>
    <contour>
      <point x="59" y="795" type="line"/>
      <point x="103" y="795" type="line"/>
      <point x="103" y="863" type="line"/>
      <point x="59" y="863" type="line"/>
    </contour>
    <contour>
      <point x="135" y="795" type="line"/>
      <point x="179" y="795" type="line"/>
      <point x="179" y="863" type="line"/>
      <point x="135" y="863" type="line"/>
    </contour>
    <contour>
      <point x="99" y="88" type="line"/>
      <point x="99" y="760" type="line"/>
      <point x="25" y="760" type="line"/>
      <point x="25" y="88" type="line"/>
    </contour>
    <contour>
      <point x="216" y="88" type="line"/>
      <point x="216" y="760" type="line"/>
      <point x="142" y="760" type="line"/>
      <point x="142" y="88" type="line"/>
    </contour>
    <contour>
      <point x="216" y="68" type="line"/>
      <point x="25" y="68" type="line"/>
      <point x="25" y="54" type="line"/>
      <point x="79" y="0" type="line"/>
      <point x="162" y="0" type="line"/>
      <point x="216" y="54" type="line"/>
    </contour>
  </outline>
</glyph>
<glyph name="Yacute" format="1">
  <advance width="260"/>
  <unicode hex="00DD"/>
  <outline>
    <contour>
      <point x="139" y="788" type="line"/>
      <point x="200" y="849" type="line"/>
      <point x="200" y="911" type="line"/>
      <point x="152" y="911" type="line"/>
      <point x="129" y="824" type="line"/>
      <point x="93" y="824" type="line"/>
      <point x="93" y="788" type="line"/>
    </contour>
    <contour>
      <point x="83" y="760" type="line"/>
      <point x="11" y="760" type="line"/>
      <point x="47" y="537" type="line"/>
      <point x="116" y="537" type="line"/>
    </contour>
    <contour>
      <point x="239" y="760" type="line"/>
      <point x="167" y="760" type="line"/>
      <point x="134" y="537" type="line"/>
      <point x="203" y="537" type="line"/>
    </contour>
    <contour>
      <point x="162" y="0" type="line"/>
      <point x="162" y="283" type="line"/>
      <point x="200" y="517" type="line"/>
      <point x="50" y="517" type="line"/>
      <point x="88" y="283" type="line"/>
      <point x="88" y="0" type="line"/>
    </contour>
  </outline>
</glyph>
<glyph name="agrave" format="1">
  <advance width="220"/>
  <unicode hex="00E0"/>
  <outline>
    <contour>
      <point x="103" y="565" type="line"/>
      <point x="149" y="565" type="line"/>
      <point x="149" y="601" type="line"/>
      <point x="113" y="601" type="line"/>
      <point x="90" y="688" type="line"/>
      <point x="42" y="688" type="line"/>
      <point x="42" y="626" type="line"/>
    </contour>
    <contour>
      <point x="198" y="473" type="line"/>
      <point x="198" y="488" type="line"/>
      <point x="149" y="537" type="line"/>
      <point x="71" y="537" type="line"/>
      <point x="22" y="488" type="line"/>
      <point x="22" y="387" type="line"/>
      <point x="90" y="387" type="line"/>
      <point x="90" y="473" type="line"/>
    </contour>
    <contour>
      <point x="198" y="84" type="line"/>
      <point x="198" y="453" type="line"/>
      <point x="130" y="453" type="line"/>
      <point x="130" y="301" type="line"/>
      <point x="71" y="301" type="line"/>
      <point x="22" y="252" type="line"/>
      <point x="22" y="84" type="line"/>
      <point x="90" y="84" type="line"/>
      <point x="90" y="237" type="line"/>
      <point x="130" y="237" type="line"/>
      <point x="130" y="84" type="line"/>
    </contour>
    <contour>
      <point x="198" y="64" type="line"/>
      <point x="22" y="64" type="line"/>
      <point x="22" y="38" type="line"/>
      <point x="60" y="0" type="line"/>
      <point x="103" y="0" type="line"/>
      <point x="130" y="27" type="line"/>
      <point x="130" y="0" type="line"/>
      <point x="198" y="0" type="line"/>
    </contour>
  </outline>
</glyph>
<glyph name="atilde" format="1">
  <advance width="220"/>
  <unicode hex="00E3"/>
  <outline>
    <contour>
      <point x="130" y="566" type="line"/>
      <point x="164" y="566" type="line"/>
      <point x="192" y="594" type="line"/>
      <point x="192" y="659" type="line"/>
      <point x="152" y="659" type="line"/>
      <point x="152" y="608" type="line"/>
      <point x="134" y="608" type="line"/>
      <point x="100" y="659" type="line"/>
      <point x="65" y="659" type="line"/>
      <point x="37" y="631" type="line"/>
      <point x="37" y="566" type="line"/>
      <point x="77" y="566" type="line"/>
      <point x="77" y="617" type="line"/>
      <point x="96" y="617" type="line"/>
    </contour>
    <contour>
      <point x="198" y="473" type="line"/>
      <point x="198" y="488" type="line"/>
      <point x="149" y="537" type="line"/>
      <point x="71" y="537" type="line"/>
      <point x="22" y="488" type="line"/>
      <point x="22" y="387" type="line"/>
      <point x="90" y="387" type="line"/>
      <point x="90" y="473" type="line"/>
    </contour>
    <contour>
      <point x="198" y="84" type="line"/>
      <point x="198" y="453" type="line"/>
      <point x="130" y="453" type="line"/>
      <point x="130" y="301" type="line"/>
      <point x="71" y="301" type="line"/>
      <point x="22" y="252" type="line"/>
      <point x="22" y="84" type="line"/>
      <point x="90" y="84" type="line"/>
      <point x="90" y="237" type="line"/>
      <point x="130" y="237" type="line"/>
      <point x="130" y="84" type="line"/>
    </contour>
    <contour>
      <point x="198" y="64" type="line"/>
      <point x="22" y="64" type="line"/>
      <point x="22" y="38" type="line"/>
      <point x="60" y="0" type="line"/>
      <point x="103" y="0" type="line"/>
      <point x="130" y="27" type="line"/>
      <point x="130" y="0" type="line"/>
      <point x="198" y="0" type="line"/>
    </contour>
  </outline>
</glyph>
<glyph name="aring" format="1">
  <advance width="220"/>
  <unicode hex="00E5"/>
  <outline>
    <contour>
      <point x="167" y="666" type="line"/>
      <point x="136" y="697" type="line"/>
      <point x="92" y="697" type="line"/>
      <point x="61" y="666" type="line"/>
      <point x="61" y="665" type="line"/>
      <point x="167" y="665" type="line"/>
    </contour>
    <contour>
      <point x="96" y="649" type="line"/>
      <point x="61" y="649" type="line"/>
      <point x="61" y="613" type="line"/>
      <point x="96" y="613" type="line"/>
    </contour>
    <contour>
      <point x="132" y="613" type="line"/>
      <point x="167" y="613" type="line"/>
      <point x="167" y="649" type="line"/>
      <point x="132" y="649" type="line"/>
    </contour>
    <contour>
      <point x="167" y="596" type="line"/>
      <point x="167" y="597" type="line"/>
      <point x="61" y="597" type="line"/>
      <point x="61" y="596" type="line"/>
      <point x="92" y="565" type="line"/>
      <point x="136" y="565" type="line"/>
    </contour>
    <contour>
      <point x="198" y="473" type="line"/>
      <point x="198" y="488" type="line"/>
      <point x="149" y="537" type="line"/>
      <point x="71" y="537" type="line"/>
      <point x="22" y="488" type="line"/>
      <point x="22" y="387" type="line"/>
      <point x="90" y="387" type="line"/>
      <point x="90" y="473" type="line"/>
    </contour>
    <contour>
      <point x="198" y="84" type="line"/>
      <point x="198" y="453" type="line"/>
      <point x="130" y="453" type="line"/>
      <point x="130" y="301" type="line"/>
      <point x="71" y="301" type="line"/>
      <point x="22" y="252" type="line"/>
      <point x="22" y="84" type="line"/>
      <point x="90" y="84" type="line"/>
      <point x="90" y="237" type="line"/>
      <point x="130" y="237" type="line"/>
      <point x="130" y="84" type="line"/>
    </contour>
    <contour>
      <point x="198" y="64" type="line"/>
      <point x="22" y="64" type="line"/>
      <point x="22" y="38" type="line"/>
      <point x="60" y="0" type="line"/>
      <point x="103" y="0" type="line"/>
      <point x="130" y="27" type="line"/>
      <point x="130" y="0" type="line"/>
      <point x="198" y="0" type="line"/>
    </contour>
  </outline>
</glyph>
<glyph name="ccedilla" format="1">
  <advance width="220"/>
  <unicode hex="00E7"/>
  <outline>
    <contour>
      <point x="198" y="473" type="line"/>
      <point x="198" y="488" type="line"/>
      <point x="149" y="537" type="line"/>
      <point x="71" y="537" type="line"/>
      <point x="22" y="488" type="line"/>
      <point x="22" y="473" type="line"/>
    </contour>
    <contour>
      <point x="198" y="453" type="line"/>
      <point x="130" y="453" type="line"/>
      <point x="130" y="372" type="line"/>
      <point x="198" y="372" type="line"/>
    </contour>
    <contour>
      <point x="90" y="84" type="line"/>
      <point x="90" y="453" type="line"/>
      <point x="22" y="453" type="line"/>
      <point x="22" y="84" type="line"/>
    </contour>
    <contour>
      <point x="198" y="84" type="line"/>
      <point x="198" y="165" type="line"/>
      <point x="130" y="165" type="line"/>
      <point x="130" y="84" type="line"/>
    </contour>
    <contour>
      <point x="198" y="64" type="line"/>
      <point x="22" y="64" type="line"/>
      <point x="22" y="49" type="line"/>
      <point x="71" y="0" type="line"/>
      <point x="114" y="0" type="line"/>
      <point x="114" y="-76" type="line"/>
      <point x="63" y="-76" type="line"/>
      <point x="63" y="-154" type="line"/>
      <point x="96" y="-154" type="line"/>
      <point x="146" y="-104" type="line"/>
      <point x="146" y="0" type="line"/>
      <point x="149" y="0" type="line"/>
      <point x="198" y="49" type="line"/>
    </contour>
  </outline>
</glyph>
<glyph name="eacute" format="1">
  <advance width="220"/>
  <unicode hex="00E9"/>
  <outline>
    <contour>
      <point x="126" y="565" type="line"/>
      <point x="187" y="626" type="line"/>
      <point x="187" y="688" type="line"/>
      <point x="139" y="688" type="line"/>
      <point x="116" y="601" type="line"/>
      <point x="80" y="601" type="line"/>
      <point x="80" y="565" type="line"/>
    </contour>
    <contour>
      <point x="198" y="473" type="line"/>
      <point x="198" y="488" type="line"/>
      <point x="149" y="537" type="line"/>
      <point x="71" y="537" type="line"/>
      <point x="22" y="488" type="line"/>
      <point x="22" y="473" type="line"/>
    </contour>
    <contour>
      <point x="90" y="84" type="line"/>
      <point x="90" y="237" type="line"/>
      <point x="198" y="237" type="line"/>
      <point x="198" y="453" type="line"/>
      <point x="130" y="453" type="line"/>
      <point x="130" y="301" type="line"/>
      <point x="90" y="301" type="line"/>
      <point x="90" y="453" type="line"/>
      <point x="22" y="453" type="line"/>
      <point x="22" y="84" type="line"/>
    </contour>
    <contour>
      <point x="130" y="64" type="line"/>
      <point x="22" y="64" type="line"/>
      <point x="22" y="49" type="line"/>
      <point x="71" y="0" type="line"/>
      <point x="149" y="0" type="line"/>
      <point x="198" y="49" type="line"/>
      <point x="198" y="150" type="line"/>
      <point x="130" y="150" type="line"/>
    </contour>
  </outline>
</glyph>
<glyph name="ecircumflex" format="1">
  <advance width="220"/>
  <unicode hex="00EA"/>
  <outline>
    <contour>
      <point x="85" y="629" type="line"/>
      <point x="50" y="629" type="line"/>
      <point x="50" y="565" type="line"/>
      <point x="82" y="565" type="line"/>
      <point x="114" y="628" type="line"/>
      <point x="147" y="565" type="line"/>
      <point x="178" y="565" type="line"/>
      <point x="178" y="629" type="line"/>
      <point x="143" y="629" type="line"/>
      <point x="123" y="693" type="line"/>
      <point x="105" y="693" type="line"/>
    </contour>
    <contour>
      <point x="198" y="473" type="line"/>
      <point x="198" y="488" type="line"/>
      <point x="149" y="537" type="line"/>
      <point x="71" y="537" type="line"/>
      <point x="22" y="488" type="line"/>
      <point x="22" y="473" type="line"/>
    </contour>
    <contour>
      <point x="90" y="84" type="line"/>
      <point x="90" y="237" type="line"/>
      <point x="198" y="237" type="line"/>
      <point x="198" y="453" type="line"/>
      <point x="130" y="453" type="line"/>
      <point x="130" y="301" type="line"/>
      <point x="90" y="301" type="line"/>
      <point x="90" y="453" type="line"/>
      <point x="22" y="453" type="line"/>
      <point x="22" y="84" type="line"/>
    </contour>
    <contour>
      <point x="130" y="64" type="line"/>
      <point x="22" y="64" type="line"/>
      <point x="22" y="49" type="line"/>
      <point x="71" y="0" type="line"/>
      <point x="149" y="0" type="line"/>
      <point x="198" y="49" type="line"/>
      <point x="198" y="150" type="line"/>
      <point x="130" y="150" type="line"/>
    </contour>
  </outline>
</glyph>
<glyph name="iacute" format="1">
  <advance width="120"/>
  <unicode hex="00ED"/>
  <outline>
    <contour>
      <point x="69" y="565" type="line"/>
      <point x="130" y="626" type="line"/>
      <point x="130" y="688" type="line"/>
      <point x="82" y="688" type="line"/>
      <point x="59" y="601" type="line"/>
      <point x="23" y="601" type="line"/>
      <point x="23" y="565" type="line"/>
    </contour>
    <contour>
      <point x="25" y="0" type="line"/>
      <point x="93" y="0" type="line"/>
      <point x="93" y="537" type="line"/>
      <point x="25" y="537" type="line"/>
    </contour>
  </outline>
</glyph>
<glyph name="ograve" format="1">
  <advance width="220"/>
  <unicode hex="00F2"/>
  <outline>
    <contour>
      <point x="103" y="565" type="line"/>
      <point x="149" y="565" type="line"/>
      <point x="149" y="601" type="line"/>
      <point x="113" y="601" type="line"/>
      <point x="90" y="688" type="line"/>
      <point x="42" y="688" type="line"/>
      <point x="42" y="626" type="line"/>
    </contour>
    <contour>
      <point x="198" y="473" type="line"/>
      <point x="198" y="488" type="line"/>
      <point x="149" y="537" type="line"/>
      <point x="71" y="537" type="line"/>
      <point x="22" y="488" type="line"/>
      <point x="22" y="473" type="line"/>
    </contour>
    <contour>
      <point x="198" y="84" type="line"/>
      <point x="198" y="453" type="line"/>
      <point x="130" y="453" type="line"/>
      <point x="130" y="84" type="line"/>
    </contour>
    <contour>
      <point x="90" y="84" type="line"/>
      <point x="90" y="453" type="line"/>
      <point x="22" y="453" type="line"/>
      <point x="22" y="84" type="line"/>
    </contour>
    <contour>
      <point x="198" y="64" type="line"/>
      <point x="22" y="64" type="line"/>
      <point x="22" y="49" type="line"/>
      <point x="71" y="0" type="line"/>
      <point x="149" y="0" type="line"/>
      <point x="198" y="49" type="line"/>
    </contour>
  </outline>
</glyph>
<glyph name="divide" format="1">
  <advance width="251"/>
  <unicode hex="00F7"/>
  <outline>
    <contour>
      <point x="93" y="396" type="line"/>
      <point x="158" y="396" type="line"/>
      <point x="158" y="463" type="line"/>
      <point x="93" y="463" type="line"/>
    </contour>
    <contour>
      <point x="25" y="293" type="line"/>
      <point x="226" y="293" type="line"/>
      <point x="226" y="357" type="line"/>
      <point x="25" y="357" type="line"/>
    </contour>
    <contour>
      <point x="93" y="187" type="line"/>
      <point x="158" y="187" type="line"/>
      <point x="158" y="254" type="line"/>
      <point x="93" y="254" type="line"/>
    </contour>
  </outline>
</glyph>
<glyph name="oslash" format="1">
  <advance width="220"/>
  <unicode hex="00F8"/>
  <outline>
    <contour>
      <point x="22" y="488" type="line"/>
      <point x="22" y="480" type="line"/>
      <point x="132" y="480" type="line"/>
      <point x="54" y="0" type="line"/>
      <point x="149" y="0" type="line"/>
      <point x="198" y="49" type="line"/>
      <point x="198" y="57" type="line"/>
      <point x="87" y="57" type="line"/>
      <point x="168" y="537" type="line"/>
      <point x="71" y="537" type="line"/>
    </contour>
    <contour>
      <point x="182" y="504" type="line"/>
      <point x="138" y="242" type="line"/>
      <point x="138" y="77" type="line"/>
      <point x="198" y="77" type="line"/>
      <point x="198" y="488" type="line"/>
    </contour>
    <contour>
      <point x="39" y="31" type="line"/>
      <point x="82" y="295" type="line"/>
      <point x="82" y="460" type="line"/>
      <point x="22" y="460" type="line"/>
      <point x="22" y="49" type="line"/>
    </contour>
  </outline>
</glyph>
<glyph name="yacute" format="1">
  <advance width="218"/>
  <unicode hex="00FD"/>
  <outline>
    <contour>
      <point x="126" y="565" type="line"/>
      <point x="187" y="626" type="line"/>
      <point x="187" y="688" type="line"/>
      <point x="139" y="688" type="line"/>
      <point x="116" y="601" type="line"/>
      <point x="80" y="601" type="line"/>
      <point x="80" y="565" type="line"/>
    </contour>
    <contour>
      <point x="101" y="346" type="line"/>
      <point x="76" y="537" type="line"/>
      <point x="12" y="537" type="line"/>
      <point x="39" y="346" type="line"/>
    </contour>
    <contour>
      <point x="179" y="346" type="line"/>
      <point x="206" y="537" type="line"/>
      <point x="142" y="537" type="line"/>
      <point x="117" y="346" type="line"/>
    </contour>
    <contour>
      <point x="176" y="326" type="line"/>
      <point x="42" y="326" type="line"/>
      <point x="78" y="75" type="line"/>
      <point x="35" y="-223" type="line"/>
      <point x="97" y="-223" type="line"/>
    </contour>
  </outline>
</glyph>
<glyph name="thorn" format="1">
  <advance width="220"/>
  <unicode hex="00FE"/>
  <outline>
    <contour>
      <point x="198" y="473" type="line"/>
      <point x="198" y="499" type="line"/>
      <point x="160" y="537" type="line"/>
      <point x="117" y="537" type="line"/>
      <point x="90" y="510" type="line"/>
      <point x="90" y="760" type="line"/>
      <point x="22" y="760" type="line"/>
      <point x="22" y="473" type="line"/>
    </contour>
    <contour>
      <point x="198" y="84" type="line"/>
      <point x="198" y="453" type="line"/>
      <point x="130" y="453" type="line"/>
      <point x="130" y="84" type="line"/>
    </contour>
    <contour>
      <point x="90" y="84" type="line"/>
      <point x="90" y="453" type="line"/>
      <point x="22" y="453" type="line"/>
      <point x="22" y="84" type="line"/>
    </contour>
    <contour>
      <point x="198" y="64" type="line"/>
      <point x="22" y="64" type="line"/>
      <point x="22" y="-223" type="line"/>
      <point x="90" y="-223" type="line"/>
      <point x="90" y="27" type="line"/>
      <point x="117" y="0" type="line"/>
      <point x="160" y="0" type="line"/>
      <point x="198" y="38" type="line"/>
    </contour>
  </outline>
</glyph>
<glyph name="Amacron" format="1">
  <advance width="257"/>
  <unicode hex="0100"/>
  <outline>
    <contour>
      <point x="55" y="802" type="line"/>
      <point x="191" y="802" type="line"/>
      <point x="191" y="845" type="line"/>
      <point x="55" y="845" type="line"/>
    </contour>
    <contour>
      <point x="214" y="232" type="line"/>
      <point x="166" y="760" type="line"/>
      <point x="81" y="760" type="line"/>
      <point x="33" y="232" type="line"/>
      <point x="104" y="232" type="line"/>
      <point x="123" y="489" type="line"/>
      <point x="124" y="489" type="line"/>
      <point x="143" y="232" type="line"/>
    </contour>
    <contour>
      <point x="216" y="212" type="line"/>
      <point x="31" y="212" type="line"/>
      <point x="12" y="0" type="line"/>
      <point x="86" y="0" type="line"/>
      <point x="97" y="144" type="line"/>
      <point x="150" y="144" type="line"/>
      <point x="161" y="0" type="line"/>
      <point x="235" y="0" type="line"/>
    </contour>
  </outline>
</glyph>
<glyph name="abreve" format="1">
  <advance width="220"/>
  <unicode hex="0103"/>
  <outline>
    <contour>
      <point x="92" y="564" type="line"/>
      <point x="140" y="564" type="line"/>
      <point x="177" y="601" type="line"/>
      <point x="177" y="662" type="line"/>
      <point x="137" y="662" type="line"/>
      <point x="137" y="602" type="line"/>
      <point x="95" y="602" type="line"/>
      <point x="95" y="662" type="line"/>
      <point x="55" y="662" type="line"/>
      <point x="55" y="601" type="line"/>
    </contour>
    <contour>
      <point x="198" y="473" type="line"/>
      <point x="198" y="488" type="line"/>
      <point x="149" y="537" type="line"/>
      <point x="71" y="537" type="line"/>
      <point x="22" y="488" type="line"/>
      <point x="22" y="387" type="line"/>
      <point x="90" y="387" type="line"/>
      <point x="90" y="473" type="line"/>
    </contour>
    <contour>
      <point x="198" y="84" type="line"/>
      <point x="198" y="453" type="line"/>
      <point x="130" y="453" type="line"/>
      <point x="130" y="301" type="line"/>
      <point x="71" y="301" type="line"/>
      <point x="22" y="252" type="line"/>
      <point x="22" y="84" type="line"/>
      <point x="90" y="84" type="line"/>
      <point x="90" y="237" type="line"/>
      <point x="130" y="237" type="line"/>
      <point x="130" y="84" type="line"/>
    </contour>
    <contour>
      <point x="198" y="64" type="line"/>
      <point x="22" y="64" type="line"/>
      <point x="22" y="38" type="line"/>
      <point x="60" y="0" type="line"/>
      <point x="103" y="0" type="line"/>
      <point x="130" y="27" type="line"/>
      <point x="130" y="0" type="line"/>
      <point x="198" y="0" type="line"/>
    </contour>
  </outline>
</glyph>
<glyph name="Ccircumflex" format="1">
  <advance width="241"/>
  <unicode hex="0108"/>
  <outline>
    <contour>
      <point x="91" y="852" type="line"/>
      <point x="56" y="852" type="line"/>
      <point x="56" y="788" type="line"/>
      <point x="88" y="788" type="line"/>
      <point x="120" y="851" type="line"/>
      <point x="153" y="788" type="line"/>
      <point x="184" y="788" type="line"/>
      <point x="184" y="852" type="line"/>
      <point x="149" y="852" type="line"/>
      <point x="129" y="916" type="line"/>
      <point x="111" y="916" type="line"/>
    </contour>
    <contour>
      <point x="25" y="692" type="line"/>
      <point x="216" y="692" type="line"/>
      <point x="216" y="706" type="line"/>
      <point x="163" y="760" type="line"/>
      <point x="79" y="760" type="line"/>
      <point x="25" y="706" type="line"/>
    </contour>
    <contour>
      <point x="216" y="672" type="line"/>
      <point x="142" y="672" type="line"/>
      <point x="142" y="542" type="line"/>
      <point x="216" y="542" type="line"/>
    </contour>
    <contour>
      <point x="25" y="88" type="line"/>
      <point x="99" y="88" type="line"/>
      <point x="99" y="672" type="line"/>
      <point x="25" y="672" type="line"/>
    </contour>
    <contour>
      <point x="142" y="88" type="line"/>
      <point x="216" y="88" type="line"/>
      <point x="216" y="218" type="line"/>
      <point x="142" y="218" type="line"/>
    </contour>
    <contour>
      <point x="79" y="0" type="line"/>
      <point x="162" y="0" type="line"/>
      <point x="216" y="54" type="line"/>
      <point x="216" y="68" type="line"/>
      <point x="25" y="68" type="line"/>
      <point x="25" y="54" type="line"/>
    </contour>
  </outline>
</glyph>
<glyph name="cdotaccent" format="1">
  <advance width="220"/>
  <unicode hex="010B"/>
  <outline>
    <contour>
      <point x="80" y="583" type="line"/>
      <point x="148" y="583" type="line"/>
      <point x="148" y="649" type="line"/>
      <point x="80" y="649" type="line"/>
    </contour>
    <contour>
      <point x="198" y="473" type="line"/>
      <point x="198" y="488" type="line"/>
      <point x="149" y="537" type="line"/>
      <point x="71" y="537" type="line"/>
      <point x="22" y="488" type="line"/>
      <point x="22" y="473" type="line"/>
    </contour>
    <contour>
      <point x="198" y="453" type="line"/>
      <point x="130" y="453" type="line"/>
      <point x="130" y="372" type="line"/>
      <point x="198" y="372" type="line"/>
    </contour>
    <contour>
      <point x="90" y="84" type="line"/>
      <point x="90" y="453" type="line"/>
      <point x="22" y="453" type="line"/>
      <point x="22" y="84" type="line"/>
    </contour>
    <contour>
      <point x="198" y="84" type="line"/>
      <point x="198" y="165" type="line"/>
      <point x="130" y="165" type="line"/>
      <point x="130" y="84" type="line"/>
    </contour>
    <contour>
      <point x="198" y="64" type="line"/>
      <point x="22" y="64" type="line"/>
      <point x="22" y="49" type="line"/>
      <point x="71" y="0" type="line"/>
      <point x="149" y="0" type="line"/>
      <point x="198" y="49" type="line"/>
    </contour>
  </outline>
</glyph>
<glyph name="Ccaron" format="1">
  <advance width="241"/>
  <unicode hex="010C"/>
  <outline>
    <contour>
      <point x="149" y="844" type="line"/>
      <point x="184" y="844" type="line"/>
      <point x="184" y="908" type="line"/>
      <point x="152" y="908" type="line"/>
      <point x="120" y="845" type="line"/>
      <point x="87" y="908" type="line"/>
      <point x="56" y="908" type="line"/>
      <point x="56" y="844" type="line"/>
      <point x="91" y="844" type="line"/>
      <point x="111" y="780" type="line"/>
      <point x="129" y="780" type="line"/>
    </contour>
    <contour>
      <point x="25" y="692" type="line"/>
      <point x="216" y="692" type="line"/>
      <point x="216" y="706" type="line"/>
      <point x="163" y="760" type="line"/>
      <point x="79" y="760" type="line"/>
      <point x="25" y="706" type="line"/>
    </contour>
    <contour>
      <point x="216" y="672" type="line"/>
      <point x="142" y="672" type="line"/>
      <point x="142" y="542" type="line"/>
      <point x="216" y="542" type="line"/>
    </contour>
    <contour>
      <point x="25" y="88" type="line"/>
      <point x="99" y="88" type="line"/>
      <point x="99" y="672" type="line"/>
      <point x="25" y="672" type="line"/>
    </contour>
    <contour>
      <point x="142" y="88" type="line"/>
      <point x="216" y="88" type="line"/>
      <point x="216" y="218" type="line"/>
      <point x="142" y="218" type="line"/>
    </contour>
    <contour>
      <point x="79" y="0" type="line"/>
      <point x="162" y="0" type="line"/>
      <point x="216" y="54" type="line"/>
      <point x="216" y="68" type="line"/>
      <point x="25" y="68" type="line"/>
      <point x="25" y="54" type="line"/>
    </contour>
  </outline>
</glyph>
<glyph name="Dcroat" format="1">
  <advance width="249"/>
  <unicode hex="0110"/>
  <outline>
    <contour>
      <point x="33" y="692" type="line"/>
      <point x="224" y="692" type="line"/>
      <point x="224" y="706" type="line"/>
      <point x="170" y="760" type="line"/>
      <point x="33" y="760" type="line"/>
    </contour>
    <contour>
      <point x="131" y="362" type="line"/>
      <point x="131" y="398" type="line"/>
      <point x="107" y="398" type="line"/>
      <point x="107" y="672" type="line"/>
      <point x="33" y="672" type="line"/>
      <point x="33" y="398" type="line"/>
      <point x="3" y="398" type="line"/>
      <point x="3" y="362" type="line"/>
      <point x="33" y="362" type="line"/>
      <point x="33" y="88" type="line"/>
      <point x="107" y="88" type="line"/>
      <point x="107" y="362" type="line"/>
    </contour>
    <contour>
      <point x="224" y="672" type="line"/>
      <point x="150" y="672" type="line"/>
      <point x="150" y="88" type="line"/>
      <point x="224" y="88" type="line"/>
    </contour>
    <contour>
      <point x="224" y="68" type="line"/>
      <point x="33" y="68" type="line"/>
      <point x="33" y="0" type="line"/>
      <point x="169" y="0" type="line"/>
      <point x="224" y="54" type="line"/>
    </contour>
  </outline>
</glyph>
<glyph name="Ebreve" format="1">
  <advance width="207"/>
  <unicode hex="0114"/>
  <outline>
    <contour>
      <point x="80" y="787" type="line"/>
      <point x="128" y="787" type="line"/>
      <point x="165" y="824" type="line"/>
      <point x="165" y="885" type="line"/>
      <point x="125" y="885" type="line"/>
      <point x="125" y="825" type="line"/>
      <point x="83" y="825" type="line"/>
      <point x="83" y="885" type="line"/>
      <point x="43" y="885" type="line"/>
      <point x="43" y="824" type="line"/>
    </contour>
    <contour>
      <point x="25" y="692" type="line"/>
      <point x="189" y="692" type="line"/>
      <point x="189" y="760" type="line"/>
      <point x="25" y="760" type="line"/>
    </contour>
    <contour>
      <point x="25" y="88" type="line"/>
      <point x="99" y="88" type="line"/>
      <point x="99" y="346" type="line"/>
      <point x="153" y="346" type="line"/>
      <point x="153" y="414" type="line"/>
      <point x="99" y="414" type="line"/>
      <point x="99" y="672" type="line"/>
      <point x="25" y="672" type="line"/>
    </contour>
    <contour>
      <point x="25" y="0" type="line"/>
      <point x="189" y="0" type="line"/>
      <point x="189" y="68" type="line"/>
      <point x="25" y="68" type="line"/>
    </contour>
  </outline>
</glyph>
<glyph name="Eogonek" format="1">
  <advance width="207"/>
  <unicode hex="0118"/>
  <outline>
    <contour>
      <point x="199" y="760" type="line"/>
      <point x="35" y="760" type="line"/>
      <point x="35" y="692" type="line"/>
      <point x="199" y="692" type="line"/>
    </contour>
    <contour>
      <point x="35" y="88" type="line"/>
      <point x="109" y="88" type="line"/>
      <point x="109" y="346" type="line"/>
      <point x="163" y="346" type="line"/>
      <point x="163" y="414" type="line"/>
      <point x="109" y="414" type="line"/>
      <point x="109" y="672" type="line"/>
      <point x="35" y="672" type="line"/>
    </contour>
    <contour>
      <point x="209" y="-76" type="line"/>
      <point x="158" y="-76" type="line"/>
      <point x="158" y="0" type="line"/>
      <point x="199" y="0" type="line"/>
      <point x="199" y="68" type="line"/>
      <point x="35" y="68" type="line"/>
      <point x="35" y="0" type="line"/>
      <point x="126" y="0" type="line"/>
      <point x="126" y="-104" type="line"/>
      <point x="176" y="-154" type="line"/>
      <point x="209" y="-154" type="line"/>
    </contour>
  </outline>
</glyph>
<glyph name="eogonek" format="1">
  <advance width="220"/>
  <unicode hex="0119"/>
  <outline>
    <contour>
      <point x="198" y="488" type="line"/>
      <point x="149" y="537" type="line"/>
      <point x="71" y="537" type="line"/>
      <point x="22" y="488" type="line"/>
      <point x="22" y="473" type="line"/>
      <point x="198" y="473" type="line"/>
    </contour>
    <contour>
      <point x="198" y="453" type="line"/>
      <point x="130" y="453" type="line"/>
      <point x="130" y="301" type="line"/>
      <point x="90" y="301" type="line"/>
      <point x="90" y="453" type="line"/>
      <point x="22" y="453" type="line"/>
      <point x="22" y="84" type="line"/>
      <point x="90" y="84" type="line"/>
      <point x="90" y="237" type="line"/>
      <point x="198" y="237" type="line"/>
    </contour>
    <contour>
      <point x="195" y="-76" type="line"/>
      <point x="144" y="-76" type="line"/>
      <point x="144" y="0" type="line"/>
      <point x="149" y="0" type="line"/>
      <point x="198" y="49" type="line"/>
      <point x="198" y="150" type="line"/>
      <point x="130" y="150" type="line"/>
      <point x="130" y="64" type="line"/>
      <point x="22" y="64" type="line"/>
      <point x="22" y="49" type="line"/>
      <point x="71" y="0" type="line"/>
      <point x="112" y="0" type="line"/>
      <point x="112" y="-104" type="line"/>
      <point x="162" y="-154" type="line"/>
      <point x="195" y="-154" type="line"/>
    </contour>
  </outline>
</glyph>
<glyph name="Ecaron" format="1">
  <advance width="207"/>
  <unicode hex="011A"/>
  <outline>
    <contour>
      <point x="136" y="844" type="line"/>
      <point x="171" y="844" type="line"/>
      <point x="171" y="908" type="line"/>
      <point x="139" y="908" type="line"/>
      <point x="107" y="845" type="line"/>
      <point x="74" y="908" type="line"/>
      <point x="43" y="908" type="line"/>
      <point x="43" y="844" type="line"/>
      <point x="78" y="844" type="line"/>
      <point x="98" y="780" type="line"/>
      <point x="116" y="780" type="line"/>
    </contour>
    <contour>
      <point x="25" y="692" type="line"/>
      <point x="189" y="692" type="line"/>
      <point x="189" y="760" type="line"/>
      <point x="25" y="760" type="line"/>
    </contour>
    <contour>
      <point x="25" y="88" type="line"/>
      <point x="99" y="88" type="line"/>
      <point x="99" y="346" type="line"/>
      <point x="153" y="346" type="line"/>
      <point x="153" y="414" type="line"/>
      <point x="99" y="414" type="line"/>
      <point x="99" y="672" type="line"/>
      <point x="25" y="672" type="line"/>
    </contour>
    <contour>
      <point x="25" y="0" type="line"/>
      <point x="189" y="0" type="line"/>
      <point x="189" y="68" type="line"/>
      <point x="25" y="68" type="line"/>
    </contour>
  </outline>
</glyph>
<glyph name="Gbreve" format="1">
  <advance width="241"/>
  <unicode hex="011E"/>
  <outline>
    <contour>
      <point x="96" y="787" type="line"/>
      <point x="144" y="787" type="line"/>
      <point x="181" y="824" type="line"/>
      <point x="181" y="885" type="line"/>
      <point x="141" y="885" type="line"/>
      <point x="141" y="825" type="line"/>
      <point x="99" y="825" type="line"/>
      <point x="99" y="885" type="line"/>
      <point x="59" y="885" type="line"/>
      <point x="59" y="824" type="line"/>
    </contour>
    <contour>
      <point x="25" y="692" type="line"/>
      <point x="216" y="692" type="line"/>
      <point x="216" y="706" type="line"/>
      <point x="163" y="760" type="line"/>
      <point x="79" y="760" type="line"/>
      <point x="25" y="706" type="line"/>
    </contour>
    <contour>
      <point x="216" y="672" type="line"/>
      <point x="142" y="672" type="line"/>
      <point x="142" y="563" type="line"/>
      <point x="216" y="563" type="line"/>
    </contour>
    <contour>
      <point x="25" y="88" type="line"/>
      <point x="99" y="88" type="line"/>
      <point x="99" y="672" type="line"/>
      <point x="25" y="672" type="line"/>
    </contour>
    <contour>
      <point x="142" y="88" type="line"/>
      <point x="216" y="88" type="line"/>
      <point x="216" y="396" type="line"/>
      <point x="121" y="396" type="line"/>
      <point x="121" y="327" type="line"/>
      <point x="142" y="327" type="line"/>
    </contour>
    <contour>
      <point x="79" y="0" type="line"/>
      <point x="162" y="0" type="line"/>
      <point x="216" y="54" type="line"/>
      <point x="216" y="68" type="line"/>
      <point x="25" y="68" type="line"/>
      <point x="25" y="54" type="line"/>
    </contour>
  </outline>
</glyph>
<glyph name="gbreve" format="1">
  <advance width="220"/>
  <unicode hex="011F"/>
  <outline>
    <contour>
      <point x="92" y="564" type="line"/>
      <point x="140" y="564" type="line"/>
      <point x="177" y="601" type="line"/>
      <point x="177" y="662" type="line"/>
      <point x="137" y="662" type="line"/>
      <point x="137" y="602" type="line"/>
      <point x="95" y="602" type="line"/>
      <point x="95" y="662" type="line"/>
      <point x="55" y="662" type="line"/>
      <point x="55" y="601" type="line"/>
    </contour>
    <contour>
      <point x="198" y="473" type="line"/>
      <point x="198" y="537" type="line"/>
      <point x="130" y="537" type="line"/>
      <point x="130" y="510" type="line"/>
      <point x="103" y="537" type="line"/>
      <point x="60" y="537" type="line"/>
      <point x="22" y="499" type="line"/>
      <point x="22" y="473" type="line"/>
    </contour>
    <contour>
      <point x="90" y="84" type="line"/>
      <point x="90" y="453" type="line"/>
      <point x="22" y="453" type="line"/>
      <point x="22" y="84" type="line"/>
    </contour>
    <contour>
      <point x="198" y="84" type="line"/>
      <point x="198" y="453" type="line"/>
      <point x="130" y="453" type="line"/>
      <point x="130" y="84" type="line"/>
    </contour>
    <contour>
      <point x="198" y="-139" type="line"/>
      <point x="198" y="64" type="line"/>
      <point x="22" y="64" type="line"/>
      <point x="22" y="38" type="line"/>
      <point x="60" y="0" type="line"/>
      <point x="103" y="0" type="line"/>
      <point x="130" y="27" type="line"/>
      <point x="130" y="-139" type="line"/>
    </contour>
    <contour>
      <point x="198" y="-159" type="line"/>
      <point x="90" y="-159" type="line"/>
      <point x="90" y="-73" type="line"/>
      <point x="22" y="-73" type="line"/>
      <point x="22" y="-174" type="line"/>
      <point x="71" y="-223" type="line"/>
      <point x="149" y="-223" type="line"/>
      <point x="198" y="-174" type="line"/>
    </contour>
  </outline>
</glyph>
<glyph name="Gcommaaccent" format="1">
  <advance width="241"/>
  <unicode hex="0122"/>
  <outline>
    <contour>
      <point x="25" y="692" type="line"/>
      <point x="216" y="692" type="line"/>
      <point x="216" y="706" type="line"/>
      <point x="163" y="760" type="line"/>
      <point x="79" y="760" type="line"/>
      <point x="25" y="706" type="line"/>
    </contour>
    <contour>
      <point x="216" y="672" type="line"/>
      <point x="142" y="672" type="line"/>
      <point x="142" y="563" type="line"/>
      <point x="216" y="563" type="line"/>
    </contour>
    <contour>
      <point x="25" y="88" type="line"/>
      <point x="99" y="88" type="line"/>
      <point x="99" y="672" type="line"/>
      <point x="25" y="672" type="line"/>
    </contour>
    <contour>
      <point x="142" y="88" type="line"/>
      <point x="216" y="88" type="line"/>
      <point x="216" y="396" type="line"/>
      <point x="121" y="396" type="line"/>
      <point x="121" y="327" type="line"/>
      <point x="142" y="327" type="line"/>
    </contour>
    <contour>
      <point x="79" y="0" type="line"/>
      <point x="162" y="0" type="line"/>
      <point x="216" y="54" type="line"/>
      <point x="216" y="68" type="line"/>
      <point x="25" y="68" type="line"/>
      <point x="25" y="54" type="line"/>
    </contour>
    <contour>
      <point x="118" y="-154" type="line"/>
      <point x="167" y="-106" type="line"/>
      <point x="167" y="-33" type="line"/>
      <point x="111" y="-33" type="line"/>
      <point x="111" y="-119" type="line"/>
      <point x="75" y="-119" type="line"/>
      <point x="75" y="-154" type="line"/>
    </contour>
  </outline>
</glyph>
<glyph name="Hcircumflex" format="1">
  <advance width="261"/>
  <unicode hex="0124"/>
  <outline>
    <contour>
      <point x="90" y="852" type="line"/>
      <point x="55" y="852" type="line"/>
      <point x="55" y="788" type="line"/>
      <point x="87" y="788" type="line"/>
      <point x="119" y="851" type="line"/>
      <point x="152" y="788" type="line"/>
      <point x="183" y="788" type="line"/>
      <point x="183" y="852" type="line"/>
      <point x="148" y="852" type="line"/>
      <point x="128" y="916" type="line"/>
      <point x="110" y="916" type="line"/>
    </contour>
    <contour>
      <point x="142" y="434" type="line"/>
      <point x="216" y="434" type="line"/>
      <point x="216" y="760" type="line"/>
      <point x="142" y="760" type="line"/>
    </contour>
    <contour>
      <point x="25" y="434" type="line"/>
      <point x="99" y="434" type="line"/>
      <point x="99" y="760" type="line"/>
      <point x="25" y="760" type="line"/>
    </contour>
    <contour>
      <point x="142" y="0" type="line"/>
      <point x="216" y="0" type="line"/>
      <point x="216" y="414" type="line"/>
      <point x="25" y="414" type="line"/>
      <point x="25" y="0" type="line"/>
      <point x="99" y="0" type="line"/>
      <point x="99" y="346" type="line"/>
      <point x="142" y="346" type="line"/>
    </contour>
  </outline>
</glyph>
<glyph name="Hbar" format="1">
  <advance width="257"/>
  <unicode hex="0126"/>
  <outline>
    <contour>
      <point x="150" y="434" type="line"/>
      <point x="224" y="434" type="line"/>
      <point x="224" y="572" type="line"/>
      <point x="254" y="572" type="line"/>
      <point x="254" y="602" type="line"/>
      <point x="224" y="602" type="line"/>
      <point x="224" y="760" type="line"/>
      <point x="150" y="760" type="line"/>
      <point x="150" y="602" type="line"/>
      <point x="107" y="602" type="line"/>
      <point x="107" y="760" type="line"/>
      <point x="33" y="760" type="line"/>
      <point x="33" y="602" type="line"/>
      <point x="3" y="602" type="line"/>
      <point x="3" y="572" type="line"/>
      <point x="33" y="572" type="line"/>
      <point x="33" y="434" type="line"/>
      <point x="107" y="434" type="line"/>
      <point x="107" y="572" type="line"/>
      <point x="150" y="572" type="line"/>
    </contour>
    <contour>
      <point x="107" y="346" type="line"/>
      <point x="150" y="346" type="line"/>
      <point x="150" y="0" type="line"/>
      <point x="224" y="0" type="line"/>
      <point x="224" y="414" type="line"/>
      <point x="33" y="414" type="line"/>
      <point x="33" y="0" type="line"/>
      <point x="107" y="0" type="line"/>
    </contour>
  </outline>
</glyph>
<glyph name="Imacron" format="1">
  <advance width="124"/>
  <unicode hex="012A"/>
  <outline>
    <contour>
      <point x="-6" y="802" type="line"/>
      <point x="130" y="802" type="line"/>
      <point x="130" y="845" type="line"/>
      <point x="-6" y="845" type="line"/>
    </contour>
    <contour>
      <point x="25" y="0" type="line"/>
      <point x="99" y="0" type="line"/>
      <point x="99" y="760" type="line"/>
      <point x="25" y="760" type="line"/>
    </contour>
  </outline>
</glyph>
<glyph name="ibreve" format="1">
  <advance width="120"/>
  <unicode hex="012D"/>
  <outline>
    <contour>
      <point x="36" y="564" type="line"/>
      <point x="84" y="564" type="line"/>
      <point x="121" y="601" type="line"/>
      <point x="121" y="662" type="line"/>
      <point x="81" y="662" type="line"/>
      <point x="81" y="602" type="line"/>
      <point x="39" y="602" type="line"/>
      <point x="39" y="662" type="line"/>
      <point x="-1" y="662" type="line"/>
      <point x="-1" y="601" type="line"/>
    </contour>
    <contour>
      <point x="25" y="0" type="line"/>
      <point x="93" y="0" type="line"/>
      <point x="93" y="537" type="line"/>
      <point x="25" y="537" type="line"/>
    </contour>
  </outline>
</glyph>
<glyph name="dotlessi" format="1">
  <advance width="112"/>
  <unicode hex="0131"/>
  <outline>
    <contour>
      <point x="22" y="0" type="line"/>
      <point x="90" y="0" type="line"/>
      <point x="90" y="537" type="line"/>
      <point x="22" y="537" type="line"/>
    </contour>
  </outline>
</glyph>
<glyph name="IJ" format="1">
  <advance width="360"/>
  <unicode hex="0132"/>
  <outline>
    <contour>
      <point x="26" y="0" type="line"/>
      <point x="100" y="0" type="line"/>
      <point x="100" y="760" type="line"/>
      <point x="26" y="760" type="line"/>
    </contour>
    <contour>
      <point x="335" y="88" type="line"/>
      <point x="335" y="760" type="line"/>
      <point x="261" y="760" type="line"/>
      <point x="261" y="88" type="line"/>
    </contour>
    <contour>
      <point x="218" y="88" type="line"/>
      <point x="218" y="283" type="line"/>
      <point x="144" y="283" type="line"/>
      <point x="144" y="88" type="line"/>
    </contour>
    <contour>
      <point x="335" y="68" type="line"/>
      <point x="144" y="68" type="line"/>
      <point x="144" y="54" type="line"/>
      <point x="199" y="0" type="line"/>
      <point x="280" y="0" type="line"/>
      <point x="335" y="54" type="line"/>
    </contour>
  </outline>
</glyph>
<glyph name="ij" format="1">
  <advance width="227"/>
  <unicode hex="0133"/>
  <outline>
    <contour>
      <point x="22" y="583" type="line"/>
      <point x="90" y="583" type="line"/>
      <point x="90" y="649" type="line"/>
      <point x="22" y="649" type="line"/>
    </contour>
    <contour>
      <point x="133" y="583" type="line"/>
      <point x="201" y="583" type="line"/>
      <point x="201" y="649" type="line"/>
      <point x="133" y="649" type="line"/>
    </contour>
    <contour>
      <point x="22" y="0" type="line"/>
      <point x="90" y="0" type="line"/>
      <point x="90" y="537" type="line"/>
      <point x="22" y="537" type="line"/>
    </contour>
    <contour>
      <point x="201" y="-139" type="line"/>
      <point x="201" y="537" type="line"/>
      <point x="133" y="537" type="line"/>
      <point x="133" y="-139" type="line"/>
    </contour>
    <contour>
      <point x="201" y="-159" type="line"/>
      <point x="97" y="-159" type="line"/>
      <point x="97" y="-223" type="line"/>
      <point x="152" y="-223" type="line"/>
      <point x="201" y="-174" type="line"/>
    </contour>
  </outline>
</glyph>
<glyph name="Kcommaaccent" format="1">
  <advance width="257"/>
  <unicode hex="0136"/>
  <outline>
    <contour>
      <point x="99" y="537" type="line"/>
      <point x="99" y="760" type="line"/>
      <point x="25" y="760" type="line"/>
      <point x="25" y="537" type="line"/>
    </contour>
    <contour>
      <point x="187" y="537" type="line"/>
      <point x="231" y="760" type="line"/>
      <point x="158" y="760" type="line"/>
      <point x="115" y="537" type="line"/>
    </contour>
    <contour>
      <point x="183" y="243" type="line"/>
      <point x="156" y="379" type="line"/>
      <point x="183" y="517" type="line"/>
      <point x="25" y="517" type="line"/>
      <point x="25" y="243" type="line"/>
    </contour>
    <contour>
      <point x="99" y="223" type="line"/>
      <point x="25" y="223" type="line"/>
      <point x="25" y="0" type="line"/>
      <point x="99" y="0" type="line"/>
    </contour>
    <contour>
      <point x="187" y="223" type="line"/>
      <point x="115" y="223" type="line"/>
      <point x="158" y="0" type="line"/>
      <point x="231" y="0" type="line"/>
    </contour>
    <contour>
      <point x="108" y="-154" type="line"/>
      <point x="157" y="-106" type="line"/>
      <point x="157" y="-33" type="line"/>
      <point x="101" y="-33" type="line"/>
      <point x="101" y="-119" type="line"/>
      <point x="65" y="-119" type="line"/>
      <point x="65" y="-154" type="line"/>
    </contour>
  </outline>
</glyph>
<glyph name="kcommaaccent" format="1">
  <advance width="221"/>
  <unicode hex="0137"/>
  <outline>
    <contour>
      <point x="90" y="395" type="line"/>
      <point x="90" y="760" type="line"/>
      <point x="22" y="760" type="line"/>
      <point x="22" y="395" type="line"/>
    </contour>
    <contour>
      <point x="177" y="395" type="line"/>
      <point x="212" y="537" type="line"/>
      <point x="145" y="537" type="line"/>
      <point x="110" y="395" type="line"/>
    </contour>
    <contour>
      <point x="172" y="162" type="line"/>
      <point x="146" y="268" type="line"/>
      <point x="172" y="375" type="line"/>
      <point x="22" y="375" type="line"/>
      <point x="22" y="162" type="line"/>
    </contour>
    <contour>
      <point x="90" y="142" type="line"/>
      <point x="22" y="142" type="line"/>
      <point x="22" y="0" type="line"/>
      <point x="90" y="0" type="line"/>
    </contour>
    <contour>
      <point x="177" y="142" type="line"/>
      <point x="110" y="142" type="line"/>
      <point x="145" y="0" type="line"/>
      <point x="212" y="0" type="line"/>
    </contour>
    <contour>
      <point x="105" y="-154" type="line"/>
      <point x="154" y="-106" type="line"/>
      <point x="154" y="-33" type="line"/>
      <point x="98" y="-33" type="line"/>
      <point x="98" y="-119" type="line"/>
      <point x="62" y="-119" type="line"/>
      <point x="62" y="-154" type="line"/>
    </contour>
  </outline>
</glyph>
<glyph name="Lacute" format="1">
  <advance width="204"/>
  <unicode hex="0139"/>
  <outline>
    <contour>
      <point x="90" y="788" type="line"/>
      <point x="151" y="849" type="line"/>
      <point x="151" y="911" type="line"/>
      <point x="103" y="911" type="line"/>
      <point x="80" y="824" type="line"/>
      <point x="44" y="824" type="line"/>
      <point x="44" y="788" type="line"/>
    </contour>
    <contour>
      <point x="99" y="88" type="line"/>
      <point x="99" y="760" type="line"/>
      <point x="25" y="760" type="line"/>
      <point x="25" y="88" type="line"/>
    </contour>
    <contour>
      <point x="189" y="68" type="line"/>
      <point x="25" y="68" type="line"/>
      <point x="25" y="0" type="line"/>
      <point x="189" y="0" type="line"/>
    </contour>
  </outline>
</glyph>
<glyph name="lacute" format="1">
  <advance width="120"/>
  <unicode hex="013A"/>
  <outline>
    <contour>
      <point x="77" y="788" type="line"/>
      <point x="138" y="849" type="line"/>
      <point x="138" y="911" type="line"/>
      <point x="90" y="911" type="line"/>
      <point x="67" y="824" type="line"/>
      <point x="31" y="824" type="line"/>
      <point x="31" y="788" type="line"/>
    </contour>
    <contour>
      <point x="22" y="0" type="line"/>
      <point x="90" y="0" type="line"/>
      <point x="90" y="760" type="line"/>
      <point x="22" y="760" type="line"/>
    </contour>
  </outline>
</glyph>
<glyph name="Lcaron" format="1">
  <advance width="207"/>
  <unicode hex="013D"/>
  <outline>
    <contour>
      <point x="99" y="88" type="line"/>
      <point x="99" y="760" type="line"/>
      <point x="25" y="760" type="line"/>
      <point x="25" y="88" type="line"/>
    </contour>
    <contour>
      <point x="159" y="628" type="line"/>
      <point x="203" y="672" type="line"/>
      <point x="203" y="760" type="line"/>
      <point x="153" y="760" type="line"/>
      <point x="153" y="661" type="line"/>
      <point x="129" y="661" type="line"/>
      <point x="129" y="628" type="line"/>
    </contour>
    <contour>
      <point x="189" y="68" type="line"/>
      <point x="25" y="68" type="line"/>
      <point x="25" y="0" type="line"/>
      <point x="189" y="0" type="line"/>
    </contour>
  </outline>
</glyph>
<glyph name="lcaron" format="1">
  <advance width="120"/>
  <unicode hex="013E"/>
  <outline>
    <contour>
      <point x="22" y="0" type="line"/>
      <point x="90" y="0" type="line"/>
      <point x="90" y="760" type="line"/>
      <point x="22" y="760" type="line"/>
    </contour>
    <contour>
      <point x="145" y="628" type="line"/>
      <point x="189" y="672" type="line"/>
      <point x="189" y="760" type="line"/>
      <point x="139" y="760" type="line"/>
      <point x="139" y="661" type="line"/>
      <point x="115" y="661" type="line"/>
      <point x="115" y="628" type="line"/>
    </contour>
  </outline>
</glyph>
<glyph name="lslash" format="1">
  <advance width="120"/>
  <unicode hex="0142"/>
  <outline>
    <contour>
      <point x="26" y="0" type="line"/>
      <point x="94" y="0" type="line"/>
      <point x="94" y="337" type="line"/>
      <point x="128" y="385" type="line"/>
      <point x="128" y="441" type="line"/>
      <point x="94" y="393" type="line"/>
      <point x="94" y="760" type="line"/>
      <point x="26" y="760" type="line"/>
      <point x="26" y="297" type="line"/>
      <point x="-8" y="250" type="line"/>
      <point x="-8" y="194" type="line"/>
      <point x="26" y="241" type="line"/>
    </contour>
  </outline>
</glyph>
<glyph name="nacute" format="1">
  <advance width="220"/>
  <unicode hex="0144"/>
  <outline>
    <contour>
      <point x="131" y="565" type="line"/>
      <point x="192" y="626" type="line"/>
      <point x="192" y="688" type="line"/>
      <point x="144" y="688" type="line"/>
      <point x="121" y="601" type="line"/>
      <point x="85" y="601" type="line"/>
      <point x="85" y="565" type="line"/>
    </contour>
    <contour>
      <point x="198" y="473" type="line"/>
      <point x="198" y="499" type="line"/>
      <point x="160" y="537" type="line"/>
      <point x="117" y="537" type="line"/>
      <point x="90" y="510" type="line"/>
      <point x="90" y="537" type="line"/>
      <point x="22" y="537" type="line"/>
      <point x="22" y="473" type="line"/>
    </contour>
    <contour>
      <point x="90" y="453" type="line"/>
      <point x="22" y="453" type="line"/>
      <point x="22" y="0" type="line"/>
      <point x="90" y="0" type="line"/>
    </contour>
    <contour>
      <point x="198" y="453" type="line"/>
      <point x="130" y="453" type="line"/>
      <point x="130" y="0" type="line"/>
      <point x="198" y="0" type="line"/>
    </contour>
  </outline>
</glyph>
<glyph name="Ncaron" format="1">
  <advance width="268"/>
  <unicode hex="0147"/>
  <outline>
    <contour>
      <point x="172" y="844" type="line"/>
      <point x="207" y="844" type="line"/>
      <point x="207" y="908" type="line"/>
      <point x="175" y="908" type="line"/>
      <point x="143" y="845" type="line"/>
      <point x="110" y="908" type="line"/>
      <point x="79" y="908" type="line"/>
      <point x="79" y="844" type="line"/>
      <point x="114" y="844" type="line"/>
      <point x="134" y="780" type="line"/>
      <point x="152" y="780" type="line"/>
    </contour>
    <contour>
      <point x="243" y="390" type="line"/>
      <point x="243" y="760" type="line"/>
      <point x="169" y="760" type="line"/>
      <point x="169" y="390" type="line"/>
    </contour>
    <contour>
      <point x="162" y="390" type="line"/>
      <point x="99" y="760" type="line"/>
      <point x="25" y="760" type="line"/>
      <point x="25" y="390" type="line"/>
    </contour>
    <contour>
      <point x="99" y="370" type="line"/>
      <point x="25" y="370" type="line"/>
      <point x="25" y="0" type="line"/>
      <point x="99" y="0" type="line"/>
    </contour>
    <contour>
      <point x="243" y="370" type="line"/>
      <point x="106" y="370" type="line"/>
      <point x="169" y="0" type="line"/>
      <point x="243" y="0" type="line"/>
    </contour>
  </outline>
</glyph>
<glyph name="ncaron" format="1">
  <advance width="220"/>
  <unicode hex="0148"/>
  <outline>
    <contour>
      <point x="146" y="621" type="line"/>
      <point x="181" y="621" type="line"/>
      <point x="181" y="685" type="line"/>
      <point x="149" y="685" type="line"/>
      <point x="117" y="622" type="line"/>
      <point x="84" y="685" type="line"/>
      <point x="53" y="685" type="line"/>
      <point x="53" y="621" type="line"/>
      <point x="88" y="621" type="line"/>
      <point x="108" y="557" type="line"/>
      <point x="126" y="557" type="line"/>
    </contour>
    <contour>
      <point x="198" y="473" type="line"/>
      <point x="198" y="499" type="line"/>
      <point x="160" y="537" type="line"/>
      <point x="117" y="537" type="line"/>
      <point x="90" y="510" type="line"/>
      <point x="90" y="537" type="line"/>
      <point x="22" y="537" type="line"/>
      <point x="22" y="473" type="line"/>
    </contour>
    <contour>
      <point x="90" y="453" type="line"/>
      <point x="22" y="453" type="line"/>
      <point x="22" y="0" type="line"/>
      <point x="90" y="0" type="line"/>
    </contour>
    <contour>
      <point x="198" y="453" type="line"/>
      <point x="130" y="453" type="line"/>
      <point x="130" y="0" type="line"/>
      <point x="198" y="0" type="line"/>
    </contour>
  </outline>
</glyph>
<glyph name="Eng" format="1">
  <advance width="268"/>
  <unicode hex="014A"/>
  <outline>
    <contour>
      <point x="169" y="390" type="line"/>
      <point x="243" y="390" type="line"/>
      <point x="243" y="760" type="line"/>
      <point x="169" y="760" type="line"/>
    </contour>
    <contour>
      <point x="25" y="390" type="line"/>
      <point x="162" y="390" type="line"/>
      <point x="99" y="760" type="line"/>
      <point x="25" y="760" type="line"/>
    </contour>
    <contour>
      <point x="99" y="370" type="line"/>
      <point x="25" y="370" type="line"/>
      <point x="25" y="0" type="line"/>
      <point x="99" y="0" type="line"/>
    </contour>
    <contour>
      <point x="134" y="-223" type="line"/>
      <point x="188" y="-223" type="line"/>
      <point x="243" y="-170" type="line"/>
      <point x="243" y="370" type="line"/>
      <point x="106" y="370" type="line"/>
      <point x="169" y="0" type="line"/>
      <point x="169" y="-155" type="line"/>
      <point x="134" y="-155" type="line"/>
    </contour>
  </outline>
</glyph>
<glyph name="Omacron" format="1">
  <advance width="241"/>
  <unicode hex="014C"/>
  <outline>
    <contour>
      <point x="47" y="802" type="line"/>
      <point x="183" y="802" type="line"/>
      <point x="183" y="845" type="line"/>
      <point x="47" y="845" type="line"/>
    </contour>
    <contour>
      <point x="216" y="692" type="line"/>
      <point x="216" y="706" type="line"/>
      <point x="163" y="760" type="line"/>
      <point x="79" y="760" type="line"/>
      <point x="25" y="706" type="line"/>
      <point x="25" y="692" type="line"/>
    </contour>
    <contour>
      <point x="99" y="88" type="line"/>
      <point x="99" y="672" type="line"/>
      <point x="25" y="672" type="line"/>
      <point x="25" y="88" type="line"/>
    </contour>
    <contour>
      <point x="216" y="88" type="line"/>
      <point x="216" y="672" type="line"/>
      <point x="142" y="672" type="line"/>
      <point x="142" y="88" type="line"/>
    </contour>
    <contour>
      <point x="216" y="68" type="line"/>
      <point x="25" y="68" type="line"/>
      <point x="25" y="54" type="line"/>
      <point x="79" y="0" type="line"/>
      <point x="162" y="0" type="line"/>
      <point x="216" y="54" type="line"/>
    </contour>
  </outline>
</glyph>
<glyph name="Obreve" format="1">
  <advance width="241"/>
  <unicode hex="014E"/>
  <outline>
    <contour>
      <point x="94" y="787" type="line"/>
      <point x="142" y="787" type="line"/>
      <point x="179" y="824" type="line"/>
      <point x="179" y="885" type="line"/>
      <point x="139" y="885" type="line"/>
      <point x="139" y="825" type="line"/>
      <point x="97" y="825" type="line"/>
      <point x="97" y="885" type="line"/>
      <point x="57" y="885" type="line"/>
      <point x="57" y="824" type="line"/>
    </contour>
    <contour>
      <point x="216" y="692" type="line"/>
      <point x="216" y="706" type="line"/>
      <point x="163" y="760" type="line"/>
      <point x="79" y="760" type="line"/>
      <point x="25" y="706" type="line"/>
      <point x="25" y="692" type="line"/>
    </contour>
    <contour>
      <point x="99" y="88" type="line"/>
      <point x="99" y="672" type="line"/>
      <point x="25" y="672" type="line"/>
      <point x="25" y="88" type="line"/>
    </contour>
    <contour>
      <point x="216" y="88" type="line"/>
      <point x="216" y="672" type="line"/>
      <point x="142" y="672" type="line"/>
      <point x="142" y="88" type="line"/>
    </contour>
    <contour>
      <point x="216" y="68" type="line"/>
      <point x="25" y="68" type="line"/>
      <point x="25" y="54" type="line"/>
      <point x="79" y="0" type="line"/>
      <point x="162" y="0" type="line"/>
      <point x="216" y="54" type="line"/>
    </contour>
  </outline>
</glyph>
<glyph name="ohungarumlaut" format="1">
  <advance width="220"/>
  <unicode hex="0151"/>
  <outline>
    <contour>
      <point x="60" y="565" type="line"/>
      <point x="84" y="565" type="line"/>
      <point x="117" y="598" type="line"/>
      <point x="117" y="651" type="line"/>
      <point x="75" y="651" type="line"/>
      <point x="75" y="594" type="line"/>
      <point x="60" y="594" type="line"/>
    </contour>
    <contour>
      <point x="138" y="565" type="line"/>
      <point x="162" y="565" type="line"/>
      <point x="195" y="598" type="line"/>
      <point x="195" y="651" type="line"/>
      <point x="153" y="651" type="line"/>
      <point x="153" y="594" type="line"/>
      <point x="138" y="594" type="line"/>
    </contour>
    <contour>
      <point x="198" y="473" type="line"/>
      <point x="198" y="488" type="line"/>
      <point x="149" y="537" type="line"/>
      <point x="71" y="537" type="line"/>
      <point x="22" y="488" type="line"/>
      <point x="22" y="473" type="line"/>
    </contour>
    <contour>
      <point x="198" y="84" type="line"/>
      <point x="198" y="453" type="line"/>
      <point x="130" y="453" type="line"/>
      <point x="130" y="84" type="line"/>
    </contour>
    <contour>
      <point x="90" y="84" type="line"/>
      <point x="90" y="453" type="line"/>
      <point x="22" y="453" type="line"/>
      <point x="22" y="84" type="line"/>
    </contour>
    <contour>
      <point x="198" y="64" type="line"/>
      <point x="22" y="64" type="line"/>
      <point x="22" y="49" type="line"/>
      <point x="71" y="0" type="line"/>
      <point x="149" y="0" type="line"/>
      <point x="198" y="49" type="line"/>
    </contour>
  </outline>
</glyph>
<glyph name="OE" format="1">
  <advance width="324"/>
  <unicode hex="0152"/>
  <outline>
    <contour>
      <point x="25" y="692" type="line"/>
      <point x="306" y="692" type="line"/>
      <point x="306" y="760" type="line"/>
      <point x="80" y="760" type="line"/>
      <point x="25" y="707" type="line"/>
    </contour>
    <contour>
      <point x="216" y="88" type="line"/>
      <point x="216" y="346" type="line"/>
      <point x="269" y="346" type="line"/>
      <point x="269" y="414" type="line"/>
      <point x="216" y="414" type="line"/>
      <point x="216" y="672" type="line"/>
      <point x="142" y="672" type="line"/>
      <point x="142" y="88" type="line"/>
    </contour>
    <contour>
      <point x="99" y="88" type="line"/>
      <point x="99" y="672" type="line"/>
      <point x="25" y="672" type="line"/>
      <point x="25" y="88" type="line"/>
    </contour>
    <contour>
      <point x="306" y="68" type="line"/>
      <point x="25" y="68" type="line"/>
      <point x="25" y="53" type="line"/>
      <point x="80" y="0" type="line"/>
      <point x="306" y="0" type="line"/>
    </contour>
  </outline>
</glyph>
<glyph name="racute" format="1">
  <advance width="157"/>
  <unicode hex="0155"/>
  <outline>
    <contour>
      <point x="103" y="565" type="line"/>
      <point x="164" y="626" type="line"/>
      <point x="164" y="688" type="line"/>
      <point x="116" y="688" type="line"/>
      <point x="93" y="601" type="line"/>
      <point x="57" y="601" type="line"/>
      <point x="57" y="565" type="line"/>
    </contour>
    <contour>
      <point x="22" y="473" type="line"/>
      <point x="146" y="473" type="line"/>
      <point x="146" y="537" type="line"/>
      <point x="117" y="537" type="line"/>
      <point x="90" y="510" type="line"/>
      <point x="90" y="537" type="line"/>
      <point x="22" y="537" type="line"/>
    </contour>
    <contour>
      <point x="90" y="453" type="line"/>
      <point x="22" y="453" type="line"/>
      <point x="22" y="0" type="line"/>
      <point x="90" y="0" type="line"/>
    </contour>
  </outline>
</glyph>
<glyph name="Rcommaaccent" format="1">
  <advance width="241"/>
  <unicode hex="0156"/>
  <outline>
    <contour>
      <point x="216" y="692" type="line"/>
      <point x="216" y="706" type="line"/>
      <point x="162" y="760" type="line"/>
      <point x="25" y="760" type="line"/>
      <point x="25" y="692" type="line"/>
    </contour>
    <contour>
      <point x="216" y="672" type="line"/>
      <point x="142" y="672" type="line"/>
      <point x="142" y="414" type="line"/>
      <point x="99" y="414" type="line"/>
      <point x="99" y="672" type="line"/>
      <point x="25" y="672" type="line"/>
      <point x="25" y="0" type="line"/>
      <point x="99" y="0" type="line"/>
      <point x="99" y="346" type="line"/>
      <point x="142" y="346" type="line"/>
      <point x="142" y="0" type="line"/>
      <point x="216" y="0" type="line"/>
      <point x="216" y="346" type="line"/>
      <point x="181" y="381" type="line"/>
      <point x="216" y="415" type="line"/>
    </contour>
    <contour>
      <point x="108" y="-154" type="line"/>
      <point x="157" y="-106" type="line"/>
      <point x="157" y="-33" type="line"/>
      <point x="101" y="-33" type="line"/>
      <point x="101" y="-119" type="line"/>
      <point x="65" y="-119" type="line"/>
      <point x="65" y="-154" type="line"/>
    </contour>
  </outline>
</glyph>
<glyph name="rcaron" format="1">
  <advance width="157"/>
  <unicode hex="0159"/>
  <outline>
    <contour>
      <point x="116" y="621" type="line"/>
      <point x="151" y="621" type="line"/>
      <point x="151" y="685" type="line"/>
      <point x="119" y="685" type="line"/>
      <point x="87" y="622" type="line"/>
      <point x="54" y="685" type="line"/>
      <point x="23" y="685" type="line"/>
      <point x="23" y="621" type="line"/>
      <point x="58" y="621" type="line"/>
      <point x="78" y="557" type="line"/>
      <point x="96" y="557" type="line"/>
    </contour>
    <contour>
      <point x="22" y="473" type="line"/>
      <point x="146" y="473" type="line"/>
      <point x="146" y="537" type="line"/>
      <point x="117" y="537" type="line"/>
      <point x="90" y="510" type="line"/>
      <point x="90" y="537" type="line"/>
      <point x="22" y="537" type="line"/>
    </contour>
    <contour>
      <point x="90" y="453" type="line"/>
      <point x="22" y="453" type="line"/>
      <point x="22" y="0" type="line"/>
      <point x="90" y="0" type="line"/>
    </contour>
  </outline>
</glyph>
<glyph name="scircumflex" format="1">
  <advance width="220"/>
  <unicode hex="015D"/>
  <outline>
    <contour>
      <point x="85" y="629" type="line"/>
      <point x="50" y="629" type="line"/>
      <point x="50" y="565" type="line"/>
      <point x="82" y="565" type="line"/>
      <point x="114" y="628" type="line"/>
      <point x="147" y="565" type="line"/>
      <point x="178" y="565" type="line"/>
      <point x="178" y="629" type="line"/>
      <point x="143" y="629" type="line"/>
      <point x="123" y="693" type="line"/>
      <point x="105" y="693" type="line"/>
    </contour>
    <contour>
      <point x="198" y="473" type="line"/>
      <point x="198" y="488" type="line"/>
      <point x="149" y="537" type="line"/>
      <point x="71" y="537" type="line"/>
      <point x="22" y="488" type="line"/>
      <point x="22" y="473" type="line"/>
    </contour>
    <contour>
      <point x="198" y="453" type="line"/>
      <point x="130" y="453" type="line"/>
      <point x="130" y="387" type="line"/>
      <point x="198" y="387" type="line"/>
    </contour>
    <contour>
      <point x="198" y="84" type="line"/>
      <point x="198" y="252" type="line"/>
      <point x="149" y="301" type="line"/>
      <point x="90" y="301" type="line"/>
      <point x="90" y="453" type="line"/>
      <point x="22" y="453" type="line"/>
      <point x="22" y="286" type="line"/>
      <point x="71" y="237" type="line"/>
      <point x="130" y="237" type="line"/>
      <point x="130" y="84" type="line"/>
    </contour>
    <contour>
      <point x="90" y="84" type="line"/>
      <point x="90" y="150" type="line"/>
      <point x="22" y="150" type="line"/>
      <point x="22" y="84" type="line"/>
    </contour>
    <contour>
      <point x="198" y="64" type="line"/>
      <point x="22" y="64" type="line"/>
      <point x="22" y="49" type="line"/>
      <point x="71" y="0" type="line"/>
      <point x="149" y="0" type="line"/>
      <point x="198" y="49" type="line"/>
    </contour>
  </outline>
</glyph>
<glyph name="Scedilla" format="1">
  <advance width="241"/>
  <unicode hex="015E"/>
  <outline>
    <contour>
      <point x="216" y="706" type="line"/>
      <point x="162" y="760" type="line"/>
      <point x="79" y="760" type="line"/>
      <point x="25" y="706" type="line"/>
      <point x="25" y="692" type="line"/>
      <point x="216" y="692" type="line"/>
    </contour>
    <contour>
      <point x="216" y="672" type="line"/>
      <point x="142" y="672" type="line"/>
      <point x="142" y="563" type="line"/>
      <point x="216" y="563" type="line"/>
    </contour>
    <contour>
      <point x="142" y="88" type="line"/>
      <point x="216" y="88" type="line"/>
      <point x="216" y="362" type="line"/>
      <point x="162" y="414" type="line"/>
      <point x="99" y="414" type="line"/>
      <point x="99" y="672" type="line"/>
      <point x="25" y="672" type="line"/>
      <point x="25" y="399" type="line"/>
      <point x="79" y="346" type="line"/>
      <point x="142" y="346" type="line"/>
    </contour>
    <contour>
      <point x="25" y="88" type="line"/>
      <point x="99" y="88" type="line"/>
      <point x="99" y="197" type="line"/>
      <point x="25" y="197" type="line"/>
    </contour>
    <contour>
      <point x="158" y="-104" type="line"/>
      <point x="158" y="0" type="line"/>
      <point x="162" y="0" type="line"/>
      <point x="216" y="54" type="line"/>
      <point x="216" y="68" type="line"/>
      <point x="25" y="68" type="line"/>
      <point x="25" y="54" type="line"/>
      <point x="79" y="0" type="line"/>
      <point x="126" y="0" type="line"/>
      <point x="126" y="-76" type="line"/>
      <point x="75" y="-76" type="line"/>
      <point x="75" y="-154" type="line"/>
      <point x="108" y="-154" type="line"/>
    </contour>
  </outline>
</glyph>
<glyph name="scedilla" format="1">
  <advance width="220"/>
  <unicode hex="015F"/>
  <outline>
    <contour>
      <point x="198" y="488" type="line"/>
      <point x="149" y="537" type="line"/>
      <point x="71" y="537" type="line"/>
      <point x="22" y="488" type="line"/>
      <point x="22" y="473" type="line"/>
      <point x="198" y="473" type="line"/>
    </contour>
    <contour>
      <point x="198" y="453" type="line"/>
      <point x="130" y="453" type="line"/>
      <point x="130" y="387" type="line"/>
      <point x="198" y="387" type="line"/>
    </contour>
    <contour>
      <point x="130" y="84" type="line"/>
      <point x="198" y="84" type="line"/>
      <point x="198" y="252" type="line"/>
      <point x="149" y="301" type="line"/>
      <point x="90" y="301" type="line"/>
      <point x="90" y="453" type="line"/>
      <point x="22" y="453" type="line"/>
      <point x="22" y="286" type="line"/>
      <point x="71" y="237" type="line"/>
      <point x="130" y="237" type="line"/>
    </contour>
    <contour>
      <point x="22" y="84" type="line"/>
      <point x="90" y="84" type="line"/>
      <point x="90" y="150" type="line"/>
      <point x="22" y="150" type="line"/>
    </contour>
    <contour>
      <point x="145" y="-104" type="line"/>
      <point x="145" y="0" type="line"/>
      <point x="149" y="0" type="line"/>
      <point x="198" y="49" type="line"/>
      <point x="198" y="64" type="line"/>
      <point x="22" y="64" type="line"/>
      <point x="22" y="49" type="line"/>
      <point x="71" y="0" type="line"/>
      <point x="113" y="0" type="line"/>
      <point x="113" y="-76" type="line"/>
      <point x="62" y="-76" type="line"/>
      <point x="62" y="-154" type="line"/>
      <point x="95" y="-154" type="line"/>
    </contour>
  </outline>
</glyph>
<glyph name="tcommaaccent" format="1">
  <advance width="157"/>
  <unicode hex="0163"/>
  <outline>
    <contour>
      <point x="14" y="473" type="line"/>
      <point x="139" y="473" type="line"/>
      <point x="139" y="537" type="line"/>
      <point x="100" y="537" type="line"/>
      <point x="100" y="609" type="line"/>
      <point x="68" y="609" type="line"/>
      <point x="14" y="522" type="line"/>
    </contour>
    <contour>
      <point x="100" y="453" type="line"/>
      <point x="32" y="453" type="line"/>
      <point x="32" y="49" type="line"/>
      <point x="81" y="0" type="line"/>
      <point x="139" y="0" type="line"/>
      <point x="139" y="64" type="line"/>
      <point x="100" y="64" type="line"/>
    </contour>
    <contour>
      <point x="83" y="-154" type="line"/>
      <point x="132" y="-106" type="line"/>
      <point x="132" y="-33" type="line"/>
      <point x="76" y="-33" type="line"/>
      <point x="76" y="-119" type="line"/>
      <point x="40" y="-119" type="line"/>
      <point x="40" y="-154" type="line"/>
    </contour>
  </outline>
</glyph>
<glyph name="Tcaron" format="1">
  <advance width="222"/>
  <unicode hex="0164"/>
  <outline>
    <contour>
      <point x="141" y="844" type="line"/>
      <point x="176" y="844" type="line"/>
      <point x="176" y="908" type="line"/>
      <point x="144" y="908" type="line"/>
      <point x="112" y="845" type="line"/>
      <point x="79" y="908" type="line"/>
      <point x="48" y="908" type="line"/>
      <point x="48" y="844" type="line"/>
      <point x="83" y="844" type="line"/>
      <point x="103" y="780" type="line"/>
      <point x="121" y="780" type="line"/>
    </contour>
    <contour>
      <point x="15" y="692" type="line"/>
      <point x="207" y="692" type="line"/>
      <point x="207" y="760" type="line"/>
      <point x="15" y="760" type="line"/>
    </contour>
    <contour>
      <point x="148" y="672" type="line"/>
      <point x="74" y="672" type="line"/>
      <point x="74" y="0" type="line"/>
      <point x="148" y="0" type="line"/>
    </contour>
  </outline>
</glyph>
<glyph name="tbar" format="1">
  <advance width="157"/>
  <unicode hex="0167"/>
  <outline>
    <contour>
      <point x="81" y="0" type="line"/>
      <point x="139" y="0" type="line"/>
      <point x="139" y="64" type="line"/>
      <point x="100" y="64" type="line"/>
      <point x="100" y="252" type="line"/>
      <point x="137" y="252" type="line"/>
      <point x="137" y="285" type="line"/>
      <point x="100" y="285" type="line"/>
      <point x="100" y="473" type="line"/>
      <point x="139" y="473" type="line"/>
      <point x="139" y="537" type="line"/>
      <point x="100" y="537" type="line"/>
      <point x="100" y="609" type="line"/>
      <point x="68" y="609" type="line"/>
      <point x="14" y="522" type="line"/>
      <point x="14" y="473" type="line"/>
      <point x="32" y="473" type="line"/>
      <point x="32" y="285" type="line"/>
      <point x="18" y="285" type="line"/>
      <point x="18" y="252" type="line"/>
      <point x="32" y="252" type="line"/>
      <point x="32" y="49" type="line"/>
    </contour>
  </outline>
</glyph>
<glyph name="utilde" format="1">
  <advance width="220"/>
  <unicode hex="0169"/>
  <outline>
    <contour>
      <point x="133" y="566" type="line"/>
      <point x="167" y="566" type="line"/>
      <point x="195" y="594" type="line"/>
      <point x="195" y="659" type="line"/>
      <point x="155" y="659" type="line"/>
      <point x="155" y="608" type="line"/>
      <point x="137" y="608" type="line"/>
      <point x="103" y="659" type="line"/>
      <point x="68" y="659" type="line"/>
      <point x="40" y="631" type="line"/>
      <point x="40" y="566" type="line"/>
      <point x="80" y="566" type="line"/>
      <point x="80" y="617" type="line"/>
      <point x="99" y="617" type="line"/>
    </contour>
    <contour>
      <point x="90" y="84" type="line"/>
      <point x="90" y="537" type="line"/>
      <point x="22" y="537" type="line"/>
      <point x="22" y="84" type="line"/>
    </contour>
    <contour>
      <point x="198" y="84" type="line"/>
      <point x="198" y="537" type="line"/>
      <point x="130" y="537" type="line"/>
      <point x="130" y="84" type="line"/>
    </contour>
    <contour>
      <point x="198" y="64" type="line"/>
      <point x="22" y="64" type="line"/>
      <point x="22" y="38" type="line"/>
      <point x="60" y="0" type="line"/>
      <point x="103" y="0" type="line"/>
      <point x="130" y="27" type="line"/>
      <point x="130" y="0" type="line"/>
      <point x="198" y="0" type="line"/>
    </contour>
  </outline>
</glyph>
<glyph name="Umacron" format="1">
  <advance width="241"/>
  <unicode hex="016A"/>
  <outline>
    <contour>
      <point x="51" y="802" type="line"/>
      <point x="187" y="802" type="line"/>
      <point x="187" y="845" type="line"/>
      <point x="51" y="845" type="line"/>
    </contour>
    <contour>
      <point x="99" y="88" type="line"/>
      <point x="99" y="760" type="line"/>
      <point x="25" y="760" type="line"/>
      <point x="25" y="88" type="line"/>
    </contour>
    <contour>
      <point x="216" y="88" type="line"/>
      <point x="216" y="760" type="line"/>
      <point x="142" y="760" type="line"/>
      <point x="142" y="88" type="line"/>
    </contour>
    <contour>
      <point x="216" y="68" type="line"/>
      <point x="25" y="68" type="line"/>
      <point x="25" y="54" type="line"/>
      <point x="79" y="0" type="line"/>
      <point x="162" y="0" type="line"/>
      <point x="216" y="54" type="line"/>
    </contour>
  </outline>
</glyph>
<glyph name="umacron" format="1">
  <advance width="220"/>
  <unicode hex="016B"/>
  <outline>
    <contour>
      <point x="50" y="579" type="line"/>
      <point x="186" y="579" type="line"/>
      <point x="186" y="622" type="line"/>
      <point x="50" y="622" type="line"/>
    </contour>
    <contour>
      <point x="90" y="84" type="line"/>
      <point x="90" y="537" type="line"/>
      <point x="22" y="537" type="line"/>
      <point x="22" y="84" type="line"/>
    </contour>
    <contour>
      <point x="198" y="84" type="line"/>
      <point x="198" y="537" type="line"/>
      <point x="130" y="537" type="line"/>
      <point x="130" y="84" type="line"/>
    </contour>
    <contour>
      <point x="198" y="64" type="line"/>
      <point x="22" y="64" type="line"/>
      <point x="22" y="38" type="line"/>
      <point x="60" y="0" type="line"/>
      <point x="103" y="0" type="line"/>
      <point x="130" y="27" type="line"/>
      <point x="130" y="0" type="line"/>
      <point x="198" y="0" type="line"/>
    </contour>
  </outline>
</glyph>
<glyph name="Ubreve" format="1">
  <advance width="241"/>
  <unicode hex="016C"/>
  <outline>
    <contour>
      <point x="96" y="787" type="line"/>
      <point x="144" y="787" type="line"/>
      <point x="181" y="824" type="line"/>
      <point x="181" y="885" type="line"/>
      <point x="141" y="885" type="line"/>
      <point x="141" y="825" type="line"/>
      <point x="99" y="825" type="line"/>
      <point x="99" y="885" type="line"/>
      <point x="59" y="885" type="line"/>
      <point x="59" y="824" type="line"/>
    </contour>
    <contour>
      <point x="99" y="88" type="line"/>
      <point x="99" y="760" type="line"/>
      <point x="25" y="760" type="line"/>
      <point x="25" y="88" type="line"/>
    </contour>
    <contour>
      <point x="216" y="88" type="line"/>
      <point x="216" y="760" type="line"/>
      <point x="142" y="760" type="line"/>
      <point x="142" y="88" type="line"/>
    </contour>
    <contour>
      <point x="216" y="68" type="line"/>
      <point x="25" y="68" type="line"/>
      <point x="25" y="54" type="line"/>
      <point x="79" y="0" type="line"/>
      <point x="162" y="0" type="line"/>
      <point x="216" y="54" type="line"/>
    </contour>
  </outline>
</glyph>
<glyph name="ubreve" format="1">
  <advance width="220"/>
  <unicode hex="016D"/>
  <outline>
    <contour>
      <point x="94" y="564" type="line"/>
      <point x="142" y="564" type="line"/>
      <point x="179" y="601" type="line"/>
      <point x="179" y="662" type="line"/>
      <point x="139" y="662" type="line"/>
      <point x="139" y="602" type="line"/>
      <point x="97" y="602" type="line"/>
      <point x="97" y="662" type="line"/>
      <point x="57" y="662" type="line"/>
      <point x="57" y="601" type="line"/>
    </contour>
    <contour>
      <point x="90" y="84" type="line"/>
      <point x="90" y="537" type="line"/>
      <point x="22" y="537" type="line"/>
      <point x="22" y="84" type="line"/>
    </contour>
    <contour>
      <point x="198" y="84" type="line"/>
      <point x="198" y="537" type="line"/>
      <point x="130" y="537" type="line"/>
      <point x="130" y="84" type="line"/>
    </contour>
    <contour>
      <point x="198" y="64" type="line"/>
      <point x="22" y="64" type="line"/>
      <point x="22" y="38" type="line"/>
      <point x="60" y="0" type="line"/>
      <point x="103" y="0" type="line"/>
      <point x="130" y="27" type="line"/>
      <point x="130" y="0" type="line"/>
      <point x="198" y="0" type="line"/>
    </contour>
  </outline>
</glyph>
<glyph name="Uring" format="1">
  <advance width="241"/>
  <unicode hex="016E"/>
  <outline>
    <contour>
      <point x="173" y="889" type="line"/>
      <point x="142" y="920" type="line"/>
      <point x="98" y="920" type="line"/>
      <point x="67" y="889" type="line"/>
      <point x="67" y="888" type="line"/>
      <point x="173" y="888" type="line"/>
    </contour>
    <contour>
      <point x="102" y="872" type="line"/>
      <point x="67" y="872" type="line"/>
      <point x="67" y="836" type="line"/>
      <point x="102" y="836" type="line"/>
    </contour>
    <contour>
      <point x="138" y="836" type="line"/>
      <point x="173" y="836" type="line"/>
      <point x="173" y="872" type="line"/>
      <point x="138" y="872" type="line"/>
    </contour>
    <contour>
      <point x="173" y="819" type="line"/>
      <point x="173" y="820" type="line"/>
      <point x="67" y="820" type="line"/>
      <point x="67" y="819" type="line"/>
      <point x="98" y="788" type="line"/>
      <point x="142" y="788" type="line"/>
    </contour>
    <contour>
      <point x="99" y="88" type="line"/>
      <point x="99" y="760" type="line"/>
      <point x="25" y="760" type="line"/>
      <point x="25" y="88" type="line"/>
    </contour>
    <contour>
      <point x="216" y="88" type="line"/>
      <point x="216" y="760" type="line"/>
      <point x="142" y="760" type="line"/>
      <point x="142" y="88" type="line"/>
    </contour>
    <contour>
      <point x="216" y="68" type="line"/>
      <point x="25" y="68" type="line"/>
      <point x="25" y="54" type="line"/>
      <point x="79" y="0" type="line"/>
      <point x="162" y="0" type="line"/>
      <point x="216" y="54" type="line"/>
    </contour>
  </outline>
</glyph>
<glyph name="uring" format="1">
  <advance width="220"/>
  <unicode hex="016F"/>
  <outline>
    <contour>
      <point x="171" y="666" type="line"/>
      <point x="140" y="697" type="line"/>
      <point x="96" y="697" type="line"/>
      <point x="65" y="666" type="line"/>
      <point x="65" y="665" type="line"/>
      <point x="171" y="665" type="line"/>
    </contour>
    <contour>
      <point x="100" y="649" type="line"/>
      <point x="65" y="649" type="line"/>
      <point x="65" y="613" type="line"/>
      <point x="100" y="613" type="line"/>
    </contour>
    <contour>
      <point x="136" y="613" type="line"/>
      <point x="171" y="613" type="line"/>
      <point x="171" y="649" type="line"/>
      <point x="136" y="649" type="line"/>
    </contour>
    <contour>
      <point x="171" y="596" type="line"/>
      <point x="171" y="597" type="line"/>
      <point x="65" y="597" type="line"/>
      <point x="65" y="596" type="line"/>
      <point x="96" y="565" type="line"/>
      <point x="140" y="565" type="line"/>
    </contour>
    <contour>
      <point x="90" y="84" type="line"/>
      <point x="90" y="537" type="line"/>
      <point x="22" y="537" type="line"/>
      <point x="22" y="84" type="line"/>
    </contour>
    <contour>
      <point x="198" y="84" type="line"/>
      <point x="198" y="537" type="line"/>
      <point x="130" y="537" type="line"/>
      <point x="130" y="84" type="line"/>
    </contour>
    <contour>
      <point x="198" y="64" type="line"/>
      <point x="22" y="64" type="line"/>
      <point x="22" y="38" type="line"/>
      <point x="60" y="0" type="line"/>
      <point x="103" y="0" type="line"/>
      <point x="130" y="27" type="line"/>
      <point x="130" y="0" type="line"/>
      <point x="198" y="0" type="line"/>
    </contour>
  </outline>
</glyph>
<glyph name="Uogonek" format="1">
  <advance width="241"/>
  <unicode hex="0172"/>
  <outline>
    <contour>
      <point x="25" y="88" type="line"/>
      <point x="99" y="88" type="line"/>
      <point x="99" y="760" type="line"/>
      <point x="25" y="760" type="line"/>
    </contour>
    <contour>
      <point x="142" y="88" type="line"/>
      <point x="216" y="88" type="line"/>
      <point x="216" y="760" type="line"/>
      <point x="142" y="760" type="line"/>
    </contour>
    <contour>
      <point x="187" y="-76" type="line"/>
      <point x="136" y="-76" type="line"/>
      <point x="136" y="0" type="line"/>
      <point x="162" y="0" type="line"/>
      <point x="216" y="54" type="line"/>
      <point x="216" y="68" type="line"/>
      <point x="25" y="68" type="line"/>
      <point x="25" y="54" type="line"/>
      <point x="79" y="0" type="line"/>
      <point x="104" y="0" type="line"/>
      <point x="104" y="-104" type="line"/>
      <point x="154" y="-154" type="line"/>
      <point x="187" y="-154" type="line"/>
    </contour>
  </outline>
</glyph>
<glyph name="Wcircumflex" format="1">
  <advance width="384"/>
  <unicode hex="0174"/>
  <outline>
    <contour>
      <point x="162" y="852" type="line"/>
      <point x="127" y="852" type="line"/>
      <point x="127" y="788" type="line"/>
      <point x="159" y="788" type="line"/>
      <point x="191" y="851" type="line"/>
      <point x="224" y="788" type="line"/>
      <point x="255" y="788" type="line"/>
      <point x="255" y="852" type="line"/>
      <point x="220" y="852" type="line"/>
      <point x="200" y="916" type="line"/>
      <point x="182" y="916" type="line"/>
    </contour>
    <contour>
      <point x="324" y="346" type="line"/>
      <point x="360" y="760" type="line"/>
      <point x="286" y="760" type="line"/>
      <point x="253" y="346" type="line"/>
    </contour>
    <contour>
      <point x="119" y="346" type="line"/>
      <point x="86" y="760" type="line"/>
      <point x="12" y="760" type="line"/>
      <point x="47" y="346" type="line"/>
    </contour>
    <contour>
      <point x="244" y="346" type="line"/>
      <point x="217" y="760" type="line"/>
      <point x="155" y="760" type="line"/>
      <point x="128" y="346" type="line"/>
    </contour>
    <contour>
      <point x="180" y="326" type="line"/>
      <point x="49" y="326" type="line"/>
      <point x="77" y="0" type="line"/>
      <point x="157" y="0" type="line"/>
    </contour>
    <contour>
      <point x="322" y="326" type="line"/>
      <point x="192" y="326" type="line"/>
      <point x="215" y="0" type="line"/>
      <point x="294" y="0" type="line"/>
    </contour>
  </outline>
</glyph>
<glyph name="wcircumflex" format="1">
  <advance width="331"/>
  <unicode hex="0175"/>
  <outline>
    <contour>
      <point x="139" y="629" type="line"/>
      <point x="104" y="629" type="line"/>
      <point x="104" y="565" type="line"/>
      <point x="136" y="565" type="line"/>
      <point x="168" y="628" type="line"/>
      <point x="201" y="565" type="line"/>
      <point x="232" y="565" type="line"/>
      <point x="232" y="629" type="line"/>
      <point x="197" y="629" type="line"/>
      <point x="177" y="693" type="line"/>
      <point x="159" y="693" type="line"/>
    </contour>
    <contour>
      <point x="104" y="279" type="line"/>
      <point x="76" y="537" type="line"/>
      <point x="12" y="537" type="line"/>
      <point x="41" y="279" type="line"/>
    </contour>
    <contour>
      <point x="290" y="279" type="line"/>
      <point x="319" y="537" type="line"/>
      <point x="255" y="537" type="line"/>
      <point x="227" y="279" type="line"/>
    </contour>
    <contour>
      <point x="215" y="279" type="line"/>
      <point x="189" y="537" type="line"/>
      <point x="142" y="537" type="line"/>
      <point x="116" y="279" type="line"/>
    </contour>
    <contour>
      <point x="161" y="259" type="line"/>
      <point x="44" y="259" type="line"/>
      <point x="73" y="0" type="line"/>
      <point x="137" y="0" type="line"/>
    </contour>
    <contour>
      <point x="287" y="259" type="line"/>
      <point x="169" y="259" type="line"/>
      <point x="194" y="0" type="line"/>
      <point x="258" y="0" type="line"/>
    </contour>
  </outline>
</glyph>
<glyph name="Ycircumflex" format="1">
  <advance width="260"/>
  <unicode hex="0176"/>
  <outline>
    <contour>
      <point x="94" y="852" type="line"/>
      <point x="59" y="852" type="line"/>
      <point x="59" y="788" type="line"/>
      <point x="91" y="788" type="line"/>
      <point x="123" y="851" type="line"/>
      <point x="156" y="788" type="line"/>
      <point x="187" y="788" type="line"/>
      <point x="187" y="852" type="line"/>
      <point x="152" y="852" type="line"/>
      <point x="132" y="916" type="line"/>
      <point x="114" y="916" type="line"/>
    </contour>
    <contour>
      <point x="83" y="760" type="line"/>
      <point x="11" y="760" type="line"/>
      <point x="47" y="537" type="line"/>
      <point x="116" y="537" type="line"/>
    </contour>
    <contour>
      <point x="239" y="760" type="line"/>
      <point x="167" y="760" type="line"/>
      <point x="134" y="537" type="line"/>
      <point x="203" y="537" type="line"/>
    </contour>
    <contour>
      <point x="162" y="0" type="line"/>
      <point x="162" y="283" type="line"/>
      <point x="200" y="517" type="line"/>
      <point x="50" y="517" type="line"/>
      <point x="88" y="283" type="line"/>
      <point x="88" y="0" type="line"/>
    </contour>
  </outline>
</glyph>
<glyph name="ycircumflex" format="1">
  <advance width="218"/>
  <unicode hex="0177"/>
  <outline>
    <contour>
      <point x="84" y="629" type="line"/>
      <point x="49" y="629" type="line"/>
      <point x="49" y="565" type="line"/>
      <point x="81" y="565" type="line"/>
      <point x="113" y="628" type="line"/>
      <point x="146" y="565" type="line"/>
      <point x="177" y="565" type="line"/>
      <point x="177" y="629" type="line"/>
      <point x="142" y="629" type="line"/>
      <point x="122" y="693" type="line"/>
      <point x="104" y="693" type="line"/>
    </contour>
    <contour>
      <point x="101" y="346" type="line"/>
      <point x="76" y="537" type="line"/>
      <point x="12" y="537" type="line"/>
      <point x="39" y="346" type="line"/>
    </contour>
    <contour>
      <point x="179" y="346" type="line"/>
      <point x="206" y="537" type="line"/>
      <point x="142" y="537" type="line"/>
      <point x="117" y="346" type="line"/>
    </contour>
    <contour>
      <point x="176" y="326" type="line"/>
      <point x="42" y="326" type="line"/>
      <point x="78" y="75" type="line"/>
      <point x="35" y="-223" type="line"/>
      <point x="97" y="-223" type="line"/>
    </contour>
  </outline>
</glyph>
<glyph name="Ydieresis" format="1">
  <advance width="260"/>
  <unicode hex="0178"/>
  <outline>
    <contour>
      <point x="64" y="795" type="line"/>
      <point x="108" y="795" type="line"/>
      <point x="108" y="863" type="line"/>
      <point x="64" y="863" type="line"/>
    </contour>
    <contour>
      <point x="140" y="795" type="line"/>
      <point x="184" y="795" type="line"/>
      <point x="184" y="863" type="line"/>
      <point x="140" y="863" type="line"/>
    </contour>
    <contour>
      <point x="83" y="760" type="line"/>
      <point x="11" y="760" type="line"/>
      <point x="47" y="537" type="line"/>
      <point x="116" y="537" type="line"/>
    </contour>
    <contour>
      <point x="239" y="760" type="line"/>
      <point x="167" y="760" type="line"/>
      <point x="134" y="537" type="line"/>
      <point x="203" y="537" type="line"/>
    </contour>
    <contour>
      <point x="162" y="0" type="line"/>
      <point x="162" y="283" type="line"/>
      <point x="200" y="517" type="line"/>
      <point x="50" y="517" type="line"/>
      <point x="88" y="283" type="line"/>
      <point x="88" y="0" type="line"/>
    </contour>
  </outline>
</glyph>
<glyph name="Zacute" format="1">
  <advance width="237"/>
  <unicode hex="0179"/>
  <outline>
    <contour>
      <point x="128" y="788" type="line"/>
      <point x="189" y="849" type="line"/>
      <point x="189" y="911" type="line"/>
      <point x="141" y="911" type="line"/>
      <point x="118" y="824" type="line"/>
      <point x="82" y="824" type="line"/>
      <point x="82" y="788" type="line"/>
    </contour>
    <contour>
      <point x="201" y="692" type="line"/>
      <point x="201" y="760" type="line"/>
      <point x="16" y="760" type="line"/>
      <point x="16" y="692" type="line"/>
    </contour>
    <contour>
      <point x="197" y="672" type="line"/>
      <point x="125" y="672" type="line"/>
      <point x="20" y="88" type="line"/>
      <point x="93" y="88" type="line"/>
    </contour>
    <contour>
      <point x="201" y="68" type="line"/>
      <point x="16" y="68" type="line"/>
      <point x="16" y="0" type="line"/>
      <point x="201" y="0" type="line"/>
    </contour>
  </outline>
</glyph>
<glyph name="Zdotaccent" format="1">
  <advance width="217"/>
  <unicode hex="017B"/>
  <outline>
    <contour>
      <point x="89" y="806" type="line"/>
      <point x="157" y="806" type="line"/>
      <point x="157" y="872" type="line"/>
      <point x="89" y="872" type="line"/>
    </contour>
    <contour>
      <point x="201" y="692" type="line"/>
      <point x="201" y="760" type="line"/>
      <point x="16" y="760" type="line"/>
      <point x="16" y="692" type="line"/>
    </contour>
    <contour>
      <point x="197" y="672" type="line"/>
      <point x="125" y="672" type="line"/>
      <point x="20" y="88" type="line"/>
      <point x="93" y="88" type="line"/>
    </contour>
    <contour>
      <point x="201" y="68" type="line"/>
      <point x="16" y="68" type="line"/>
      <point x="16" y="0" type="line"/>
      <point x="201" y="0" type="line"/>
    </contour>
  </outline>
</glyph>
<glyph name="zdotaccent" format="1">
  <advance width="195"/>
  <unicode hex="017C"/>
  <outline>
    <contour>
      <point x="76" y="583" type="line"/>
      <point x="144" y="583" type="line"/>
      <point x="144" y="649" type="line"/>
      <point x="76" y="649" type="line"/>
    </contour>
    <contour>
      <point x="181" y="473" type="line"/>
      <point x="181" y="537" type="line"/>
      <point x="14" y="537" type="line"/>
      <point x="14" y="473" type="line"/>
    </contour>
    <contour>
      <point x="88" y="84" type="line"/>
      <point x="176" y="453" type="line"/>
      <point x="108" y="453" type="line"/>
      <point x="19" y="84" type="line"/>
    </contour>
    <contour>
      <point x="181" y="64" type="line"/>
      <point x="14" y="64" type="line"/>
      <point x="14" y="0" type="line"/>
      <point x="181" y="0" type="line"/>
    </contour>
  </outline>
</glyph>
<glyph name="zcaron" format="1">
  <advance width="195"/>
  <unicode hex="017E"/>
  <outline>
    <contour>
      <point x="134" y="621" type="line"/>
      <point x="169" y="621" type="line"/>
      <point x="169" y="685" type="line"/>
      <point x="137" y="685" type="line"/>
      <point x="105" y="622" type="line"/>
      <point x="72" y="685" type="line"/>
      <point x="41" y="685" type="line"/>
      <point x="41" y="621" type="line"/>
      <point x="76" y="621" type="line"/>
      <point x="96" y="557" type="line"/>
      <point x="114" y="557" type="line"/>
    </contour>
    <contour>
      <point x="181" y="473" type="line"/>
      <point x="181" y="537" type="line"/>
      <point x="14" y="537" type="line"/>
      <point x="14" y="473" type="line"/>
    </contour>
    <contour>
      <point x="88" y="84" type="line"/>
      <point x="176" y="453" type="line"/>
      <point x="108" y="453" type="line"/>
      <point x="19" y="84" type="line"/>
    </contour>
    <contour>
      <point x="181" y="64" type="line"/>
      <point x="14" y="64" type="line"/>
      <point x="14" y="0" type="line"/>
      <point x="181" y="0" type="line"/>
    </contour>
  </outline>
</glyph>
<glyph name="florin" format="1">
  <advance width="200"/>
  <unicode hex="0192"/>
  <outline>
    <contour>
      <point x="18" y="363" type="line"/>
      <point x="188" y="363" type="line"/>
      <point x="188" y="397" type="line"/>
      <point x="133" y="397" type="line"/>
      <point x="153" y="696" type="line"/>
      <point x="188" y="696" type="line"/>
      <point x="188" y="760" type="line"/>
      <point x="135" y="760" type="line"/>
      <point x="84" y="709" type="line"/>
      <point x="63" y="397" type="line"/>
      <point x="18" y="397" type="line"/>
    </contour>
    <contour>
      <point x="129" y="343" type="line"/>
      <point x="59" y="343" type="line"/>
      <point x="25" y="-159" type="line"/>
      <point x="-10" y="-159" type="line"/>
      <point x="-10" y="-223" type="line"/>
      <point x="43" y="-223" type="line"/>
      <point x="94" y="-172" type="line"/>
    </contour>
  </outline>
</glyph>
<glyph name="Oslashacute" format="1">
  <advance width="241"/>
  <unicode hex="01FE"/>
  <outline>
    <contour>
      <point x="138" y="788" type="line"/>
      <point x="199" y="849" type="line"/>
      <point x="199" y="911" type="line"/>
      <point x="151" y="911" type="line"/>
      <point x="128" y="824" type="line"/>
      <point x="92" y="824" type="line"/>
      <point x="92" y="788" type="line"/>
    </contour>
    <contour>
      <point x="216" y="66" type="line"/>
      <point x="96" y="66" type="line"/>
      <point x="145" y="466" type="line"/>
      <point x="181" y="760" type="line"/>
      <point x="79" y="760" type="line"/>
      <point x="25" y="706" type="line"/>
      <point x="25" y="694" type="line"/>
      <point x="145" y="694" type="line"/>
      <point x="97" y="293" type="line"/>
      <point x="96" y="293" type="line"/>
      <point x="61" y="0" type="line"/>
      <point x="162" y="0" type="line"/>
      <point x="216" y="54" type="line"/>
    </contour>
    <contour>
      <point x="145" y="86" type="line"/>
      <point x="216" y="86" type="line"/>
      <point x="216" y="706" type="line"/>
      <point x="197" y="725" type="line"/>
      <point x="145" y="304" type="line"/>
    </contour>
    <contour>
      <point x="96" y="674" type="line"/>
      <point x="25" y="674" type="line"/>
      <point x="25" y="54" type="line"/>
      <point x="45" y="34" type="line"/>
      <point x="96" y="449" type="line"/>
    </contour>
  </outline>
</glyph>
<glyph name="Scommaaccent" format="1">
  <advance width="251"/>
  <unicode hex="0218"/>
  <outline>
    <contour>
      <point x="216" y="692" type="line"/>
      <point x="216" y="706" type="line"/>
      <point x="162" y="760" type="line"/>
      <point x="79" y="760" type="line"/>
      <point x="25" y="706" type="line"/>
      <point x="25" y="692" type="line"/>
    </contour>
    <contour>
      <point x="216" y="672" type="line"/>
      <point x="142" y="672" type="line"/>
      <point x="142" y="563" type="line"/>
      <point x="216" y="563" type="line"/>
    </contour>
    <contour>
      <point x="216" y="88" type="line"/>
      <point x="216" y="362" type="line"/>
      <point x="162" y="414" type="line"/>
      <point x="99" y="414" type="line"/>
      <point x="99" y="672" type="line"/>
      <point x="25" y="672" type="line"/>
      <point x="25" y="399" type="line"/>
      <point x="79" y="346" type="line"/>
      <point x="142" y="346" type="line"/>
      <point x="142" y="88" type="line"/>
    </contour>
    <contour>
      <point x="99" y="88" type="line"/>
      <point x="99" y="197" type="line"/>
      <point x="25" y="197" type="line"/>
      <point x="25" y="88" type="line"/>
    </contour>
    <contour>
      <point x="216" y="68" type="line"/>
      <point x="25" y="68" type="line"/>
      <point x="25" y="54" type="line"/>
      <point x="79" y="0" type="line"/>
      <point x="162" y="0" type="line"/>
      <point x="216" y="54" type="line"/>
    </contour>
    <contour>
      <point x="116" y="-154" type="line"/>
      <point x="165" y="-106" type="line"/>
      <point x="165" y="-33" type="line"/>
      <point x="109" y="-33" type="line"/>
      <point x="109" y="-119" type="line"/>
      <point x="73" y="-119" type="line"/>
      <point x="73" y="-154" type="line"/>
    </contour>
  </outline>
</glyph>
<glyph name="scommaaccent" format="1">
  <advance width="220"/>
  <unicode hex="0219"/>
  <outline>
    <contour>
      <point x="198" y="473" type="line"/>
      <point x="198" y="488" type="line"/>
      <point x="149" y="537" type="line"/>
      <point x="71" y="537" type="line"/>
      <point x="22" y="488" type="line"/>
      <point x="22" y="473" type="line"/>
    </contour>
    <contour>
      <point x="198" y="453" type="line"/>
      <point x="130" y="453" type="line"/>
      <point x="130" y="387" type="line"/>
      <point x="198" y="387" type="line"/>
    </contour>
    <contour>
      <point x="198" y="84" type="line"/>
      <point x="198" y="252" type="line"/>
      <point x="149" y="301" type="line"/>
      <point x="90" y="301" type="line"/>
      <point x="90" y="453" type="line"/>
      <point x="22" y="453" type="line"/>
      <point x="22" y="286" type="line"/>
      <point x="71" y="237" type="line"/>
      <point x="130" y="237" type="line"/>
      <point x="130" y="84" type="line"/>
    </contour>
    <contour>
      <point x="90" y="84" type="line"/>
      <point x="90" y="150" type="line"/>
      <point x="22" y="150" type="line"/>
      <point x="22" y="84" type="line"/>
    </contour>
    <contour>
      <point x="198" y="64" type="line"/>
      <point x="22" y="64" type="line"/>
      <point x="22" y="49" type="line"/>
      <point x="71" y="0" type="line"/>
      <point x="149" y="0" type="line"/>
      <point x="198" y="49" type="line"/>
    </contour>
    <contour>
      <point x="107" y="-154" type="line"/>
      <point x="156" y="-106" type="line"/>
      <point x="156" y="-33" type="line"/>
      <point x="100" y="-33" type="line"/>
      <point x="100" y="-119" type="line"/>
      <point x="64" y="-119" type="line"/>
      <point x="64" y="-154" type="line"/>
    </contour>
  </outline>
</glyph>
<glyph name="dotlessj" format="1">
  <advance width="122"/>
  <unicode hex="0237"/>
  <outline>
    <contour>
      <point x="47" y="-223" type="line"/>
      <point x="100" y="-172" type="line"/>
      <point x="100" y="537" type="line"/>
      <point x="32" y="537" type="line"/>
      <point x="32" y="-159" type="line"/>
      <point x="-4" y="-159" type="line"/>
      <point x="-4" y="-223" type="line"/>
    </contour>
  </outline>
</glyph>
<glyph name="schwa" format="1">
  <advance width="220"/>
  <unicode hex="0259"/>
  <outline>
    <contour>
      <point x="90" y="473" type="line"/>
      <point x="198" y="473" type="line"/>
      <point x="198" y="488" type="line"/>
      <point x="149" y="537" type="line"/>
      <point x="71" y="537" type="line"/>
      <point x="22" y="488" type="line"/>
      <point x="22" y="387" type="line"/>
      <point x="90" y="387" type="line"/>
    </contour>
    <contour>
      <point x="130" y="453" type="line"/>
      <point x="130" y="300" type="line"/>
      <point x="22" y="300" type="line"/>
      <point x="22" y="84" type="line"/>
      <point x="90" y="84" type="line"/>
      <point x="90" y="236" type="line"/>
      <point x="130" y="236" type="line"/>
      <point x="130" y="84" type="line"/>
      <point x="198" y="84" type="line"/>
      <point x="198" y="453" type="line"/>
    </contour>
    <contour>
      <point x="22" y="64" type="line"/>
      <point x="22" y="49" type="line"/>
      <point x="71" y="0" type="line"/>
      <point x="149" y="0" type="line"/>
      <point x="198" y="49" type="line"/>
      <point x="198" y="64" type="line"/>
    </contour>
  </outline>
</glyph>
<glyph name="circumflex" format="1">
  <advance width="210"/>
  <unicode hex="02C6"/>
  <outline>
    <contour>
      <point x="76" y="629" type="line"/>
      <point x="41" y="629" type="line"/>
      <point x="41" y="565" type="line"/>
      <point x="73" y="565" type="line"/>
      <point x="105" y="628" type="line"/>
      <point x="138" y="565" type="line"/>
      <point x="169" y="565" type="line"/>
      <point x="169" y="629" type="line"/>
      <point x="134" y="629" type="line"/>
      <point x="114" y="693" type="line"/>
      <point x="96" y="693" type="line"/>
    </contour>
  </outline>
</glyph>
<glyph name="ring" format="1">
  <advance width="210"/>
  <unicode hex="02DA"/>
  <outline>
    <contour>
      <point x="158" y="666" type="line"/>
      <point x="127" y="697" type="line"/>
      <point x="83" y="697" type="line"/>
      <point x="52" y="666" type="line"/>
      <point x="52" y="665" type="line"/>
      <point x="158" y="665" type="line"/>
    </contour>
    <contour>
      <point x="87" y="649" type="line"/>
      <point x="52" y="649" type="line"/>
      <point x="52" y="613" type="line"/>
      <point x="87" y="613" type="line"/>
    </contour>
    <contour>
      <point x="123" y="613" type="line"/>
      <point x="158" y="613" type="line"/>
      <point x="158" y="649" type="line"/>
      <point x="123" y="649" type="line"/>
    </contour>
    <contour>
      <point x="158" y="596" type="line"/>
      <point x="158" y="597" type="line"/>
      <point x="52" y="597" type="line"/>
      <point x="52" y="596" type="line"/>
      <point x="83" y="565" type="line"/>
      <point x="127" y="565" type="line"/>
    </contour>
  </outline>
</glyph>
<glyph name="tilde" format="1">
  <advance width="210"/>
  <unicode hex="02DC"/>
  <outline>
    <contour>
      <point x="120" y="566" type="line"/>
      <point x="154" y="566" type="line"/>
      <point x="182" y="594" type="line"/>
      <point x="182" y="659" type="line"/>
      <point x="142" y="659" type="line"/>
      <point x="142" y="608" type="line"/>
      <point x="124" y="608" type="line"/>
      <point x="90" y="659" type="line"/>
      <point x="55" y="659" type="line"/>
      <point x="27" y="631" type="line"/>
      <point x="27" y="566" type="line"/>
      <point x="67" y="566" type="line"/>
      <point x="67" y="617" type="line"/>
      <point x="86" y="617" type="line"/>
    </contour>
  </outline>
</glyph>
<glyph name="pi" format="1">
  <advance width="263"/>
  <unicode hex="03C0"/>
  <outline>
    <contour>
      <point x="13" y="473" type="line"/>
      <point x="250" y="473" type="line"/>
      <point x="250" y="537" type="line"/>
      <point x="13" y="537" type="line"/>
    </contour>
    <contour>
      <point x="13" y="64" type="line"/>
      <point x="13" y="0" type="line"/>
      <point x="62" y="0" type="line"/>
      <point x="111" y="49" type="line"/>
      <point x="111" y="453" type="line"/>
      <point x="43" y="453" type="line"/>
      <point x="43" y="64" type="line"/>
    </contour>
    <contour>
      <point x="219" y="453" type="line"/>
      <point x="151" y="453" type="line"/>
      <point x="151" y="0" type="line"/>
      <point x="219" y="0" type="line"/>
    </contour>
  </outline>
</glyph>
<glyph name="Wgrave" format="1">
  <advance width="384"/>
  <unicode hex="1E80"/>
  <outline>
    <contour>
      <point x="174" y="788" type="line"/>
      <point x="220" y="788" type="line"/>
      <point x="220" y="824" type="line"/>
      <point x="184" y="824" type="line"/>
      <point x="161" y="911" type="line"/>
      <point x="113" y="911" type="line"/>
      <point x="113" y="849" type="line"/>
    </contour>
    <contour>
      <point x="324" y="346" type="line"/>
      <point x="360" y="760" type="line"/>
      <point x="286" y="760" type="line"/>
      <point x="253" y="346" type="line"/>
    </contour>
    <contour>
      <point x="119" y="346" type="line"/>
      <point x="86" y="760" type="line"/>
      <point x="12" y="760" type="line"/>
      <point x="47" y="346" type="line"/>
    </contour>
    <contour>
      <point x="244" y="346" type="line"/>
      <point x="217" y="760" type="line"/>
      <point x="155" y="760" type="line"/>
      <point x="128" y="346" type="line"/>
    </contour>
    <contour>
      <point x="180" y="326" type="line"/>
      <point x="49" y="326" type="line"/>
      <point x="77" y="0" type="line"/>
      <point x="157" y="0" type="line"/>
    </contour>
    <contour>
      <point x="322" y="326" type="line"/>
      <point x="192" y="326" type="line"/>
      <point x="215" y="0" type="line"/>
      <point x="294" y="0" type="line"/>
    </contour>
  </outline>
</glyph>
<glyph name="wgrave" format="1">
  <advance width="331"/>
  <unicode hex="1E81"/>
  <outline>
    <contour>
      <point x="150" y="565" type="line"/>
      <point x="196" y="565" type="line"/>
      <point x="196" y="601" type="line"/>
      <point x="160" y="601" type="line"/>
      <point x="137" y="688" type="line"/>
      <point x="89" y="688" type="line"/>
      <point x="89" y="626" type="line"/>
    </contour>
    <contour>
      <point x="104" y="279" type="line"/>
      <point x="76" y="537" type="line"/>
      <point x="12" y="537" type="line"/>
      <point x="41" y="279" type="line"/>
    </contour>
    <contour>
      <point x="290" y="279" type="line"/>
      <point x="319" y="537" type="line"/>
      <point x="255" y="537" type="line"/>
      <point x="227" y="279" type="line"/>
    </contour>
    <contour>
      <point x="215" y="279" type="line"/>
      <point x="189" y="537" type="line"/>
      <point x="142" y="537" type="line"/>
      <point x="116" y="279" type="line"/>
    </contour>
    <contour>
      <point x="161" y="259" type="line"/>
      <point x="44" y="259" type="line"/>
      <point x="73" y="0" type="line"/>
      <point x="137" y="0" type="line"/>
    </contour>
    <contour>
      <point x="287" y="259" type="line"/>
      <point x="169" y="259" type="line"/>
      <point x="194" y="0" type="line"/>
      <point x="258" y="0" type="line"/>
    </contour>
  </outline>
</glyph>
<glyph name="Wacute" format="1">
  <advance width="384"/>
  <unicode hex="1E82"/>
  <outline>
    <contour>
      <point x="209" y="788" type="line"/>
      <point x="270" y="849" type="line"/>
      <point x="270" y="911" type="line"/>
      <point x="222" y="911" type="line"/>
      <point x="199" y="824" type="line"/>
      <point x="163" y="824" type="line"/>
      <point x="163" y="788" type="line"/>
    </contour>
    <contour>
      <point x="324" y="346" type="line"/>
      <point x="360" y="760" type="line"/>
      <point x="286" y="760" type="line"/>
      <point x="253" y="346" type="line"/>
    </contour>
    <contour>
      <point x="119" y="346" type="line"/>
      <point x="86" y="760" type="line"/>
      <point x="12" y="760" type="line"/>
      <point x="47" y="346" type="line"/>
    </contour>
    <contour>
      <point x="244" y="346" type="line"/>
      <point x="217" y="760" type="line"/>
      <point x="155" y="760" type="line"/>
      <point x="128" y="346" type="line"/>
    </contour>
    <contour>
      <point x="180" y="326" type="line"/>
      <point x="49" y="326" type="line"/>
      <point x="77" y="0" type="line"/>
      <point x="157" y="0" type="line"/>
    </contour>
    <contour>
      <point x="322" y="326" type="line"/>
      <point x="192" y="326" type="line"/>
      <point x="215" y="0" type="line"/>
      <point x="294" y="0" type="line"/>
    </contour>
  </outline>
</glyph>
<glyph name="wacute" format="1">
  <advance width="331"/>
  <unicode hex="1E83"/>
  <outline>
    <contour>
      <point x="186" y="565" type="line"/>
      <point x="247" y="626" type="line"/>
      <point x="247" y="688" type="line"/>
      <point x="199" y="688" type="line"/>
      <point x="176" y="601" type="line"/>
      <point x="140" y="601" type="line"/>
      <point x="140" y="565" type="line"/>
    </contour>
    <contour>
      <point x="104" y="279" type="line"/>
      <point x="76" y="537" type="line"/>
      <point x="12" y="537" type="line"/>
      <point x="41" y="279" type="line"/>
    </contour>
    <contour>
      <point x="290" y="279" type="line"/>
      <point x="319" y="537" type="line"/>
      <point x="255" y="537" type="line"/>
      <point x="227" y="279" type="line"/>
    </contour>
    <contour>
      <point x="215" y="279" type="line"/>
      <point x="189" y="537" type="line"/>
      <point x="142" y="537" type="line"/>
      <point x="116" y="279" type="line"/>
    </contour>
    <contour>
      <point x="161" y="259" type="line"/>
      <point x="44" y="259" type="line"/>
      <point x="73" y="0" type="line"/>
      <point x="137" y="0" type="line"/>
    </contour>
    <contour>
      <point x="287" y="259" type="line"/>
      <point x="169" y="259" type="line"/>
      <point x="194" y="0" type="line"/>
      <point x="258" y="0" type="line"/>
    </contour>
  </outline>
</glyph>
<glyph name="Wdieresis" format="1">
  <advance width="384"/>
  <unicode hex="1E84"/>
  <outline>
    <contour>
      <point x="132" y="795" type="line"/>
      <point x="176" y="795" type="line"/>
      <point x="176" y="863" type="line"/>
      <point x="132" y="863" type="line"/>
    </contour>
    <contour>
      <point x="208" y="795" type="line"/>
      <point x="252" y="795" type="line"/>
      <point x="252" y="863" type="line"/>
      <point x="208" y="863" type="line"/>
    </contour>
    <contour>
      <point x="324" y="346" type="line"/>
      <point x="360" y="760" type="line"/>
      <point x="286" y="760" type="line"/>
      <point x="253" y="346" type="line"/>
    </contour>
    <contour>
      <point x="119" y="346" type="line"/>
      <point x="86" y="760" type="line"/>
      <point x="12" y="760" type="line"/>
      <point x="47" y="346" type="line"/>
    </contour>
    <contour>
      <point x="244" y="346" type="line"/>
      <point x="217" y="760" type="line"/>
      <point x="155" y="760" type="line"/>
      <point x="128" y="346" type="line"/>
    </contour>
    <contour>
      <point x="180" y="326" type="line"/>
      <point x="49" y="326" type="line"/>
      <point x="77" y="0" type="line"/>
      <point x="157" y="0" type="line"/>
    </contour>
    <contour>
      <point x="322" y="326" type="line"/>
      <point x="192" y="326" type="line"/>
      <point x="215" y="0" type="line"/>
      <point x="294" y="0" type="line"/>
    </contour>
  </outline>
</glyph>
<glyph name="wdieresis" format="1">
  <advance width="331"/>
  <unicode hex="1E85"/>
  <outline>
    <contour>
      <point x="109" y="572" type="line"/>
      <point x="153" y="572" type="line"/>
      <point x="153" y="640" type="line"/>
      <point x="109" y="640" type="line"/>
    </contour>
    <contour>
      <point x="185" y="572" type="line"/>
      <point x="229" y="572" type="line"/>
      <point x="229" y="640" type="line"/>
      <point x="185" y="640" type="line"/>
    </contour>
    <contour>
      <point x="104" y="279" type="line"/>
      <point x="76" y="537" type="line"/>
      <point x="12" y="537" type="line"/>
      <point x="41" y="279" type="line"/>
    </contour>
    <contour>
      <point x="290" y="279" type="line"/>
      <point x="319" y="537" type="line"/>
      <point x="255" y="537" type="line"/>
      <point x="227" y="279" type="line"/>
    </contour>
    <contour>
      <point x="215" y="279" type="line"/>
      <point x="189" y="537" type="line"/>
      <point x="142" y="537" type="line"/>
      <point x="116" y="279" type="line"/>
    </contour>
    <contour>
      <point x="161" y="259" type="line"/>
      <point x="44" y="259" type="line"/>
      <point x="73" y="0" type="line"/>
      <point x="137" y="0" type="line"/>
    </contour>
    <contour>
      <point x="287" y="259" type="line"/>
      <point x="169" y="259" type="line"/>
      <point x="194" y="0" type="line"/>
      <point x="258" y="0" type="line"/>
    </contour>
  </outline>
</glyph>
<glyph name="endash" format="1">
  <advance width="251"/>
  <unicode hex="2013"/>
  <outline>
    <contour>
      <point x="25" y="291" type="line"/>
      <point x="226" y="291" type="line"/>
      <point x="226" y="359" type="line"/>
      <point x="25" y="359" type="line"/>
    </contour>
  </outline>
</glyph>
<glyph name="quoteleft" format="1">
  <advance width="136"/>
  <unicode hex="2018"/>
  <outline>
    <contour>
      <point x="20" y="568" type="line"/>
      <point x="88" y="568" type="line"/>
      <point x="88" y="722" type="line"/>
      <point x="120" y="722" type="line"/>
      <point x="120" y="760" type="line"/>
      <point x="84" y="760" type="line"/>
      <point x="20" y="698" type="line"/>
    </contour>
  </outline>
</glyph>
<glyph name="quotesinglbase" format="1">
  <advance width="136"/>
  <unicode hex="201A"/>
  <outline>
    <contour>
      <point x="52" y="-118" type="line"/>
      <point x="116" y="-56" type="line"/>
      <point x="116" y="74" type="line"/>
      <point x="48" y="74" type="line"/>
      <point x="48" y="-80" type="line"/>
      <point x="16" y="-80" type="line"/>
      <point x="16" y="-118" type="line"/>
    </contour>
  </outline>
</glyph>
<glyph name="quotedblleft" format="1">
  <advance width="244"/>
  <unicode hex="201C"/>
  <outline>
    <contour>
      <point x="20" y="568" type="line"/>
      <point x="88" y="568" type="line"/>
      <point x="88" y="722" type="line"/>
      <point x="120" y="722" type="line"/>
      <point x="120" y="760" type="line"/>
      <point x="84" y="760" type="line"/>
      <point x="20" y="698" type="line"/>
    </contour>
    <contour>
      <point x="128" y="568" type="line"/>
      <point x="196" y="568" type="line"/>
      <point x="196" y="722" type="line"/>
      <point x="228" y="722" type="line"/>
      <point x="228" y="760" type="line"/>
      <point x="192" y="760" type="line"/>
      <point x="128" y="698" type="line"/>
    </contour>
  </outline>
</glyph>
<glyph name="quotedblright" format="1">
  <advance width="244"/>
  <unicode hex="201D"/>
  <outline>
    <contour>
      <point x="52" y="568" type="line"/>
      <point x="116" y="630" type="line"/>
      <point x="116" y="760" type="line"/>
      <point x="48" y="760" type="line"/>
      <point x="48" y="606" type="line"/>
      <point x="16" y="606" type="line"/>
      <point x="16" y="568" type="line"/>
    </contour>
    <contour>
      <point x="160" y="568" type="line"/>
      <point x="224" y="630" type="line"/>
      <point x="224" y="760" type="line"/>
      <point x="156" y="760" type="line"/>
      <point x="156" y="606" type="line"/>
      <point x="124" y="606" type="line"/>
      <point x="124" y="568" type="line"/>
    </contour>
  </outline>
</glyph>
<glyph name="bullet" format="1">
  <advance width="240"/>
  <unicode hex="2022"/>
  <outline>
    <contour>
      <point x="161" y="134" type="line"/>
      <point x="215" y="188" type="line"/>
      <point x="215" y="348" type="line"/>
      <point x="161" y="402" type="line"/>
      <point x="79" y="402" type="line"/>
      <point x="25" y="348" type="line"/>
      <point x="25" y="188" type="line"/>
      <point x="79" y="134" type="line"/>
    </contour>
  </outline>
</glyph>
<glyph name="ellipsis" format="1">
  <advance width="392"/>
  <unicode hex="2026"/>
  <outline>
    <contour>
      <point x="25" y="0" type="line"/>
      <point x="105" y="0" type="line"/>
      <point x="105" y="79" type="line"/>
      <point x="25" y="79" type="line"/>
    </contour>
    <contour>
      <point x="156" y="0" type="line"/>
      <point x="236" y="0" type="line"/>
      <point x="236" y="79" type="line"/>
      <point x="156" y="79" type="line"/>
    </contour>
    <contour>
      <point x="287" y="0" type="line"/>
      <point x="367" y="0" type="line"/>
      <point x="367" y="79" type="line"/>
      <point x="287" y="79" type="line"/>
    </contour>
  </outline>
</glyph>
<glyph name="guilsinglleft" format="1">
  <advance width="162"/>
  <unicode hex="2039"/>
  <outline>
    <contour>
      <point x="63" y="94" type="line"/>
      <point x="137" y="94" type="line"/>
      <point x="137" y="199" type="line"/>
      <point x="74" y="269" type="line"/>
      <point x="137" y="339" type="line"/>
      <point x="137" y="444" type="line"/>
      <point x="63" y="444" type="line"/>
      <point x="63" y="312" type="line"/>
      <point x="10" y="282" type="line"/>
      <point x="10" y="256" type="line"/>
      <point x="63" y="226" type="line"/>
    </contour>
  </outline>
</glyph>
<glyph name="fraction" format="1">
  <advance width="255"/>
  <unicode hex="2044"/>
  <outline>
    <contour>
      <point x="4" y="0" type="line"/>
      <point x="72" y="0" type="line"/>
      <point x="252" y="760" type="line"/>
      <point x="184" y="760" type="line"/>
    </contour>
  </outline>
</glyph>
<glyph name="foursuperior" format="1">
  <advance width="176"/>
  <unicode hex="2074"/>
  <outline>
    <contour>
      <point x="29" y="537" type="line"/>
      <point x="69" y="537" type="line"/>
      <point x="96" y="651" type="line"/>
      <point x="96" y="537" type="line"/>
      <point x="141" y="537" type="line"/>
      <point x="141" y="760" type="line"/>
      <point x="80" y="760" type="line"/>
    </contour>
    <contour>
      <point x="141" y="472" type="line"/>
      <point x="157" y="472" type="line"/>
      <point x="157" y="517" type="line"/>
      <point x="24" y="517" type="line"/>
      <point x="24" y="472" type="line"/>
      <point x="96" y="472" type="line"/>
      <point x="96" y="380" type="line"/>
      <point x="141" y="380" type="line"/>
    </contour>
  </outline>
</glyph>
<glyph name="Euro" format="1">
  <advance width="256"/>
  <unicode hex="20AC"/>
  <outline>
    <contour>
      <point x="230" y="696" type="line"/>
      <point x="230" y="706" type="line"/>
      <point x="176" y="760" type="line"/>
      <point x="93" y="760" type="line"/>
      <point x="39" y="706" type="line"/>
      <point x="39" y="696" type="line"/>
    </contour>
    <contour>
      <point x="230" y="676" type="line"/>
      <point x="162" y="676" type="line"/>
      <point x="162" y="550" type="line"/>
      <point x="230" y="550" type="line"/>
    </contour>
    <contour>
      <point x="107" y="84" type="line"/>
      <point x="107" y="318" type="line"/>
      <point x="174" y="318" type="line"/>
      <point x="174" y="352" type="line"/>
      <point x="107" y="352" type="line"/>
      <point x="107" y="408" type="line"/>
      <point x="174" y="408" type="line"/>
      <point x="174" y="442" type="line"/>
      <point x="107" y="442" type="line"/>
      <point x="107" y="676" type="line"/>
      <point x="39" y="676" type="line"/>
      <point x="39" y="442" type="line"/>
      <point x="14" y="442" type="line"/>
      <point x="14" y="408" type="line"/>
      <point x="39" y="408" type="line"/>
      <point x="39" y="352" type="line"/>
      <point x="14" y="352" type="line"/>
      <point x="14" y="318" type="line"/>
      <point x="39" y="318" type="line"/>
      <point x="39" y="84" type="line"/>
    </contour>
    <contour>
      <point x="230" y="84" type="line"/>
      <point x="230" y="210" type="line"/>
      <point x="162" y="210" type="line"/>
      <point x="162" y="84" type="line"/>
    </contour>
    <contour>
      <point x="230" y="64" type="line"/>
      <point x="39" y="64" type="line"/>
      <point x="39" y="54" type="line"/>
      <point x="93" y="0" type="line"/>
      <point x="176" y="0" type="line"/>
      <point x="230" y="54" type="line"/>
    </contour>
  </outline>
</glyph>
<glyph name="litre" format="1">
  <advance width="227"/>
  <unicode hex="2113"/>
  <outline>
    <contour>
      <point x="207" y="710" type="line"/>
      <point x="157" y="760" type="line"/>
      <point x="89" y="760" type="line"/>
      <point x="39" y="710" type="line"/>
      <point x="39" y="696" type="line"/>
      <point x="207" y="696" type="line"/>
    </contour>
    <contour>
      <point x="110" y="0" type="line"/>
      <point x="161" y="0" type="line"/>
      <point x="161" y="64" type="line"/>
      <point x="139" y="64" type="line"/>
      <point x="107" y="96" type="line"/>
      <point x="107" y="676" type="line"/>
      <point x="39" y="676" type="line"/>
      <point x="39" y="125" type="line"/>
      <point x="9" y="67" type="line"/>
      <point x="9" y="-29" type="line"/>
      <point x="53" y="57" type="line"/>
    </contour>
    <contour>
      <point x="207" y="676" type="line"/>
      <point x="147" y="676" type="line"/>
      <point x="147" y="391" type="line"/>
      <point x="121" y="271" type="line"/>
      <point x="121" y="195" type="line"/>
      <point x="136" y="195" type="line"/>
      <point x="207" y="373" type="line"/>
    </contour>
  </outline>
</glyph>
<glyph name="numero" format="1">
  <advance width="454"/>
  <unicode hex="2116"/>
  <outline>
    <contour>
      <point x="243" y="390" type="line"/>
      <point x="243" y="760" type="line"/>
      <point x="169" y="760" type="line"/>
      <point x="169" y="390" type="line"/>
    </contour>
    <contour>
      <point x="162" y="390" type="line"/>
      <point x="99" y="760" type="line"/>
      <point x="25" y="760" type="line"/>
      <point x="25" y="390" type="line"/>
    </contour>
    <contour>
      <point x="431" y="718" type="line"/>
      <point x="389" y="760" type="line"/>
      <point x="326" y="760" type="line"/>
      <point x="284" y="718" type="line"/>
      <point x="284" y="707" type="line"/>
      <point x="431" y="707" type="line"/>
    </contour>
    <contour>
      <point x="284" y="453" type="line"/>
      <point x="340" y="453" type="line"/>
      <point x="340" y="687" type="line"/>
      <point x="284" y="687" type="line"/>
    </contour>
    <contour>
      <point x="431" y="687" type="line"/>
      <point x="375" y="687" type="line"/>
      <point x="375" y="453" type="line"/>
      <point x="431" y="453" type="line"/>
    </contour>
    <contour>
      <point x="431" y="422" type="line"/>
      <point x="431" y="433" type="line"/>
      <point x="284" y="433" type="line"/>
      <point x="284" y="422" type="line"/>
      <point x="326" y="380" type="line"/>
      <point x="389" y="380" type="line"/>
    </contour>
    <contour>
      <point x="99" y="370" type="line"/>
      <point x="25" y="370" type="line"/>
      <point x="25" y="0" type="line"/>
      <point x="99" y="0" type="line"/>
    </contour>
    <contour>
      <point x="243" y="370" type="line"/>
      <point x="106" y="370" type="line"/>
      <point x="169" y="0" type="line"/>
      <point x="243" y="0" type="line"/>
    </contour>
    <contour>
      <point x="284" y="157" type="line"/>
      <point x="431" y="157" type="line"/>
      <point x="431" y="221" type="line"/>
      <point x="284" y="221" type="line"/>
    </contour>
  </outline>
</glyph>
<glyph name="published" format="1">
  <advance width="311"/>
  <unicode hex="2117"/>
  <outline>
    <contour>
      <point x="49" y="721" type="line"/>
      <point x="262" y="721" type="line"/>
      <point x="223" y="760" type="line"/>
      <point x="88" y="760" type="line"/>
    </contour>
    <contour>
      <point x="31" y="59" type="line"/>
      <point x="75" y="59" type="line"/>
      <point x="75" y="701" type="line"/>
      <point x="31" y="701" type="line"/>
    </contour>
    <contour>
      <point x="280" y="701" type="line"/>
      <point x="236" y="701" type="line"/>
      <point x="236" y="59" type="line"/>
      <point x="280" y="59" type="line"/>
    </contour>
    <contour>
      <point x="213" y="555" type="line"/>
      <point x="180" y="588" type="line"/>
      <point x="98" y="588" type="line"/>
      <point x="98" y="549" type="line"/>
      <point x="213" y="549" type="line"/>
    </contour>
    <contour>
      <point x="213" y="529" type="line"/>
      <point x="168" y="529" type="line"/>
      <point x="168" y="399" type="line"/>
      <point x="143" y="399" type="line"/>
      <point x="143" y="529" type="line"/>
      <point x="98" y="529" type="line"/>
      <point x="98" y="172" type="line"/>
      <point x="143" y="172" type="line"/>
      <point x="143" y="360" type="line"/>
      <point x="180" y="360" type="line"/>
      <point x="213" y="393" type="line"/>
    </contour>
    <contour>
      <point x="262" y="39" type="line"/>
      <point x="49" y="39" type="line"/>
      <point x="88" y="0" type="line"/>
      <point x="223" y="0" type="line"/>
    </contour>
  </outline>
</glyph>
